{
	"asset":{
		"generator":"Khronos glTF Blender I/O v4.0.44",
		"version":"2.0"
	},
	"scene":0,
	"scenes":[
		{
			"name":"Scene",
			"nodes":[
				0,
				1
			]
		}
	],
	"nodes":[
		{
			"mesh":0,
			"name":"Curve",
			"rotation":[
				0.7071068286895752,
				0,
				0,
				0.7071068286895752
			],
			"scale":[
				390.70355224609375,
				390.70355224609375,
				390.70355224609375
			],
			"translation":[
				-5.3934712409973145,
				-2.593616008758545,
				0
			]
		},
		{
			"mesh":1,
			"name":"Curve.026",
			"rotation":[
				0.7071068286895752,
				0,
				0,
				0.7071068286895752
			],
			"scale":[
				390.70355224609375,
				390.70355224609375,
				390.70355224609375
			],
			"translation":[
				-5.3934712409973145,
				-2.593616008758545,
				-4.76837158203125e-06
			]
		}
	],
	"materials":[
		{
			"doubleSided":true,
			"name":"SVGMat.001",
			"pbrMetallicRoughness":{
				"baseColorFactor":[
					0.16306278109550476,
					0.17497016489505768,
					0.17904900014400482,
					1
				],
				"metallicFactor":1,
				"roughnessFactor":0.10000000149011612
			}
		},
		{
			"doubleSided":true,
			"name":"Material.001",
			"pbrMetallicRoughness":{
				"baseColorFactor":[
					0.8006788492202759,
					0.4072672724723816,
					0.14137002825737,
					1
				],
				"metallicFactor":1,
				"roughnessFactor":0.10000000149011612
			}
		}
	],
	"meshes":[
		{
			"name":"Curve",
			"primitives":[
				{
					"attributes":{
						"POSITION":0,
						"NORMAL":1,
						"TEXCOORD_0":2
					},
					"indices":3,
					"material":0
				}
			]
		},
		{
			"name":"Curve.026",
			"primitives":[
				{
					"attributes":{
						"POSITION":4,
						"NORMAL":5,
						"TEXCOORD_0":6
					},
					"indices":7,
					"material":1
				}
			]
		}
	],
	"accessors":[
		{
			"bufferView":0,
			"componentType":5126,
			"count":462,
			"max":[
				0.014413947239518166,
				0.0005000000237487257,
				-0.006997349206358194
			],
			"min":[
				0.011003927327692509,
				-0.0005000000237487257,
				-0.012019356712698936
			],
			"type":"VEC3"
		},
		{
			"bufferView":1,
			"componentType":5126,
			"count":462,
			"type":"VEC3"
		},
		{
			"bufferView":2,
			"componentType":5126,
			"count":462,
			"type":"VEC2"
		},
		{
			"bufferView":3,
			"componentType":5123,
			"count":1392,
			"type":"SCALAR"
		},
		{
			"bufferView":4,
			"componentType":5126,
			"count":1490,
			"max":[
				0.01568230800330639,
				0.0005000000237487257,
				-0.00625128298997879
			],
			"min":[
				0.011894998140633106,
				-0.0005000000237487257,
				-0.012220599688589573
			],
			"type":"VEC3"
		},
		{
			"bufferView":5,
			"componentType":5126,
			"count":1490,
			"type":"VEC3"
		},
		{
			"bufferView":6,
			"componentType":5126,
			"count":1490,
			"type":"VEC2"
		},
		{
			"bufferView":7,
			"componentType":5123,
			"count":4452,
			"type":"SCALAR"
		}
	],
	"bufferViews":[
		{
			"buffer":0,
			"byteLength":5544,
			"byteOffset":0,
			"target":34962
		},
		{
			"buffer":0,
			"byteLength":5544,
			"byteOffset":5544,
			"target":34962
		},
		{
			"buffer":0,
			"byteLength":3696,
			"byteOffset":11088,
			"target":34962
		},
		{
			"buffer":0,
			"byteLength":2784,
			"byteOffset":14784,
			"target":34963
		},
		{
			"buffer":0,
			"byteLength":17880,
			"byteOffset":17568,
			"target":34962
		},
		{
			"buffer":0,
			"byteLength":17880,
			"byteOffset":35448,
			"target":34962
		},
		{
			"buffer":0,
			"byteLength":11920,
			"byteOffset":53328,
			"target":34962
		},
		{
			"buffer":0,
			"byteLength":8904,
			"byteOffset":65248,
			"target":34963
		}
	],
	"buffers":[
		{
			"byteLength":74152,
			"uri":"GlobalFire_orange_fire.bin"
		}
	]
}
