<?xml version="1.0" encoding="UTF-8" standalone="no"?><!DOCTYPE svg PUBLIC "-//W3C//DTD SVG 1.1//EN" "http://www.w3.org/Graphics/SVG/1.1/DTD/svg11.dtd"><svg width="100%" height="100%" viewBox="0 0 103 40" version="1.1" xmlns="http://www.w3.org/2000/svg" xmlns:xlink="http://www.w3.org/1999/xlink" xml:space="preserve" xmlns:serif="http://www.serif.com/" style="fill-rule:evenodd;clip-rule:evenodd;stroke-linejoin:round;stroke-miterlimit:2;"><g><g><path d="M35.638,11.759l0,-1.146l-2.087,-0l0,3.236l2.087,-2.09Z" style="fill:#828282;fill-rule:nonzero;"/><path d="M40.122,10.242l7.785,7.781l1.08,-1.076l-8.865,-8.86l-8.859,8.86l1.078,1.076l7.781,-7.781Z" style="fill:#828282;fill-rule:nonzero;"/><path d="M43.276,16.632c-0.844,0.844 -1.668,1.703 -2.342,2.684c-0.799,1.163 -1.456,2.438 -1.978,3.772c-0.699,-1.205 -1.43,-2.385 -2.46,-3.262l0,-0.024c0.048,-0.334 0.535,-0.17 0.768,-0.094c0.56,0.179 1.126,0.489 1.538,0.698c0.946,-1.086 1.961,-2.298 3.091,-3.265c0.444,-0.383 0.885,-0.827 1.49,-0.982l0.07,-0c0.326,0.07 -0.063,0.356 -0.177,0.473m-3.152,-5.114l-5.738,5.738l0.006,0.006l-0.006,0l0,7.536l11.466,-0l0,-7.534l0.009,-0.008l-5.737,-5.738Z" style="fill:#828282;fill-rule:nonzero;"/><path d="M10.246,27.166c1.029,-0.002 1.903,-0.215 2.618,-0.637c0.718,-0.422 1.298,-0.983 1.744,-1.676c0.446,-0.696 0.769,-1.483 0.971,-2.369c0.201,-0.884 0.3,-1.778 0.3,-2.672c-0,-0.9 -0.111,-1.768 -0.329,-2.613c-0.22,-0.844 -0.552,-1.588 -0.999,-2.242c-0.448,-0.652 -1.033,-1.169 -1.751,-1.548c-0.717,-0.381 -1.578,-0.568 -2.58,-0.566c-1.029,-0 -1.894,0.222 -2.597,0.655c-0.704,0.439 -1.271,1.003 -1.702,1.7c-0.432,0.693 -0.744,1.483 -0.932,2.367c-0.189,0.884 -0.28,1.763 -0.279,2.633c0.001,0.869 0.11,1.719 0.329,2.548c0.218,0.831 0.552,1.571 0.998,2.223c0.449,0.655 1.018,1.182 1.709,1.587c0.692,0.409 1.525,0.612 2.5,0.61m10.311,2.54c0.005,3.18 -0.879,5.554 -2.656,7.118c-1.778,1.565 -4.335,2.35 -7.677,2.358c-1.059,-0 -2.126,-0.108 -3.198,-0.323c-1.075,-0.214 -2.049,-0.577 -2.934,-1.09c-0.885,-0.515 -1.626,-1.191 -2.224,-2.032c-0.6,-0.838 -0.955,-1.869 -1.066,-3.086l4.662,-0.008c0.136,0.647 0.367,1.173 0.692,1.578c0.326,0.404 0.713,0.722 1.159,0.95c0.447,0.23 0.942,0.377 1.485,0.443c0.54,0.068 1.109,0.101 1.705,0.101c1.868,-0.004 3.234,-0.468 4.098,-1.393c0.866,-0.927 1.297,-2.26 1.293,-3.997l-0.003,-3.218l-0.078,-0c-0.65,1.168 -1.537,2.082 -2.662,2.733c-1.125,0.656 -2.341,0.982 -3.642,0.984c-1.683,0.004 -3.113,-0.285 -4.295,-0.868c-1.182,-0.581 -2.16,-1.381 -2.934,-2.401c-0.776,-1.014 -1.341,-2.19 -1.697,-3.52c-0.354,-1.331 -0.534,-2.757 -0.536,-4.277c-0.002,-1.412 0.213,-2.76 0.642,-4.035c0.433,-1.279 1.055,-2.401 1.868,-3.369c0.813,-0.964 1.808,-1.733 2.988,-2.305c1.179,-0.574 2.514,-0.861 4.009,-0.864c1.329,-0 2.551,0.274 3.664,0.826c1.114,0.554 1.971,1.428 2.569,2.617l0.078,-0l-0.007,-2.878l4.663,-0.005l0.034,19.961Z" style="fill:#828282;fill-rule:nonzero;"/><path d="M21.437,0.039l4.66,-0.006l0.053,30.495l-4.66,0.01l-0.053,-30.499Z" style="fill:#828282;fill-rule:nonzero;"/><path d="M71.142,19.976c-0.002,-0.953 -0.124,-1.878 -0.369,-2.775c-0.247,-0.897 -0.614,-1.694 -1.103,-2.387c-0.49,-0.692 -1.1,-1.25 -1.833,-1.67c-0.732,-0.422 -1.573,-0.63 -2.521,-0.63c-1.952,0.006 -3.42,0.688 -4.407,2.05c-0.988,1.363 -1.48,3.174 -1.474,5.433c-0,1.061 0.132,2.048 0.39,2.958c0.258,0.914 0.646,1.694 1.163,2.346c0.516,0.652 1.133,1.169 1.851,1.547c0.72,0.384 1.554,0.569 2.502,0.569c1.058,-0.002 1.953,-0.221 2.683,-0.658c0.731,-0.438 1.333,-1.002 1.806,-1.699c0.472,-0.693 0.809,-1.483 1.013,-2.368c0.201,-0.886 0.302,-1.791 0.299,-2.716m-16.21,-19.958l4.622,-0.009l0.019,12.151l0.079,0c0.325,-0.517 0.717,-0.978 1.178,-1.385c0.462,-0.409 0.969,-0.755 1.527,-1.038c0.556,-0.286 1.141,-0.506 1.751,-0.654c0.611,-0.152 1.215,-0.225 1.813,-0.228c1.659,-0.002 3.106,0.289 4.342,0.87c1.237,0.581 2.263,1.381 3.082,2.402c0.813,1.015 1.429,2.203 1.841,3.562c0.408,1.358 0.614,2.812 0.616,4.361c0.003,1.412 -0.179,2.785 -0.543,4.118c-0.362,1.335 -0.916,2.507 -1.663,3.53c-0.743,1.02 -1.686,1.835 -2.826,2.45c-1.138,0.612 -2.483,0.92 -4.029,0.924c-0.705,0.001 -1.418,-0.047 -2.138,-0.141c-0.721,-0.093 -1.405,-0.278 -2.057,-0.549c-0.653,-0.272 -1.245,-0.626 -1.773,-1.059c-0.531,-0.431 -0.973,-1.003 -1.327,-1.709l-0.08,0l0.005,2.895l-4.387,0.005l-0.052,-30.496Z" style="fill:#828282;fill-rule:nonzero;"/><path d="M97.721,1.563l4.659,-0.01l0.052,29.073l-4.66,0.008l-0.051,-29.071Z" style="fill:#828282;fill-rule:nonzero;"/><path d="M48.316,6.399l-0.011,-6.403l-4.66,0.007l0.007,4.19c1.71,0.431 3.288,1.189 4.664,2.206" style="fill:#828282;fill-rule:nonzero;"/><path d="M43.697,30.116l0.003,0.385l4.659,-0.008l-0.005,-2.598c-1.374,1.02 -2.95,1.783 -4.657,2.221" style="fill:#828282;fill-rule:nonzero;"/><path d="M40.421,3.79c0.807,0 1.6,0.068 2.367,0.206l-0.007,-3.991l-4.659,0.008l0.006,3.976c0.745,-0.129 1.511,-0.196 2.293,-0.199" style="fill:#828282;fill-rule:nonzero;"/><path d="M41.284,30.503l1.55,-0.003l0,-0.186c-0.507,0.093 -1.023,0.155 -1.55,0.189" style="fill:#828282;fill-rule:nonzero;"/><path d="M38.173,30.338l0.002,0.171l1.471,-0.004c-0.497,-0.029 -0.99,-0.086 -1.473,-0.167" style="fill:#828282;fill-rule:nonzero;"/><path d="M32.646,27.979l0.005,2.538l4.659,-0.008l0,-0.366c-1.708,-0.418 -3.285,-1.162 -4.664,-2.164" style="fill:#828282;fill-rule:nonzero;"/><path d="M37.265,4.186l-0.007,-4.173l-4.66,0.009l0.01,6.348c1.376,-1.012 2.951,-1.761 4.657,-2.184" style="fill:#828282;fill-rule:nonzero;"/><path d="M27.194,17.183c-0.006,-4.015 1.755,-7.62 4.553,-10.073l-0.014,-7.089l-4.659,0.01l0.053,30.495l4.659,-0.007l-0.004,-3.28c-2.806,-2.446 -4.582,-6.043 -4.588,-10.057" style="fill:#828282;fill-rule:nonzero;"/><path d="M49.17,-0.01l0.012,7.155c2.76,2.446 4.502,6.013 4.51,9.99c0.006,3.976 -1.724,7.552 -4.474,10.006l0.004,3.345l4.662,-0.003l-0.054,-30.498l-4.66,0.005Z" style="fill:#828282;fill-rule:nonzero;"/><path d="M90.851,23.567c0.002,0.733 -0.173,1.354 -0.525,1.858c-0.353,0.504 -0.794,0.92 -1.321,1.247c-0.528,0.328 -1.09,0.56 -1.685,0.697c-0.597,0.136 -1.154,0.203 -1.668,0.203c-0.407,-0 -0.86,-0.036 -1.361,-0.12c-0.504,-0.078 -0.963,-0.22 -1.383,-0.424c-0.422,-0.205 -0.782,-0.481 -1.081,-0.834c-0.298,-0.353 -0.447,-0.787 -0.45,-1.304c0,-0.6 0.099,-1.107 0.302,-1.529c0.204,-0.423 0.483,-0.762 0.832,-1.023c0.353,-0.258 0.761,-0.463 1.219,-0.612c0.462,-0.152 0.934,-0.267 1.424,-0.35c1.031,-0.192 2.058,-0.338 3.09,-0.433c1.028,-0.1 1.896,-0.376 2.599,-0.84l0.008,3.464Zm5.353,7.071c-0.111,-0.247 -0.199,-0.534 -0.237,-0.636c-0.44,-1.102 -0.45,-3.464 -0.452,-4.035l-0.018,-10.852c-0.002,-1.113 -0.249,-2.058 -0.739,-2.834c-0.491,-0.775 -1.14,-1.407 -1.94,-1.891c-0.804,-0.489 -1.709,-0.841 -2.714,-1.056c-1.007,-0.217 -2.027,-0.323 -3.06,-0.321c-1.169,0.002 -2.311,0.112 -3.425,0.33c-1.114,0.221 -2.113,0.603 -2.996,1.145c-0.882,0.547 -1.609,1.269 -2.178,2.165c-0.569,0.896 -0.893,2.027 -0.973,3.383l4.66,-0.009c0.106,-1.144 0.579,-1.988 1.417,-2.533c0.838,-0.547 1.906,-0.823 3.207,-0.824c0.46,-0 0.947,0.032 1.462,0.101c0.515,0.067 0.982,0.202 1.402,0.406c0.42,0.204 0.772,0.497 1.058,0.877c0.285,0.384 0.429,0.873 0.429,1.473c-0,0.684 -0.169,1.196 -0.505,1.536c-0.34,0.342 -0.801,0.595 -1.386,0.761c-0.581,0.165 -1.252,0.281 -2.013,0.35c-0.758,0.07 -1.558,0.189 -2.398,0.352c-0.978,0.112 -1.949,0.269 -2.908,0.474c-0.963,0.205 -1.834,0.537 -2.602,1.002c-0.774,0.463 -1.398,1.103 -1.872,1.918c-0.474,0.817 -0.707,1.874 -0.705,3.178c0.002,1.032 0.199,1.934 0.595,2.706c0.397,0.772 0.929,1.412 1.594,1.911c0.665,0.503 1.435,0.883 2.305,1.137c0.871,0.256 1.782,0.383 2.733,0.383c1.25,-0.002 2.547,-0.208 3.891,-0.615c1.347,-0.411 2.479,-1.062 3.402,-1.959c0.127,0.629 0.207,1.511 0.404,1.981l4.562,-0.004Z" style="fill:#828282;fill-rule:nonzero;"/><path d="M22.419,33.713l-0,4.307l2.023,0l-0,0.977l-2.937,-0l0,-5.284l0.914,-0Z" style="fill:#828282;fill-rule:nonzero;"/><rect x="27.277" y="33.713" width="0.913" height="5.284" style="fill:#828282;fill-rule:nonzero;"/><path d="M32.226,33.713l1.731,3.543l0.013,0l0,-3.543l0.853,-0l0,5.284l-0.911,-0l-1.729,-3.537l-0.011,-0l0,3.537l-0.855,-0l-0,-5.284l0.909,-0Z" style="fill:#828282;fill-rule:nonzero;"/><rect x="37.952" y="33.713" width="0.912" height="5.284" style="fill:#828282;fill-rule:nonzero;"/><path d="M42.9,33.713l1.731,3.543l0.013,0l0,-3.543l0.853,-0l0,5.284l-0.911,-0l-1.728,-3.537l-0.011,-0l0,3.537l-0.856,-0l0,-5.284l0.909,-0Z" style="fill:#828282;fill-rule:nonzero;"/><path d="M51.087,38.958c-0.2,0.104 -0.399,0.159 -0.601,0.159c-0.317,-0 -0.602,-0.07 -0.857,-0.21c-0.255,-0.14 -0.469,-0.334 -0.642,-0.582c-0.175,-0.248 -0.308,-0.535 -0.401,-0.87c-0.093,-0.333 -0.141,-0.692 -0.141,-1.077c0,-0.396 0.048,-0.762 0.141,-1.098c0.093,-0.34 0.226,-0.633 0.401,-0.887c0.173,-0.251 0.387,-0.447 0.642,-0.593c0.255,-0.142 0.54,-0.214 0.857,-0.214c0.214,-0 0.42,0.042 0.62,0.123c0.199,0.083 0.378,0.2 0.541,0.359c0.16,0.158 0.293,0.352 0.397,0.583c0.106,0.233 0.17,0.499 0.194,0.802l-0.874,-0c-0.053,-0.296 -0.159,-0.519 -0.313,-0.666c-0.156,-0.148 -0.343,-0.223 -0.565,-0.223c-0.205,0 -0.378,0.049 -0.522,0.153c-0.145,0.098 -0.262,0.236 -0.349,0.407c-0.09,0.168 -0.155,0.363 -0.194,0.58c-0.042,0.216 -0.061,0.442 -0.061,0.674c-0,0.223 0.019,0.437 0.061,0.648c0.039,0.207 0.104,0.4 0.194,0.568c0.087,0.167 0.204,0.3 0.349,0.401c0.144,0.102 0.317,0.153 0.522,0.153c0.303,0 0.538,-0.1 0.701,-0.296c0.164,-0.192 0.262,-0.474 0.287,-0.844l-0.918,-0l0,-0.867l1.745,0l-0,2.856l-0.582,0l-0.092,-0.597c-0.164,0.264 -0.344,0.451 -0.54,0.558" style="fill:#828282;fill-rule:nonzero;"/><path d="M56.062,37.695c0.05,0.123 0.117,0.223 0.201,0.299c0.082,0.077 0.182,0.133 0.293,0.171c0.114,0.038 0.23,0.055 0.349,0.055c0.082,-0 0.169,-0.009 0.261,-0.024c0.094,-0.018 0.18,-0.053 0.263,-0.101c0.081,-0.051 0.148,-0.119 0.204,-0.204c0.052,-0.088 0.08,-0.196 0.08,-0.328c0,-0.144 -0.037,-0.26 -0.108,-0.35c-0.072,-0.088 -0.165,-0.162 -0.282,-0.222c-0.115,-0.061 -0.249,-0.109 -0.395,-0.154c-0.147,-0.044 -0.296,-0.096 -0.447,-0.148c-0.156,-0.051 -0.306,-0.11 -0.453,-0.183c-0.148,-0.069 -0.28,-0.163 -0.395,-0.275c-0.116,-0.117 -0.212,-0.256 -0.284,-0.426c-0.071,-0.173 -0.106,-0.378 -0.106,-0.621c0,-0.271 0.045,-0.506 0.135,-0.706c0.092,-0.199 0.21,-0.369 0.358,-0.499c0.149,-0.137 0.313,-0.232 0.5,-0.295c0.187,-0.067 0.372,-0.099 0.558,-0.099c0.217,0 0.424,0.032 0.627,0.095c0.198,0.062 0.376,0.162 0.531,0.299c0.154,0.137 0.276,0.315 0.367,0.53c0.092,0.211 0.138,0.474 0.138,0.779l-0.884,-0c-0.008,-0.157 -0.035,-0.288 -0.078,-0.393c-0.044,-0.103 -0.103,-0.183 -0.177,-0.245c-0.073,-0.059 -0.159,-0.098 -0.253,-0.124c-0.096,-0.024 -0.198,-0.035 -0.31,-0.035c-0.074,-0 -0.15,0.008 -0.224,0.028c-0.071,0.02 -0.139,0.055 -0.198,0.102c-0.061,0.051 -0.111,0.113 -0.15,0.185c-0.039,0.077 -0.056,0.168 -0.056,0.283c-0,0.105 0.016,0.188 0.046,0.25c0.03,0.067 0.092,0.125 0.182,0.179c0.091,0.053 0.216,0.109 0.378,0.164c0.162,0.054 0.372,0.123 0.632,0.207c0.077,0.017 0.185,0.055 0.322,0.106c0.135,0.054 0.273,0.134 0.409,0.248c0.136,0.115 0.254,0.266 0.352,0.455c0.1,0.191 0.15,0.434 0.15,0.73c-0,0.242 -0.037,0.465 -0.112,0.673c-0.075,0.208 -0.183,0.387 -0.328,0.538c-0.144,0.149 -0.326,0.268 -0.542,0.351c-0.213,0.083 -0.463,0.126 -0.746,0.126c-0.228,-0 -0.451,-0.036 -0.665,-0.107c-0.216,-0.072 -0.407,-0.186 -0.57,-0.337c-0.165,-0.152 -0.296,-0.348 -0.392,-0.583c-0.097,-0.239 -0.145,-0.522 -0.14,-0.847l0.884,-0c-0,0.178 0.024,0.329 0.075,0.453" style="fill:#828282;fill-rule:nonzero;"/><path d="M66.318,33.713l-0,4.307l2.022,0l0,0.977l-2.936,-0l0,-5.284l0.914,-0Z" style="fill:#828282;fill-rule:nonzero;"/><rect x="71.176" y="33.713" width="0.912" height="5.284" style="fill:#828282;fill-rule:nonzero;"/><path d="M76.503,33.713l0.969,3.634l0.012,0l0.919,-3.634l1.284,-0l0,5.284l-0.853,-0l-0,-3.745l-0.011,0l-1.018,3.745l-0.704,-0l-1.017,-3.709l-0.012,0l0,3.709l-0.854,-0l0,-5.284l1.285,-0Z" style="fill:#828282;fill-rule:nonzero;"/><rect x="82.814" y="33.713" width="0.914" height="5.284" style="fill:#828282;fill-rule:nonzero;"/><path d="M86.532,34.691l0,-0.978l3.399,0l-0,0.978l-1.243,0l-0,4.306l-0.913,0l-0,-4.306l-1.243,0Z" style="fill:#828282;fill-rule:nonzero;"/><path d="M95.835,33.713l0,0.978l-2.191,-0l0,1.131l2.011,0l0,0.903l-2.011,0l0,1.295l2.238,0l0,0.977l-3.149,-0l-0,-5.284l3.102,-0Z" style="fill:#828282;fill-rule:nonzero;"/><path d="M100.554,38.02c0.132,0 0.259,-0.025 0.384,-0.08c0.122,-0.055 0.235,-0.144 0.33,-0.271c0.097,-0.125 0.175,-0.29 0.233,-0.492c0.058,-0.202 0.086,-0.449 0.086,-0.74c0,-0.267 -0.02,-0.508 -0.062,-0.722c-0.038,-0.215 -0.106,-0.398 -0.199,-0.552c-0.093,-0.152 -0.215,-0.272 -0.369,-0.352c-0.153,-0.081 -0.341,-0.12 -0.567,-0.12l-0.65,0l-0,3.329l0.814,0Zm0.065,-4.307c0.266,0 0.517,0.055 0.746,0.163c0.229,0.108 0.43,0.272 0.599,0.489c0.169,0.217 0.3,0.488 0.394,0.813c0.095,0.327 0.143,0.71 0.143,1.148c-0,0.387 -0.039,0.742 -0.117,1.067c-0.077,0.326 -0.194,0.605 -0.352,0.842c-0.155,0.237 -0.354,0.424 -0.587,0.561c-0.234,0.135 -0.51,0.201 -0.826,0.201l-1.791,0l-0,-5.284l1.791,0Z" style="fill:#828282;fill-rule:nonzero;"/></g></g></svg>