<?xml version="1.0" encoding="UTF-8" standalone="no"?><!DOCTYPE svg PUBLIC "-//W3C//DTD SVG 1.1//EN" "http://www.w3.org/Graphics/SVG/1.1/DTD/svg11.dtd"><svg width="100%" height="100%" viewBox="0 0 103 40" version="1.1" xmlns="http://www.w3.org/2000/svg" xmlns:xlink="http://www.w3.org/1999/xlink" xml:space="preserve" xmlns:serif="http://www.serif.com/" style="fill-rule:evenodd;clip-rule:evenodd;stroke-linejoin:round;stroke-miterlimit:2;"><g><g><path d="M9.503,9.199c-1.492,0.003 -2.828,0.291 -4.007,0.862c-1.179,0.573 -2.174,1.342 -2.987,2.307c-0.812,0.966 -1.433,2.088 -1.865,3.365c-0.432,1.278 -0.646,2.623 -0.644,4.035c0.003,1.521 0.182,2.947 0.537,4.278c0.355,1.331 0.919,2.505 1.694,3.521c0.775,1.018 1.753,1.817 2.933,2.4c1.182,0.582 2.613,0.871 4.295,0.869c1.302,-0.002 2.515,-0.331 3.64,-0.985c1.125,-0.653 2.011,-1.564 2.66,-2.734l0.077,0l0.005,3.218c0.003,1.739 -0.427,3.07 -1.291,3.995c-0.866,0.925 -2.231,1.39 -4.098,1.393c-0.596,0 -1.164,-0.032 -1.706,-0.098c-0.541,-0.067 -1.035,-0.215 -1.482,-0.443c-0.447,-0.23 -0.834,-0.547 -1.159,-0.95c-0.325,-0.407 -0.556,-0.933 -0.693,-1.58l-4.658,0.007c0.11,1.22 0.465,2.249 1.065,3.088c0.597,0.84 1.339,1.516 2.222,2.029c0.884,0.514 1.861,0.878 2.933,1.093c1.073,0.214 2.139,0.321 3.198,0.319c3.339,-0.006 5.896,-0.791 7.672,-2.356c1.775,-1.565 2.66,-3.936 2.655,-7.113l-0.035,-19.963l-4.658,0.009l0.005,2.876l-0.077,0.001c-0.599,-1.191 -1.454,-2.062 -2.568,-2.617c-1.108,-0.551 -2.324,-0.827 -3.647,-0.827l-0.016,0m-1.808,17.37c-0.691,-0.406 -1.26,-0.936 -1.708,-1.588c-0.448,-0.652 -0.78,-1.392 -0.998,-2.221c-0.218,-0.83 -0.328,-1.68 -0.329,-2.551c-0.002,-0.869 0.091,-1.747 0.279,-2.63c0.188,-0.886 0.498,-1.675 0.93,-2.369c0.432,-0.695 0.999,-1.26 1.702,-1.697c0.703,-0.436 1.569,-0.656 2.597,-0.657c1.001,-0.002 1.861,0.187 2.579,0.567c0.717,0.38 1.301,0.895 1.749,1.547c0.447,0.653 0.78,1.399 0.998,2.243c0.218,0.843 0.327,1.713 0.329,2.61c0.002,0.898 -0.098,1.788 -0.299,2.673c-0.202,0.885 -0.525,1.674 -0.971,2.369c-0.446,0.695 -1.027,1.252 -1.743,1.676c-0.716,0.423 -1.589,0.635 -2.617,0.636l-0.014,0c-0.968,0 -1.797,-0.202 -2.484,-0.608" style="fill:#818181;fill-rule:nonzero;"/><path d="M21.378,0.056l0.053,30.491l4.659,-0.008l-0.053,-30.492l-4.659,0.009Z" style="fill:#818181;fill-rule:nonzero;"/><path d="M54.857,0.034l0.053,30.491l4.385,-0.008l-0.005,-2.892l0.081,0c0.353,0.706 0.796,1.275 1.326,1.709c0.529,0.433 1.12,0.786 1.772,1.058c0.651,0.271 1.336,0.455 2.056,0.549c0.719,0.095 1.432,0.142 2.138,0.141c1.546,-0.004 2.889,-0.31 4.027,-0.924c1.139,-0.614 2.081,-1.429 2.825,-2.45c0.744,-1.02 1.298,-2.197 1.662,-3.529c0.364,-1.332 0.546,-2.704 0.543,-4.118c-0.003,-1.549 -0.209,-3.002 -0.619,-4.361c-0.409,-1.357 -1.023,-2.545 -1.839,-3.562c-0.817,-1.018 -1.843,-1.817 -3.079,-2.399c-1.238,-0.582 -2.683,-0.873 -4.341,-0.869c-0.597,0 -1.2,0.075 -1.812,0.227c-0.61,0.15 -1.195,0.367 -1.75,0.653c-0.557,0.286 -1.065,0.632 -1.525,1.038c-0.462,0.407 -0.854,0.868 -1.18,1.384l-0.077,0.001l-0.021,-12.148l-4.62,0.009Zm7.906,26.826c-0.719,-0.38 -1.336,-0.895 -1.852,-1.548c-0.516,-0.652 -0.903,-1.434 -1.162,-2.345c-0.259,-0.911 -0.389,-1.897 -0.391,-2.959c-0.004,-2.257 0.487,-4.069 1.474,-5.432c0.987,-1.362 2.455,-2.045 4.406,-2.048c0.948,-0.001 1.788,0.209 2.521,0.628c0.731,0.421 1.341,0.979 1.83,1.671c0.489,0.694 0.857,1.489 1.102,2.386c0.245,0.897 0.37,1.822 0.371,2.775c0.001,0.925 -0.099,1.831 -0.3,2.715c-0.202,0.885 -0.539,1.674 -1.013,2.37c-0.473,0.695 -1.074,1.26 -1.806,1.697c-0.729,0.436 -1.623,0.654 -2.68,0.657l-0.008,0c-0.945,0 -1.776,-0.188 -2.492,-0.567" style="fill:#818181;fill-rule:nonzero;"/><path d="M97.628,1.576l0.05,29.067l4.658,-0.008l-0.05,-29.066l-4.658,0.007Z" style="fill:#818181;fill-rule:nonzero;"/><path d="M43.576,0.018l0.007,4.19c1.708,0.429 3.287,1.188 4.663,2.205l-0.012,-6.403l-4.658,0.008Z" style="fill:#818181;fill-rule:nonzero;"/><path d="M43.628,30.124l0.001,0.384l4.658,-0.008l-0.005,-2.596c-1.372,1.02 -2.947,1.784 -4.654,2.22" style="fill:#818181;fill-rule:nonzero;"/><path d="M38.055,0.027l0.007,3.977c0.744,-0.13 1.509,-0.198 2.291,-0.199c0.807,-0.002 1.599,0.068 2.368,0.204l-0.007,-3.989l-4.659,0.007Z" style="fill:#818181;fill-rule:nonzero;"/><path d="M41.218,30.513l1.549,-0.003l-0.001,-0.185c-0.507,0.092 -1.024,0.155 -1.548,0.188" style="fill:#818181;fill-rule:nonzero;"/><path d="M38.107,30.517l1.472,-0.002c-0.498,-0.029 -0.99,-0.086 -1.472,-0.169l0,0.171Z" style="fill:#818181;fill-rule:nonzero;"/><path d="M32.585,30.528l4.659,-0.008l-0.001,-0.366c-1.706,-0.418 -3.284,-1.163 -4.662,-2.166l0.004,2.54Z" style="fill:#818181;fill-rule:nonzero;"/><path d="M32.534,0.037l0.011,6.344c1.374,-1.007 2.949,-1.758 4.654,-2.182l-0.007,-4.17l-4.658,0.008Z" style="fill:#818181;fill-rule:nonzero;"/><path d="M27.011,0.045l0.053,30.492l4.659,-0.009l-0.006,-3.279c-2.804,-2.445 -4.578,-6.042 -4.585,-10.056c-0.007,-4.013 1.755,-7.615 4.55,-10.069l-0.012,-7.087l-4.659,0.008Z" style="fill:#818181;fill-rule:nonzero;"/><path d="M49.098,0.008l0.012,7.154c2.76,2.444 4.501,6.011 4.508,9.987c0.006,3.976 -1.723,7.549 -4.473,10.003l0.006,3.347l4.658,-0.008l-0.053,-30.491l-4.658,0.008Z" style="fill:#818181;fill-rule:nonzero;"/><path d="M86.956,9.026c-1.168,0.003 -2.31,0.113 -3.422,0.332c-1.115,0.22 -2.114,0.602 -2.995,1.145c-0.884,0.546 -1.609,1.266 -2.178,2.163c-0.57,0.898 -0.893,2.025 -0.971,3.384l4.658,-0.009c0.106,-1.143 0.578,-1.989 1.416,-2.534c0.837,-0.547 1.906,-0.821 3.205,-0.824c0.46,0 0.947,0.033 1.461,0.101c0.514,0.068 0.98,0.203 1.402,0.407c0.419,0.203 0.771,0.496 1.056,0.878c0.285,0.381 0.428,0.871 0.429,1.472c0.001,0.682 -0.167,1.195 -0.505,1.536c-0.34,0.341 -0.8,0.594 -1.383,0.759c-0.582,0.165 -1.253,0.283 -2.012,0.352c-0.759,0.069 -1.559,0.186 -2.399,0.352c-0.976,0.11 -1.946,0.267 -2.908,0.473c-0.962,0.205 -1.83,0.539 -2.601,1.001c-0.772,0.465 -1.395,1.103 -1.868,1.919c-0.473,0.815 -0.708,1.873 -0.706,3.176c0.002,1.032 0.2,1.934 0.595,2.707c0.395,0.773 0.926,1.41 1.593,1.911c0.666,0.502 1.434,0.88 2.305,1.136c0.869,0.256 1.779,0.384 2.731,0.383c1.25,-0.003 2.546,-0.209 3.891,-0.617c1.344,-0.409 2.476,-1.061 3.399,-1.957c0.127,0.63 0.205,1.511 0.403,1.983l4.56,-0.008c-0.111,-0.245 -0.199,-0.533 -0.239,-0.634c-0.438,-1.103 -0.448,-3.464 -0.449,-4.035l-0.019,-10.848c-0.002,-1.116 -0.248,-2.06 -0.738,-2.834c-0.492,-0.773 -1.138,-1.405 -1.94,-1.893c-0.804,-0.488 -1.707,-0.839 -2.713,-1.055c-0.996,-0.214 -2.006,-0.322 -3.027,-0.322l-0.031,0m-2.753,18.439c-0.501,-0.08 -0.962,-0.222 -1.382,-0.425c-0.421,-0.204 -0.78,-0.482 -1.079,-0.834c-0.299,-0.354 -0.449,-0.788 -0.449,-1.305c-0.001,-0.599 0.099,-1.107 0.302,-1.53c0.203,-0.421 0.48,-0.761 0.831,-1.02c0.352,-0.259 0.758,-0.464 1.219,-0.615c0.46,-0.149 0.934,-0.266 1.422,-0.349c1.03,-0.191 2.059,-0.335 3.088,-0.432c1.03,-0.096 1.896,-0.377 2.6,-0.841l0.006,3.466c0.001,0.734 -0.174,1.352 -0.525,1.856c-0.352,0.504 -0.792,0.92 -1.319,1.246c-0.528,0.327 -1.09,0.559 -1.685,0.696c-0.597,0.138 -1.152,0.207 -1.667,0.207l-0.012,0c-0.403,0 -0.854,-0.039 -1.35,-0.12" style="fill:#818181;fill-rule:nonzero;"/><path d="M21.543,32.334l0,5.272l1.16,0l0,-2.177l2.208,0l0,-0.902l-2.208,0l0,-1.218l2.547,0l0,-0.975l-3.707,0Z" style="fill:#818181;fill-rule:nonzero;"/><rect x="28.875" y="32.333" width="1.159" height="5.272" style="fill:#818181;"/><path d="M34.007,32.334l0,5.272l1.16,0l0,-2.058l1.159,0c0.29,0 0.499,0.063 0.628,0.19c0.128,0.129 0.211,0.331 0.251,0.606c0.029,0.212 0.051,0.433 0.066,0.665c0.015,0.231 0.054,0.43 0.118,0.597l1.16,0c-0.054,-0.073 -0.095,-0.163 -0.122,-0.269c-0.027,-0.105 -0.047,-0.217 -0.059,-0.335c-0.013,-0.119 -0.021,-0.234 -0.026,-0.348c-0.005,-0.113 -0.01,-0.211 -0.015,-0.295c-0.01,-0.133 -0.028,-0.266 -0.056,-0.399c-0.026,-0.133 -0.069,-0.254 -0.128,-0.366c-0.06,-0.11 -0.136,-0.206 -0.229,-0.287c-0.094,-0.082 -0.212,-0.141 -0.355,-0.181l0,-0.015c0.296,-0.118 0.508,-0.29 0.639,-0.517c0.13,-0.226 0.196,-0.494 0.196,-0.804c0,-0.202 -0.036,-0.391 -0.107,-0.566c-0.072,-0.175 -0.175,-0.328 -0.31,-0.461c-0.136,-0.133 -0.298,-0.238 -0.488,-0.314c-0.19,-0.077 -0.402,-0.115 -0.639,-0.115l-2.843,0Zm1.16,0.902l1.27,0c0.266,0 0.465,0.057 0.598,0.173c0.133,0.115 0.199,0.301 0.199,0.558c0,0.266 -0.066,0.457 -0.199,0.576c-0.133,0.117 -0.332,0.177 -0.598,0.177l-1.27,0l0,-1.484Z" style="fill:#818181;fill-rule:nonzero;"/><path d="M42.292,32.334l0,5.272l4.002,0l0,-0.975l-2.843,0l0,-1.291l2.555,0l0,-0.901l-2.555,0l0,-1.13l2.784,0l0,-0.975l-3.943,0Z" style="fill:#818181;fill-rule:nonzero;"/><path d="M55.038,32.334l-0,5.272l3.728,0l-0,-0.975l-2.569,0l-0,-4.297l-1.159,0Z" style="fill:#818181;fill-rule:nonzero;"/><rect x="62.369" y="32.333" width="1.159" height="5.272" style="fill:#818181;"/><path d="M71.549,32.334l-1.167,3.626l-0.015,0l-1.233,-3.626l-1.632,0l0,5.272l1.085,0l0,-3.699l0.015,0l1.292,3.699l0.894,0l1.293,-3.735l0.014,0l0,3.735l1.086,0l0,-5.272l-1.632,0Z" style="fill:#818181;fill-rule:nonzero;"/><rect x="77.152" y="32.333" width="1.16" height="5.272" style="fill:#818181;"/><path d="M81.871,32.334l0,0.975l1.581,0l0,4.297l1.159,0l0,-4.297l1.58,0l0,-0.975l-4.32,0Z" style="fill:#818181;fill-rule:nonzero;"/><path d="M89.751,32.334l0,5.272l4.002,0l0,-0.975l-2.843,0l0,-1.291l2.555,0l0,-0.901l-2.555,0l0,-1.13l2.784,0l0,-0.975l-3.943,0Z" style="fill:#818181;fill-rule:nonzero;"/><path d="M97.491,32.334l0,5.272l2.274,0c0.403,0 0.754,-0.067 1.053,-0.202c0.298,-0.136 0.546,-0.322 0.745,-0.558c0.199,-0.236 0.349,-0.517 0.447,-0.841c0.099,-0.326 0.148,-0.68 0.148,-1.064c0,-0.438 -0.061,-0.82 -0.181,-1.144c-0.121,-0.325 -0.288,-0.596 -0.502,-0.813c-0.214,-0.216 -0.469,-0.379 -0.761,-0.487c-0.293,-0.108 -0.609,-0.163 -0.949,-0.163l-2.274,0Zm1.159,0.975l0.828,0c0.285,0 0.525,0.041 0.719,0.123c0.195,0.081 0.351,0.197 0.469,0.351c0.119,0.151 0.204,0.335 0.255,0.55c0.052,0.213 0.078,0.453 0.078,0.72c-0,0.29 -0.038,0.536 -0.111,0.738c-0.074,0.201 -0.172,0.365 -0.296,0.49c-0.123,0.126 -0.263,0.216 -0.421,0.271c-0.157,0.053 -0.319,0.079 -0.487,0.079l-1.034,0l-0,-3.322Z" style="fill:#818181;fill-rule:nonzero;"/><g><g><path d="M34.649,26.457c0.924,0.6 1.6,0.865 1.6,0.865c-0.027,-0.027 -0.053,-0.054 -0.079,-0.082c-0.582,-0.245 -1.091,-0.519 -1.521,-0.783" style="fill:#818181;fill-rule:nonzero;"/></g><g><path d="M35.474,7.414c-5.271,2.736 -5.875,8.262 -5.875,8.262c-0.528,4.699 1.474,7.726 3.416,9.513c-2.419,-3.715 1.369,-7.095 1.369,-7.095l-0.022,0.238c-0.09,1.362 0.115,2.089 0.361,2.477c0.62,-3.883 3.828,-5.49 3.828,-5.49l-0,-1.793l3.034,0l-6.111,-6.112Z" style="fill:#818181;fill-rule:nonzero;"/></g><g><rect x="33.332" y="14.366" width="1.459" height="1.358" style="fill:#818181;"/><rect x="33.332" y="16.016" width="1.459" height="1.358" style="fill:#818181;"/><rect x="31.626" y="14.366" width="1.46" height="1.358" style="fill:#818181;"/><rect x="31.626" y="16.016" width="1.46" height="1.358" style="fill:#818181;"/></g></g><path d="M42.232,14.467c-1.276,4.309 -4.111,5.276 -4.111,5.276c-0.162,0.032 -1.009,0.064 -0.501,-1.686c0.507,-1.749 2.366,-3.123 2.366,-3.123c-3.585,2.294 -4.257,4.772 -4.257,4.772c-0.308,0.784 -0.452,1.541 -0.49,2.244c-0.161,-0.039 -1.626,-0.46 -1.088,-3.218c0,0 -4.458,5.803 2.099,8.607c0,0 -0.091,-0.543 0.052,-1.19c0.169,-0.605 0.426,-1.008 0.665,-1.27c0.165,-0.169 0.365,-0.324 0.609,-0.453c-0.787,2.964 0.419,2.658 0.419,2.658c0.977,-0.403 0.576,-2.796 0.576,-2.796c-0.432,-3.137 1.211,-4.833 1.211,-4.833c1.452,-1.717 3.406,-2.053 3.406,-2.053l-0.783,0.534c-3.813,2.845 -2.061,5.993 -2.061,5.993c1.216,2.821 1.819,2.19 1.819,2.19c1.011,-0.938 -0.735,-3.337 -0.735,-3.337c2.266,1.918 1.927,5.047 1.927,5.047l0.732,-0.224c-0.173,-0.17 1.041,-2.89 1.041,-2.89c0.653,-1.037 0.9,-2.478 0.9,-2.478c0.329,-2.334 -1.199,-3.723 -1.199,-3.723c0.145,0.461 -0.052,2.116 -0.052,2.116c-0.296,1.993 -1.24,1.749 -1.24,1.749c-0.309,-0.034 -0.504,-0.439 -0.504,-0.439c-0.536,-0.828 0.054,-2.74 0.054,-2.74c0.474,-1.214 0.769,-2.445 0.769,-2.445c0.803,-2.996 -0.169,-5.219 -0.169,-5.219c-1.2,-3.049 -4.477,-4.834 -4.477,-4.834c4.297,4.466 3.022,7.765 3.022,7.765" style="fill:#818181;fill-rule:nonzero;"/></g></g></svg>