<?xml version="1.0" encoding="UTF-8" standalone="no"?>
<!DOCTYPE svg PUBLIC "-//W3C//DTD SVG 1.1//EN" "http://www.w3.org/Graphics/SVG/1.1/DTD/svg11.dtd">
<svg width="100%" height="100%" viewBox="0 0 122 60" version="1.1" xmlns="http://www.w3.org/2000/svg" xmlns:xlink="http://www.w3.org/1999/xlink" xml:space="preserve" xmlns:serif="http://www.serif.com/" style="fill-rule:evenodd;clip-rule:evenodd;stroke-linejoin:round;stroke-miterlimit:2;">
    <g id="fire_logo.svg" transform="matrix(0.239864,0,0,0.239864,60.692,29.6864)">
        <g transform="matrix(1,0,0,1,-214,-82)">
            <clipPath id="_clip1">
                <rect x="0" y="0" width="428" height="164"/>
            </clipPath>
            <g clip-path="url(#_clip1)">
                <g transform="matrix(1,0,0,1,-197.182,-213.529)">
                    <g transform="matrix(4.97703,0,0,4.97703,-760.549,-1208.9)">
                        <path d="M222.859,308.733C222.86,308.742 222.861,308.748 222.861,308.748C222.351,308.53 221.92,308.29 221.558,308.034C221.545,308.025 221.531,308.017 221.517,308.008C221.526,308.013 221.535,308.019 221.544,308.024C218.026,305.522 221.099,301.523 221.099,301.523C220.647,303.838 221.877,304.191 222.012,304.224C222.044,303.634 222.165,302.999 222.423,302.341C222.423,302.341 222.987,300.261 225.997,298.334C225.997,298.334 224.437,299.488 224.011,300.956C223.585,302.425 224.295,302.398 224.432,302.372C224.432,302.372 226.811,301.56 227.883,297.942C227.883,297.942 228.952,295.174 225.346,291.424C225.346,291.424 228.097,292.923 229.103,295.483C229.103,295.483 229.92,297.348 229.246,299.863C229.246,299.863 228.998,300.896 228.6,301.916C228.6,301.916 228.105,303.521 228.555,304.216C228.555,304.216 228.718,304.556 228.978,304.584C228.978,304.584 229.77,304.789 230.019,303.116C230.019,303.116 230.185,301.727 230.063,301.34C230.063,301.34 231.345,302.506 231.069,304.465C231.069,304.465 230.861,305.675 230.313,306.545C230.313,306.545 229.295,308.829 229.44,308.972L228.825,309.159C228.825,309.159 229.11,306.532 227.207,304.922C227.207,304.922 228.673,306.936 227.825,307.724C227.825,307.724 227.318,308.254 226.298,305.885C226.298,305.885 224.827,303.243 228.028,300.854L228.685,300.407C228.685,300.407 227.045,300.689 225.826,302.13C225.826,302.13 224.446,303.554 224.809,306.187C224.809,306.187 225.146,308.195 224.325,308.534C224.325,308.534 223.313,308.791 223.974,306.302C223.77,306.411 223.601,306.541 223.463,306.683C223.262,306.903 223.047,307.241 222.904,307.749C222.797,308.234 222.847,308.649 222.859,308.733ZM200.407,293.52L200.421,293.52C201.532,293.52 202.552,293.751 203.482,294.213C204.417,294.679 205.135,295.411 205.638,296.41L205.702,296.409L205.698,293.995L209.609,293.988L209.638,310.745C209.642,313.413 208.899,315.403 207.409,316.717C205.919,318.03 203.772,318.689 200.969,318.694C200.08,318.696 199.185,318.606 198.285,318.427C197.384,318.246 196.564,317.94 195.822,317.509C195.081,317.078 194.458,316.511 193.957,315.806C193.453,315.102 193.156,314.238 193.063,313.214L196.973,313.207C197.088,313.751 197.282,314.193 197.555,314.534C197.828,314.872 198.152,315.138 198.528,315.331C198.903,315.523 199.318,315.647 199.772,315.703C200.227,315.759 200.703,315.786 201.204,315.786C202.771,315.783 203.917,315.393 204.644,314.617C205.37,313.84 205.73,312.723 205.728,311.263L205.723,308.561L205.659,308.561C205.114,309.544 204.37,310.308 203.426,310.856C202.482,311.406 201.463,311.682 200.371,311.683C198.959,311.685 197.757,311.442 196.765,310.953C195.774,310.465 194.953,309.793 194.303,308.939C193.652,308.086 193.179,307.1 192.881,305.984C192.583,304.866 192.432,303.669 192.43,302.393C192.428,301.207 192.608,300.078 192.971,299.005C193.333,297.933 193.855,296.991 194.536,296.18C195.219,295.37 196.054,294.725 197.044,294.244C198.034,293.764 199.154,293.522 200.407,293.52ZM198.89,308.1C199.466,308.441 200.162,308.61 200.975,308.61L200.986,308.61C201.849,308.61 202.582,308.432 203.183,308.077C203.784,307.721 204.272,307.253 204.647,306.67C205.021,306.087 205.292,305.424 205.461,304.681C205.63,303.939 205.714,303.191 205.713,302.438C205.711,301.684 205.62,300.954 205.436,300.247C205.254,299.538 204.974,298.912 204.599,298.364C204.223,297.817 203.732,297.384 203.13,297.065C202.528,296.746 201.806,296.587 200.965,296.589C200.102,296.59 199.375,296.775 198.786,297.14C198.196,297.508 197.72,297.982 197.357,298.565C196.994,299.147 196.734,299.811 196.576,300.554C196.418,301.295 196.34,302.032 196.342,302.762C196.343,303.492 196.435,304.206 196.618,304.903C196.801,305.598 197.08,306.22 197.456,306.768C197.832,307.315 198.309,307.759 198.89,308.1ZM210.377,285.845L214.287,285.838L214.331,311.434L210.421,311.441L210.377,285.845ZM238.481,285.827L242.359,285.82L242.376,296.017L242.441,296.016C242.714,295.583 243.044,295.196 243.431,294.854C243.818,294.513 244.244,294.223 244.712,293.983C245.178,293.743 245.669,293.561 246.181,293.435C246.694,293.307 247.201,293.244 247.701,293.244C249.094,293.241 250.307,293.485 251.346,293.974C252.383,294.462 253.245,295.134 253.931,295.988C254.616,296.842 255.131,297.839 255.474,298.978C255.819,300.119 255.992,301.338 255.994,302.639C255.996,303.825 255.844,304.978 255.538,306.095C255.233,307.214 254.768,308.201 254.143,309.058C253.518,309.915 252.727,310.6 251.772,311.115C250.816,311.63 249.689,311.887 248.391,311.891C247.798,311.891 247.2,311.852 246.597,311.772C245.992,311.693 245.417,311.538 244.87,311.311C244.323,311.083 243.827,310.787 243.382,310.423C242.938,310.059 242.566,309.581 242.269,308.988L242.202,308.988L242.206,311.416L238.525,311.423L238.481,285.827ZM245.117,308.346C245.718,308.665 246.416,308.822 247.209,308.822L247.216,308.822C248.103,308.82 248.853,308.636 249.466,308.27C250.08,307.904 250.585,307.43 250.981,306.846C251.379,306.262 251.662,305.599 251.832,304.856C252.001,304.114 252.085,303.354 252.084,302.578C252.082,301.778 251.978,301.001 251.772,300.248C251.566,299.495 251.258,298.827 250.847,298.245C250.437,297.664 249.925,297.196 249.311,296.842C248.696,296.49 247.99,296.314 247.194,296.315C245.557,296.317 244.324,296.891 243.496,298.034C242.667,299.178 242.255,300.699 242.259,302.594C242.261,303.485 242.37,304.313 242.587,305.078C242.805,305.843 243.13,306.499 243.563,307.047C243.995,307.595 244.514,308.028 245.117,308.346ZM274.383,287.122L278.294,287.116L278.336,311.515L274.425,311.522L274.383,287.122ZM229.011,285.813L232.921,285.806L232.93,291.181C231.776,290.327 230.451,289.691 229.017,289.33L229.011,285.813ZM229.054,311.086C230.487,310.72 231.809,310.079 232.961,309.222L232.966,311.402L229.055,311.409L229.054,311.086ZM224.376,285.82L228.286,285.814L228.293,289.164C227.647,289.049 226.982,288.991 226.305,288.992C225.649,288.993 225.006,289.05 224.381,289.159L224.376,285.82ZM227.031,311.413C227.471,311.385 227.905,311.332 228.33,311.254L228.331,311.41L227.031,311.413ZM224.42,311.416L224.42,311.273C224.824,311.342 225.237,311.39 225.656,311.414L224.42,311.416ZM219.785,311.425L219.781,309.293C220.938,310.135 222.263,310.76 223.695,311.111L223.695,311.418L219.785,311.425ZM219.741,285.829L223.651,285.822L223.657,289.323C222.226,289.679 220.903,290.31 219.75,291.155L219.741,285.829ZM215.105,285.837L219.016,285.83L219.027,291.779C216.68,293.839 215.201,296.863 215.206,300.232C215.213,303.601 216.702,306.62 219.055,308.673L219.061,311.426L215.149,311.433L215.105,285.837ZM233.646,285.805L237.557,285.798L237.601,311.394L233.69,311.4L233.686,308.591C235.994,306.531 237.446,303.531 237.44,300.193C237.435,296.855 235.973,293.862 233.656,291.81L233.646,285.805ZM265.426,293.375L265.452,293.375C266.309,293.375 267.157,293.465 267.993,293.645C268.837,293.826 269.595,294.121 270.27,294.53C270.943,294.94 271.486,295.471 271.898,296.12C272.31,296.769 272.516,297.562 272.518,298.498L272.534,307.605C272.535,308.084 272.543,310.067 272.911,310.992C272.945,311.077 273.019,311.319 273.112,311.525L269.284,311.531C269.117,311.135 269.052,310.395 268.945,309.867C268.171,310.619 267.22,311.166 266.092,311.51C264.963,311.852 263.875,312.025 262.826,312.027C262.027,312.028 261.263,311.921 260.533,311.706C259.802,311.491 259.157,311.174 258.598,310.752C258.039,310.332 257.593,309.797 257.262,309.148C256.929,308.499 256.763,307.742 256.761,306.875C256.76,305.782 256.957,304.894 257.354,304.209C257.751,303.524 258.274,302.989 258.922,302.599C259.57,302.21 260.298,301.931 261.106,301.758C261.914,301.585 262.727,301.453 263.547,301.361C264.252,301.222 264.924,301.124 265.561,301.065C266.198,301.008 266.761,300.909 267.25,300.771C267.739,300.632 268.125,300.419 268.41,300.133C268.694,299.847 268.835,299.416 268.835,298.844C268.834,298.339 268.714,297.928 268.474,297.608C268.235,297.288 267.94,297.042 267.588,296.871C267.234,296.7 266.843,296.586 266.411,296.529C265.979,296.473 265.571,296.444 265.184,296.445C264.094,296.447 263.197,296.677 262.494,297.136C261.791,297.594 261.394,298.304 261.305,299.264L257.395,299.271C257.461,298.131 257.733,297.184 258.211,296.43C258.689,295.677 259.297,295.073 260.038,294.615C260.779,294.159 261.617,293.838 262.553,293.653C263.487,293.47 264.445,293.377 265.426,293.375ZM263.115,308.853C263.531,308.921 263.909,308.954 264.248,308.954L264.258,308.954C264.69,308.954 265.157,308.896 265.657,308.781C266.157,308.665 266.629,308.471 267.071,308.196C267.514,307.922 267.883,307.573 268.179,307.15C268.474,306.728 268.621,306.208 268.62,305.592L268.615,302.683C268.024,303.072 267.296,303.308 266.432,303.389C265.568,303.469 264.705,303.59 263.84,303.751C263.43,303.82 263.032,303.919 262.647,304.044C262.259,304.171 261.919,304.343 261.623,304.561C261.328,304.778 261.095,305.063 260.926,305.417C260.755,305.772 260.671,306.199 260.672,306.701C260.672,307.135 260.798,307.5 261.049,307.796C261.3,308.092 261.601,308.325 261.955,308.497C262.307,308.667 262.694,308.786 263.115,308.853ZM210.514,312.941L213.626,312.941L213.626,313.759L211.488,313.759L211.488,314.782L213.341,314.782L213.341,315.539L211.488,315.539L211.488,317.367L210.514,317.367L210.514,312.941ZM216.67,312.941L217.643,312.941L217.643,317.367L216.67,317.367L216.67,312.941ZM220.978,312.941L223.364,312.941C223.563,312.941 223.741,312.973 223.9,313.037C224.059,313.102 224.196,313.189 224.31,313.301C224.423,313.413 224.51,313.541 224.57,313.688C224.63,313.835 224.66,313.993 224.66,314.163C224.66,314.424 224.605,314.649 224.496,314.838C224.386,315.028 224.208,315.173 223.959,315.272L223.959,315.285C224.079,315.318 224.178,315.368 224.257,315.437C224.336,315.504 224.399,315.585 224.449,315.677C224.499,315.771 224.535,315.874 224.557,315.985C224.58,316.096 224.596,316.208 224.604,316.32C224.608,316.39 224.612,316.473 224.616,316.567C224.62,316.663 224.628,316.76 224.638,316.859C224.648,316.959 224.665,317.052 224.688,317.141C224.71,317.23 224.745,317.305 224.79,317.367L223.817,317.367C223.763,317.226 223.73,317.059 223.718,316.865C223.705,316.671 223.687,316.485 223.662,316.307C223.629,316.076 223.558,315.907 223.451,315.798C223.343,315.692 223.168,315.638 222.924,315.638L221.951,315.638L221.951,317.367L220.978,317.367L220.978,312.941ZM221.951,313.698L221.951,314.943L223.017,314.943C223.24,314.943 223.407,314.894 223.519,314.795C223.631,314.696 223.687,314.535 223.687,314.312C223.687,314.096 223.631,313.94 223.519,313.843C223.407,313.746 223.24,313.698 223.017,313.698L221.951,313.698ZM227.932,312.941L231.243,312.941L231.243,313.759L228.906,313.759L228.906,314.708L231.051,314.708L231.051,315.464L228.906,315.464L228.906,316.548L231.292,316.548L231.292,317.367L227.932,317.367L227.932,312.941ZM238.632,312.941L239.605,312.941L239.605,316.548L241.762,316.548L241.762,317.367L238.632,317.367L238.632,312.941ZM244.787,312.941L245.76,312.941L245.76,317.367L244.787,317.367L244.787,312.941ZM252.492,312.941L253.862,312.941L253.862,317.367L252.951,317.367L252.951,314.231L252.939,314.231L251.853,317.367L251.103,317.367L250.019,314.261L250.006,314.261L250.006,317.367L249.095,317.367L249.095,312.941L250.465,312.941L251.5,315.985L251.512,315.985L252.492,312.941ZM257.197,312.941L258.17,312.941L258.17,317.367L257.197,317.367L257.197,312.941ZM261.157,312.941L264.784,312.941L264.784,313.759L263.457,313.759L263.457,317.367L262.484,317.367L262.484,313.759L261.157,313.759L261.157,312.941ZM267.772,312.941L271.082,312.941L271.082,313.759L268.745,313.759L268.745,314.708L270.889,314.708L270.889,315.464L268.745,315.464L268.745,316.548L271.132,316.548L271.132,317.367L267.772,317.367L267.772,312.941ZM274.268,312.941L276.177,312.941C276.462,312.941 276.728,312.987 276.973,313.078C277.219,313.169 277.432,313.305 277.612,313.486C277.792,313.669 277.932,313.896 278.034,314.169C278.135,314.441 278.186,314.761 278.186,315.13C278.186,315.452 278.144,315.749 278.061,316.023C277.979,316.294 277.853,316.53 277.686,316.728C277.519,316.927 277.31,317.083 277.061,317.197C276.81,317.311 276.515,317.367 276.177,317.367L274.268,317.367L274.268,312.941ZM275.241,313.759L275.241,316.548L276.109,316.548C276.25,316.548 276.386,316.526 276.518,316.481C276.65,316.435 276.768,316.36 276.871,316.254C276.975,316.149 277.057,316.011 277.119,315.843C277.181,315.673 277.212,315.467 277.212,315.223C277.212,315 277.19,314.798 277.147,314.618C277.104,314.438 277.033,314.284 276.933,314.157C276.834,314.028 276.703,313.931 276.54,313.862C276.376,313.794 276.175,313.759 275.936,313.759L275.241,313.759Z" style="fill:url(#_Linear2);"/>
                    </g>
                    <g transform="matrix(4.97703,0,0,4.97703,-760.549,-1208.9)">
                        <path d="M222.209,292.022C217.784,294.32 217.278,298.958 217.278,298.958C216.834,302.903 218.515,305.444 220.145,306.943C218.115,303.825 221.294,300.987 221.294,300.987L221.276,301.187C221.2,302.331 221.373,302.941 221.579,303.267C222.1,300.007 224.792,298.658 224.792,298.658L224.792,297.153L227.339,297.153L222.209,292.022ZM220.411,299.243L221.636,299.243L221.636,300.383L220.411,300.383L220.411,299.243ZM218.979,299.243L220.204,299.243L220.204,300.383L218.979,300.383L218.979,299.243ZM220.411,297.858L221.636,297.858L221.636,298.998L220.411,298.998L220.411,297.858ZM218.979,297.858L220.205,297.858L220.205,298.998L218.979,298.998L218.979,297.858Z" style="fill:rgb(90,93,94);fill-rule:nonzero;"/>
                    </g>
                </g>
            </g>
        </g>
        <g>
        </g>
    </g>
    <defs>
        <linearGradient id="_Linear2" x1="0" y1="0" x2="1" y2="0" gradientUnits="userSpaceOnUse" gradientTransform="matrix(-5.9767,-407.925,407.925,-5.9767,151.001,509.547)"><stop offset="0" style="stop-color:rgb(237,237,11);stop-opacity:1"/><stop offset="0.1" style="stop-color:rgb(237,237,11);stop-opacity:1"/><stop offset="0.6" style="stop-color:rgb(238,67,32);stop-opacity:1"/><stop offset="1" style="stop-color:rgb(239,63,33);stop-opacity:1"/></linearGradient>
    </defs>
</svg>
