<?xml version="1.0" encoding="UTF-8" standalone="no"?><!DOCTYPE svg PUBLIC "-//W3C//DTD SVG 1.1//EN" "http://www.w3.org/Graphics/SVG/1.1/DTD/svg11.dtd"><svg width="100%" height="100%" viewBox="0 0 122 60" version="1.1" xmlns="http://www.w3.org/2000/svg" xmlns:xlink="http://www.w3.org/1999/xlink" xml:space="preserve" xmlns:serif="http://www.serif.com/" style="fill-rule:evenodd;clip-rule:evenodd;stroke-linejoin:round;stroke-miterlimit:2;"><g><path d="M45.037,21.674l-0,-1.146l-2.087,-0l-0,3.236l2.087,-2.09Z" style="fill:#7fcb2b;fill-rule:nonzero;"/><path d="M49.52,20.157l7.785,7.781l1.08,-1.076l-8.865,-8.86l-8.859,8.86l1.078,1.076l7.781,-7.781Z" style="fill:#7fcb2b;fill-rule:nonzero;"/><path d="M52.675,26.547c-0.845,0.844 -1.668,1.703 -2.342,2.684c-0.799,1.163 -1.456,2.438 -1.979,3.772c-0.699,-1.205 -1.429,-2.385 -2.459,-3.262l-0,-0.024c0.048,-0.334 0.535,-0.17 0.768,-0.094c0.56,0.179 1.126,0.489 1.538,0.698c0.946,-1.086 1.961,-2.298 3.09,-3.265c0.445,-0.383 0.886,-0.826 1.491,-0.982l0.07,-0c0.325,0.07 -0.064,0.356 -0.177,0.473m-3.152,-5.114l-5.738,5.738l0.006,0.006l-0.006,0l-0,7.536l11.466,-0l0,-7.534l0.009,-0.008l-5.737,-5.738Z" style="fill:#7fcb2b;fill-rule:nonzero;"/><path d="M19.645,37.081c1.028,-0.002 1.902,-0.215 2.617,-0.636c0.718,-0.423 1.299,-0.984 1.745,-1.677c0.446,-0.696 0.768,-1.483 0.97,-2.369c0.201,-0.884 0.301,-1.777 0.3,-2.672c0,-0.9 -0.11,-1.768 -0.328,-2.613c-0.22,-0.844 -0.553,-1.588 -1,-2.242c-0.448,-0.652 -1.033,-1.169 -1.751,-1.548c-0.717,-0.381 -1.578,-0.568 -2.58,-0.566c-1.029,-0 -1.893,0.222 -2.596,0.655c-0.705,0.439 -1.271,1.003 -1.702,1.7c-0.433,0.693 -0.744,1.483 -0.933,2.367c-0.188,0.884 -0.279,1.763 -0.278,2.633c0.001,0.869 0.11,1.719 0.328,2.548c0.218,0.831 0.553,1.571 0.999,2.223c0.449,0.655 1.017,1.182 1.709,1.587c0.692,0.409 1.525,0.612 2.5,0.61m10.31,2.54c0.005,3.18 -0.878,5.554 -2.655,7.118c-1.779,1.565 -4.335,2.35 -7.678,2.358c-1.059,-0 -2.125,-0.108 -3.197,-0.323c-1.075,-0.214 -2.05,-0.577 -2.935,-1.09c-0.884,-0.515 -1.626,-1.191 -2.223,-2.032c-0.601,-0.838 -0.956,-1.869 -1.067,-3.086l4.662,-0.008c0.136,0.647 0.368,1.173 0.693,1.578c0.326,0.405 0.713,0.722 1.159,0.95c0.447,0.23 0.942,0.377 1.485,0.443c0.54,0.069 1.108,0.102 1.705,0.102c1.867,-0.005 3.233,-0.469 4.098,-1.394c0.865,-0.927 1.296,-2.26 1.292,-3.997l-0.003,-3.218l-0.077,-0c-0.65,1.168 -1.537,2.082 -2.662,2.733c-1.125,0.656 -2.341,0.982 -3.642,0.984c-1.683,0.004 -3.113,-0.285 -4.296,-0.868c-1.181,-0.581 -2.159,-1.381 -2.934,-2.401c-0.775,-1.014 -1.341,-2.19 -1.696,-3.52c-0.354,-1.331 -0.534,-2.757 -0.536,-4.277c-0.002,-1.412 0.212,-2.76 0.642,-4.035c0.433,-1.279 1.055,-2.401 1.868,-3.369c0.813,-0.964 1.807,-1.733 2.988,-2.305c1.179,-0.574 2.513,-0.861 4.009,-0.864c1.329,-0 2.55,0.274 3.664,0.826c1.114,0.555 1.971,1.428 2.569,2.617l0.078,-0l-0.007,-2.878l4.662,-0.005l0.034,19.961Z" style="fill:#7fcb2b;fill-rule:nonzero;"/><path d="M30.836,9.954l4.66,-0.006l0.053,30.495l-4.661,0.01l-0.052,-30.499Z" style="fill:#7fcb2b;fill-rule:nonzero;"/><path d="M80.541,29.891c-0.002,-0.953 -0.125,-1.878 -0.369,-2.775c-0.247,-0.897 -0.615,-1.694 -1.104,-2.387c-0.489,-0.692 -1.1,-1.25 -1.832,-1.67c-0.733,-0.422 -1.573,-0.63 -2.521,-0.63c-1.953,0.006 -3.42,0.688 -4.407,2.05c-0.988,1.363 -1.48,3.174 -1.475,5.433c0,1.061 0.132,2.048 0.39,2.959c0.258,0.913 0.646,1.693 1.163,2.345c0.516,0.652 1.134,1.169 1.852,1.547c0.72,0.384 1.553,0.569 2.502,0.569c1.058,-0.002 1.952,-0.221 2.682,-0.658c0.732,-0.438 1.333,-1.002 1.807,-1.699c0.472,-0.693 0.809,-1.483 1.013,-2.368c0.201,-0.885 0.301,-1.791 0.299,-2.716m-16.211,-19.958l4.623,-0.009l0.019,12.151l0.079,0c0.324,-0.517 0.717,-0.978 1.177,-1.385c0.462,-0.408 0.97,-0.754 1.528,-1.038c0.555,-0.286 1.14,-0.506 1.751,-0.654c0.611,-0.152 1.215,-0.225 1.812,-0.228c1.659,-0.002 3.107,0.289 4.343,0.87c1.236,0.581 2.263,1.381 3.081,2.402c0.814,1.015 1.429,2.203 1.841,3.562c0.409,1.358 0.615,2.812 0.617,4.361c0.002,1.412 -0.179,2.785 -0.543,4.118c-0.363,1.335 -0.916,2.507 -1.663,3.53c-0.744,1.02 -1.687,1.835 -2.826,2.45c-1.138,0.612 -2.483,0.92 -4.029,0.924c-0.706,0.001 -1.418,-0.047 -2.139,-0.141c-0.72,-0.093 -1.404,-0.278 -2.056,-0.549c-0.653,-0.272 -1.245,-0.626 -1.773,-1.059c-0.532,-0.431 -0.973,-1.003 -1.327,-1.709l-0.081,0l0.005,2.895l-4.386,0.005l-0.053,-30.496Z" style="fill:#7fcb2b;fill-rule:nonzero;"/><path d="M107.119,11.478l4.66,-0.01l0.051,29.073l-4.659,0.008l-0.052,-29.071Z" style="fill:#7fcb2b;fill-rule:nonzero;"/><path d="M57.714,16.314l-0.011,-6.403l-4.66,0.007l0.008,4.19c1.71,0.431 3.287,1.189 4.663,2.206" style="fill:#7fcb2b;fill-rule:nonzero;"/><path d="M53.096,40.031l0.002,0.385l4.66,-0.008l-0.005,-2.598c-1.375,1.02 -2.951,1.783 -4.657,2.221" style="fill:#7fcb2b;fill-rule:nonzero;"/><path d="M49.819,13.705c0.807,0 1.6,0.068 2.368,0.207l-0.007,-3.992l-4.659,0.009l0.006,3.975c0.744,-0.129 1.51,-0.196 2.292,-0.199" style="fill:#7fcb2b;fill-rule:nonzero;"/><path d="M50.683,40.418l1.55,-0.003l-0,-0.186c-0.508,0.093 -1.023,0.155 -1.55,0.189" style="fill:#7fcb2b;fill-rule:nonzero;"/><path d="M47.572,40.253l0.002,0.171l1.471,-0.004c-0.498,-0.029 -0.99,-0.086 -1.473,-0.167" style="fill:#7fcb2b;fill-rule:nonzero;"/><path d="M42.045,37.895l0.004,2.537l4.66,-0.008l-0,-0.366c-1.708,-0.418 -3.286,-1.162 -4.664,-2.163" style="fill:#7fcb2b;fill-rule:nonzero;"/><path d="M46.663,14.101l-0.007,-4.173l-4.66,0.009l0.011,6.348c1.375,-1.012 2.951,-1.761 4.656,-2.184" style="fill:#7fcb2b;fill-rule:nonzero;"/><path d="M36.593,27.098c-0.007,-4.015 1.755,-7.62 4.552,-10.073l-0.013,-7.088l-4.659,0.009l0.052,30.495l4.659,-0.007l-0.003,-3.28c-2.806,-2.446 -4.582,-6.043 -4.588,-10.057" style="fill:#7fcb2b;fill-rule:nonzero;"/><path d="M58.569,9.905l0.011,7.155c2.76,2.446 4.502,6.013 4.511,9.99c0.006,3.976 -1.724,7.552 -4.474,10.006l0.004,3.345l4.662,-0.003l-0.054,-30.498l-4.66,0.005Z" style="fill:#7fcb2b;fill-rule:nonzero;"/><path d="M100.249,33.482c0.002,0.733 -0.172,1.354 -0.524,1.859c-0.354,0.503 -0.794,0.919 -1.321,1.246c-0.528,0.328 -1.091,0.56 -1.685,0.697c-0.598,0.136 -1.154,0.203 -1.668,0.203c-0.407,-0 -0.861,-0.036 -1.361,-0.12c-0.504,-0.078 -0.964,-0.22 -1.384,-0.424c-0.421,-0.205 -0.781,-0.481 -1.081,-0.834c-0.297,-0.353 -0.447,-0.787 -0.449,-1.304c-0,-0.6 0.099,-1.107 0.302,-1.529c0.204,-0.423 0.483,-0.762 0.832,-1.022c0.352,-0.259 0.76,-0.464 1.219,-0.613c0.462,-0.152 0.934,-0.267 1.423,-0.35c1.031,-0.192 2.058,-0.338 3.09,-0.433c1.029,-0.1 1.897,-0.376 2.6,-0.84l0.007,3.464Zm5.354,7.071c-0.112,-0.247 -0.2,-0.534 -0.238,-0.636c-0.439,-1.102 -0.45,-3.464 -0.452,-4.035l-0.017,-10.852c-0.003,-1.113 -0.25,-2.058 -0.74,-2.834c-0.49,-0.775 -1.139,-1.406 -1.939,-1.891c-0.805,-0.489 -1.709,-0.841 -2.715,-1.056c-1.007,-0.217 -2.026,-0.323 -3.059,-0.321c-1.169,0.002 -2.311,0.112 -3.425,0.33c-1.115,0.221 -2.113,0.603 -2.997,1.145c-0.882,0.547 -1.608,1.269 -2.178,2.165c-0.568,0.896 -0.893,2.027 -0.972,3.383l4.66,-0.009c0.105,-1.144 0.579,-1.988 1.417,-2.533c0.837,-0.547 1.906,-0.823 3.207,-0.824c0.459,-0 0.947,0.032 1.462,0.101c0.515,0.067 0.982,0.202 1.401,0.406c0.42,0.204 0.773,0.498 1.059,0.877c0.284,0.384 0.428,0.873 0.428,1.473c0,0.685 -0.169,1.196 -0.505,1.536c-0.34,0.342 -0.8,0.595 -1.385,0.761c-0.582,0.165 -1.252,0.281 -2.013,0.35c-0.759,0.07 -1.559,0.189 -2.398,0.352c-0.979,0.112 -1.949,0.269 -2.909,0.474c-0.963,0.205 -1.833,0.537 -2.602,1.002c-0.773,0.463 -1.397,1.103 -1.871,1.918c-0.474,0.817 -0.708,1.874 -0.706,3.178c0.002,1.032 0.199,1.934 0.596,2.706c0.396,0.772 0.928,1.412 1.594,1.911c0.665,0.503 1.435,0.883 2.305,1.137c0.87,0.256 1.781,0.383 2.733,0.383c1.249,-0.002 2.547,-0.208 3.891,-0.614c1.347,-0.412 2.479,-1.063 3.402,-1.96c0.126,0.629 0.207,1.511 0.403,1.981l4.563,-0.004Z" style="fill:#7fcb2b;fill-rule:nonzero;"/><path d="M31.817,43.628l0,4.307l2.023,0l0,0.977l-2.936,-0l-0,-5.284l0.913,-0Z" style="fill:#7fcb2b;fill-rule:nonzero;"/><rect x="36.675" y="43.628" width="0.913" height="5.284" style="fill:#7fcb2b;fill-rule:nonzero;"/><path d="M41.625,43.628l1.731,3.543l0.013,0l-0,-3.543l0.853,-0l-0,5.284l-0.911,-0l-1.729,-3.537l-0.011,-0l0,3.537l-0.856,-0l0,-5.284l0.91,-0Z" style="fill:#7fcb2b;fill-rule:nonzero;"/><rect x="47.351" y="43.628" width="0.912" height="5.284" style="fill:#7fcb2b;fill-rule:nonzero;"/><path d="M52.299,43.628l1.731,3.543l0.013,0l-0,-3.543l0.853,-0l-0,5.284l-0.912,-0l-1.728,-3.537l-0.01,-0l-0,3.537l-0.856,-0l0,-5.284l0.909,-0Z" style="fill:#7fcb2b;fill-rule:nonzero;"/><path d="M60.485,48.873c-0.2,0.104 -0.399,0.159 -0.6,0.159c-0.318,-0 -0.603,-0.07 -0.858,-0.21c-0.254,-0.14 -0.469,-0.334 -0.641,-0.582c-0.175,-0.248 -0.308,-0.535 -0.401,-0.87c-0.093,-0.333 -0.141,-0.692 -0.141,-1.077c0,-0.396 0.048,-0.762 0.141,-1.098c0.093,-0.339 0.226,-0.633 0.401,-0.887c0.172,-0.251 0.387,-0.447 0.641,-0.593c0.255,-0.142 0.54,-0.214 0.858,-0.214c0.214,-0 0.419,0.042 0.619,0.123c0.2,0.083 0.379,0.2 0.541,0.359c0.161,0.158 0.293,0.352 0.398,0.583c0.106,0.233 0.17,0.499 0.194,0.802l-0.874,-0c-0.054,-0.296 -0.159,-0.519 -0.313,-0.666c-0.156,-0.148 -0.344,-0.223 -0.565,-0.223c-0.206,0 -0.378,0.049 -0.523,0.153c-0.144,0.098 -0.261,0.237 -0.348,0.407c-0.09,0.168 -0.155,0.363 -0.194,0.581c-0.042,0.216 -0.062,0.441 -0.062,0.673c0,0.223 0.02,0.438 0.062,0.648c0.039,0.207 0.104,0.4 0.194,0.568c0.087,0.167 0.204,0.3 0.348,0.401c0.145,0.102 0.317,0.153 0.523,0.153c0.303,0 0.537,-0.099 0.701,-0.296c0.164,-0.192 0.261,-0.474 0.287,-0.844l-0.918,-0l0,-0.867l1.744,0l0,2.856l-0.582,0l-0.092,-0.597c-0.163,0.264 -0.343,0.451 -0.54,0.558" style="fill:#7fcb2b;fill-rule:nonzero;"/><path d="M65.46,47.61c0.051,0.123 0.117,0.223 0.201,0.299c0.083,0.077 0.182,0.133 0.293,0.171c0.114,0.038 0.23,0.055 0.35,0.055c0.081,-0 0.169,-0.009 0.26,-0.024c0.095,-0.018 0.181,-0.053 0.263,-0.101c0.082,-0.05 0.149,-0.119 0.204,-0.204c0.053,-0.088 0.081,-0.196 0.081,-0.328c-0,-0.144 -0.038,-0.26 -0.108,-0.35c-0.072,-0.088 -0.165,-0.162 -0.282,-0.222c-0.116,-0.061 -0.249,-0.109 -0.395,-0.154c-0.148,-0.044 -0.296,-0.096 -0.447,-0.148c-0.156,-0.051 -0.307,-0.11 -0.453,-0.183c-0.149,-0.069 -0.281,-0.163 -0.395,-0.275c-0.116,-0.117 -0.212,-0.256 -0.284,-0.426c-0.072,-0.173 -0.106,-0.378 -0.106,-0.621c-0,-0.271 0.045,-0.506 0.135,-0.706c0.092,-0.199 0.209,-0.369 0.358,-0.499c0.148,-0.137 0.313,-0.232 0.5,-0.295c0.186,-0.067 0.372,-0.099 0.558,-0.099c0.217,0 0.424,0.032 0.627,0.095c0.198,0.062 0.375,0.162 0.53,0.299c0.154,0.137 0.277,0.315 0.368,0.53c0.092,0.211 0.138,0.474 0.138,0.779l-0.884,-0c-0.009,-0.157 -0.035,-0.288 -0.079,-0.393c-0.043,-0.103 -0.102,-0.183 -0.177,-0.245c-0.072,-0.059 -0.159,-0.098 -0.253,-0.124c-0.095,-0.024 -0.198,-0.035 -0.31,-0.035c-0.073,-0 -0.149,0.009 -0.224,0.028c-0.07,0.02 -0.138,0.055 -0.198,0.102c-0.06,0.051 -0.11,0.113 -0.149,0.185c-0.039,0.077 -0.057,0.168 -0.057,0.283c0,0.105 0.017,0.188 0.046,0.25c0.031,0.067 0.092,0.125 0.182,0.179c0.091,0.053 0.217,0.109 0.378,0.164c0.162,0.054 0.373,0.123 0.632,0.207c0.078,0.017 0.186,0.055 0.323,0.107c0.135,0.053 0.273,0.133 0.409,0.247c0.136,0.115 0.253,0.266 0.352,0.455c0.099,0.191 0.149,0.434 0.149,0.73c0,0.242 -0.036,0.465 -0.112,0.673c-0.074,0.208 -0.183,0.387 -0.327,0.538c-0.145,0.149 -0.327,0.268 -0.542,0.351c-0.214,0.083 -0.463,0.126 -0.747,0.126c-0.228,-0 -0.451,-0.036 -0.664,-0.107c-0.216,-0.072 -0.407,-0.186 -0.571,-0.337c-0.164,-0.152 -0.295,-0.348 -0.391,-0.583c-0.098,-0.239 -0.146,-0.522 -0.141,-0.847l0.885,-0c-0,0.179 0.024,0.329 0.074,0.453" style="fill:#7fcb2b;fill-rule:nonzero;"/><path d="M75.716,43.628l0,4.307l2.023,0l-0,0.977l-2.936,-0l-0,-5.284l0.913,-0Z" style="fill:#7fcb2b;fill-rule:nonzero;"/><rect x="80.575" y="43.628" width="0.912" height="5.284" style="fill:#7fcb2b;fill-rule:nonzero;"/><path d="M85.902,43.628l0.968,3.634l0.013,0l0.919,-3.634l1.284,-0l-0,5.284l-0.853,-0l-0,-3.745l-0.012,0l-1.017,3.745l-0.704,-0l-1.018,-3.709l-0.011,0l-0,3.709l-0.854,-0l-0,-5.284l1.285,-0Z" style="fill:#7fcb2b;fill-rule:nonzero;"/><rect x="92.213" y="43.628" width="0.914" height="5.284" style="fill:#7fcb2b;fill-rule:nonzero;"/><path d="M95.931,44.606l-0,-0.978l3.398,0l0,0.978l-1.242,0l-0,4.306l-0.914,0l0,-4.306l-1.242,0Z" style="fill:#7fcb2b;fill-rule:nonzero;"/><path d="M105.234,43.628l0,0.978l-2.191,0l-0,1.131l2.011,0l0,0.903l-2.011,0l-0,1.295l2.238,0l0,0.977l-3.15,-0l0,-5.284l3.103,-0Z" style="fill:#7fcb2b;fill-rule:nonzero;"/><path d="M109.952,47.936c0.132,-0 0.259,-0.026 0.385,-0.081c0.122,-0.055 0.234,-0.144 0.329,-0.271c0.098,-0.125 0.175,-0.29 0.233,-0.492c0.058,-0.202 0.087,-0.449 0.087,-0.74c0,-0.267 -0.02,-0.508 -0.062,-0.722c-0.038,-0.215 -0.106,-0.398 -0.199,-0.552c-0.093,-0.152 -0.216,-0.272 -0.369,-0.352c-0.153,-0.081 -0.342,-0.12 -0.567,-0.12l-0.651,0l0,3.33l0.814,-0Zm0.065,-4.308c0.266,0 0.517,0.055 0.747,0.163c0.229,0.108 0.43,0.272 0.598,0.489c0.17,0.217 0.301,0.488 0.395,0.813c0.094,0.327 0.142,0.71 0.142,1.148c0,0.387 -0.038,0.742 -0.117,1.067c-0.076,0.326 -0.194,0.605 -0.352,0.842c-0.154,0.237 -0.353,0.424 -0.587,0.561c-0.233,0.135 -0.509,0.201 -0.826,0.201l-1.791,0l0,-5.284l1.791,0Z" style="fill:#7fcb2b;fill-rule:nonzero;"/></g></svg>