<?xml version="1.0" encoding="UTF-8" standalone="no"?>
<!DOCTYPE svg PUBLIC "-//W3C//DTD SVG 1.1//EN" "http://www.w3.org/Graphics/SVG/1.1/DTD/svg11.dtd">
<svg width="100%" height="100%" viewBox="0 0 122 60" version="1.1" xmlns="http://www.w3.org/2000/svg" xmlns:xlink="http://www.w3.org/1999/xlink" xml:space="preserve" xmlns:serif="http://www.serif.com/" style="fill-rule:evenodd;clip-rule:evenodd;stroke-linejoin:round;stroke-miterlimit:2;">
    <g>
        <g transform="matrix(0.353105,0,0,0.353105,-143.368,-7.41558)">
            <g transform="matrix(0.146285,0,0,0.146285,332.892,-82.6069)">
                <ellipse cx="1462.86" cy="1275.4" rx="86.462" ry="85.285" style="fill:white;"/>
            </g>
            <g>
                <g transform="matrix(0.276614,0,0,0.276614,422.312,16.9852)">
                    <path d="M406.848,231.691L406.848,219.957L389.813,219.957L389.813,249.638L406.848,231.691Z" style="fill:rgb(127,203,43);fill-rule:nonzero;stroke:white;stroke-width:2.64px;"/>
                </g>
                <g transform="matrix(0.276614,0,0,0.276614,421.015,18.2822)">
                    <path d="M452.75,216.16L532.449,295.836L543.5,284.82L452.75,194.094L362.059,284.82L373.094,295.836L452.75,216.16Z" style="fill:rgb(127,203,43);fill-rule:nonzero;stroke:white;stroke-width:2.64px;"/>
                </g>
                <g transform="matrix(0.276614,0,0,0.276614,421.015,18.2822)">
                    <path d="M485.043,281.594C476.398,290.242 467.973,299.031 461.074,309.082C452.891,320.988 446.164,334.043 440.813,347.703C433.66,335.363 426.184,323.281 415.637,314.301L415.637,314.051C416.129,310.629 421.117,312.313 423.5,313.09C429.23,314.93 435.023,318.098 439.246,320.242C448.93,309.121 459.316,296.711 470.883,286.801C475.43,282.887 479.949,278.344 486.145,276.746L486.855,276.746C490.188,277.473 486.207,280.398 485.043,281.594ZM452.781,229.223L394.039,287.984L394.098,288.051L394.039,288.051L394.039,365.211L511.414,365.211L511.414,288.066L511.504,287.984L452.781,229.223Z" style="fill:rgb(127,203,43);fill-rule:nonzero;stroke:white;stroke-width:2.64px;"/>
                </g>
            </g>
            <g transform="matrix(0.276614,0,0,0.276614,421.015,18.2822)">
                <path d="M146.914,389.453C157.441,389.438 166.387,387.254 173.707,382.938C181.059,378.605 186.996,372.863 191.566,365.773C196.129,358.641 199.434,350.582 201.5,341.512C203.559,332.457 204.578,323.309 204.57,314.145C204.57,304.938 203.441,296.051 201.207,287.395C198.953,278.746 195.551,271.133 190.977,264.43C186.391,257.754 180.402,252.469 173.051,248.578C165.711,244.684 156.898,242.766 146.637,242.781C136.105,242.781 127.254,245.055 120.059,249.496C112.848,253.984 107.047,259.77 102.633,266.898C98.207,274 95.023,282.086 93.09,291.141C91.16,300.191 90.23,309.195 90.238,318.102C90.246,327.004 91.367,335.707 93.602,344.191C95.836,352.703 99.254,360.281 103.824,366.961C108.418,373.664 114.238,379.063 121.316,383.215C128.401,387.395 136.93,389.477 146.914,389.453ZM252.461,415.469C252.512,448.023 243.465,472.336 225.277,488.355C207.066,504.379 180.902,512.422 146.68,512.492C135.84,512.492 124.922,511.395 113.945,509.191C102.941,506.996 92.965,503.285 83.906,498.031C74.852,492.754 67.258,485.832 61.141,477.219C54.996,468.637 51.359,458.09 50.223,445.625L97.949,445.539C99.344,452.168 101.715,457.555 105.039,461.695C108.379,465.84 112.336,469.094 116.906,471.43C121.484,473.777 126.547,475.285 132.105,475.961C137.633,476.664 143.453,477.004 149.563,477.004C168.68,476.957 182.664,472.199 191.516,462.73C200.375,453.242 204.785,439.594 204.746,421.809L204.715,388.848L203.922,388.848C197.27,400.813 188.184,410.176 176.668,416.84C165.152,423.555 152.707,426.895 139.387,426.91C122.16,426.957 107.516,423.992 95.414,418.023C83.32,412.07 73.305,403.883 65.375,393.438C57.438,383.051 51.648,371.012 48.008,357.395C44.383,343.762 42.539,329.16 42.52,313.594C42.5,299.137 44.695,285.34 49.094,272.277C53.527,259.184 59.898,247.688 68.219,237.777C76.539,227.91 86.719,220.031 98.805,214.176C110.879,208.305 124.539,205.359 139.848,205.328C153.449,205.328 165.957,208.133 177.352,213.785C188.758,219.465 197.531,228.406 203.656,240.586L204.453,240.586L204.383,211.117L252.113,211.059L252.461,415.469Z" style="fill:rgb(127,203,43);fill-rule:nonzero;"/>
            </g>
            <g transform="matrix(0.276614,0,0,0.276614,421.015,18.2822)">
                <path d="M261.469,111.684L309.18,111.617L309.715,423.891L262.008,423.992L261.469,111.684Z" style="fill:rgb(127,203,43);fill-rule:nonzero;"/>
            </g>
            <g transform="matrix(0.276614,0,0,0.276614,421.015,18.2822)">
                <path d="M770.313,315.828C770.289,306.074 769.035,296.602 766.535,287.422C764.008,278.23 760.246,270.074 755.238,262.977C750.23,255.891 743.977,250.18 736.477,245.875C728.98,241.551 720.379,239.418 710.672,239.418C690.68,239.484 675.656,246.465 665.555,260.41C655.441,274.375 650.402,292.914 650.461,316.051C650.461,326.91 651.813,337.023 654.453,346.344C657.094,355.695 661.066,363.688 666.359,370.363C671.641,377.039 677.961,382.328 685.309,386.199C692.684,390.133 701.219,392.027 710.93,392.027C721.758,392.008 730.914,389.766 738.391,385.289C745.879,380.805 752.035,375.027 756.883,367.895C761.715,360.797 765.164,352.703 767.25,343.648C769.309,334.578 770.34,325.305 770.313,315.828ZM604.363,111.461L651.684,111.367L651.883,235.801L652.688,235.801C656.008,230.512 660.027,225.785 664.742,221.613C669.473,217.434 674.668,213.891 680.383,210.984C686.066,208.059 692.055,205.809 698.305,204.289C704.559,202.738 710.742,201.984 716.859,201.957C733.844,201.934 748.66,204.914 761.313,210.867C773.973,216.813 784.48,225.012 792.859,235.461C801.191,245.855 807.492,258.02 811.707,271.934C815.891,285.848 817.996,300.73 818.02,316.594C818.047,331.059 816.184,345.109 812.461,358.762C808.746,372.434 803.082,384.438 795.438,394.91C787.824,405.355 778.168,413.695 766.508,419.996C754.852,426.266 741.082,429.414 725.258,429.457C718.035,429.477 710.742,428.977 703.367,428.016C695.992,427.059 688.988,425.168 682.313,422.395C675.629,419.609 669.57,415.98 664.164,411.547C658.723,407.141 654.207,401.281 650.582,394.055L649.754,394.055L649.805,423.691L604.898,423.742L604.363,111.461Z" style="fill:rgb(127,203,43);fill-rule:nonzero;"/>
            </g>
            <g transform="matrix(0.276614,0,0,0.276614,421.015,18.2822)">
                <path d="M1042.38,127.281L1090.07,127.188L1090.61,424.883L1042.9,424.965L1042.38,127.281Z" style="fill:rgb(127,203,43);fill-rule:nonzero;"/>
            </g>
            <g>
                <g transform="matrix(0.276614,0,0,0.276614,421.015,18.2822)">
                    <path d="M536.633,176.797L536.523,111.238L488.816,111.309L488.895,154.215C506.398,158.625 522.547,166.387 536.633,176.797Z" style="fill:rgb(127,203,43);fill-rule:nonzero;"/>
                </g>
                <g transform="matrix(0.276614,0,0,0.276614,421.015,18.2822)">
                    <path d="M489.348,419.664L489.375,423.602L537.074,423.52L537.023,396.918C522.948,407.359 506.82,415.18 489.348,419.664Z" style="fill:rgb(127,203,43);fill-rule:nonzero;"/>
                </g>
                <g transform="matrix(0.276614,0,0,0.276614,421.015,18.2822)">
                    <path d="M455.809,150.086C464.07,150.086 472.188,150.785 480.047,152.199L479.977,111.332L432.277,111.414L432.336,152.125C439.961,150.801 447.801,150.117 455.809,150.086Z" style="fill:rgb(127,203,43);fill-rule:nonzero;"/>
                </g>
                <g transform="matrix(0.276614,0,0,0.276614,421.015,18.2822)">
                    <path d="M376.223,397.793L376.27,423.777L423.969,423.691L423.969,419.949C406.484,415.664 390.332,408.051 376.223,397.793Z" style="fill:rgb(127,203,43);fill-rule:nonzero;"/>
                </g>
                <g transform="matrix(0.276614,0,0,0.276614,421.015,18.2822)">
                    <path d="M423.496,154.141L423.43,111.414L375.723,111.508L375.828,176.508C389.91,166.145 406.043,158.477 423.496,154.141Z" style="fill:rgb(127,203,43);fill-rule:nonzero;"/>
                </g>
                <g transform="matrix(0.276614,0,0,0.276614,421.015,18.2822)">
                    <path d="M320.406,287.234C320.34,246.121 338.371,209.215 367.008,184.098L366.871,111.508L319.176,111.602L319.711,423.871L367.41,423.801L367.371,390.219C338.645,365.172 320.465,328.332 320.406,287.234Z" style="fill:rgb(127,203,43);fill-rule:nonzero;"/>
                </g>
                <g transform="matrix(0.276614,0,0,0.276614,421.015,18.2822)">
                    <path d="M545.375,111.184L545.492,184.453C573.742,209.492 591.582,246.027 591.668,286.738C591.727,327.453 574.02,364.07 545.863,389.211L545.902,423.461L593.633,423.43L593.082,111.125L545.375,111.184Z" style="fill:rgb(127,203,43);fill-rule:nonzero;"/>
                </g>
            </g>
            <g>
                <g transform="matrix(0.276614,0,0,0.276614,421.015,18.2822)">
                    <path d="M464.648,423.629L480.516,423.602L480.516,421.699C475.32,422.648 470.039,423.281 464.648,423.629Z" style="fill:rgb(127,203,43);fill-rule:nonzero;"/>
                </g>
                <g transform="matrix(0.276614,0,0,0.276614,421.015,18.2822)">
                    <path d="M432.797,421.938L432.816,423.691L447.883,423.648C442.785,423.352 437.746,422.77 432.797,421.938Z" style="fill:rgb(127,203,43);fill-rule:nonzero;"/>
                </g>
                <g transform="matrix(0.276614,0,0,0.276614,421.015,18.2822)">
                    <path d="M271.516,456.5L271.516,500.605L292.223,500.605L292.223,510.605L262.164,510.605L262.164,456.5L271.516,456.5Z" style="fill:rgb(127,203,43);fill-rule:nonzero;"/>
                </g>
                <g transform="matrix(0.276614,0,0,0.276614,421.015,18.2822)">
                    <rect x="321.254" y="456.5" width="9.348" height="54.105" style="fill:rgb(127,203,43);"/>
                </g>
                <g transform="matrix(0.276614,0,0,0.276614,421.015,18.2822)">
                    <path d="M371.918,456.5L389.637,492.785L389.773,492.785L389.773,456.5L398.508,456.5L398.508,510.605L389.18,510.605L371.477,474.387L371.371,474.387L371.371,510.605L362.609,510.605L362.609,456.5L371.918,456.5Z" style="fill:rgb(127,203,43);fill-rule:nonzero;"/>
                </g>
                <g transform="matrix(0.276614,0,0,0.276614,421.015,18.2822)">
                    <rect x="430.535" y="456.5" width="9.332" height="54.105" style="fill:rgb(127,203,43);"/>
                </g>
                <g transform="matrix(0.276614,0,0,0.276614,421.015,18.2822)">
                    <path d="M481.191,456.5L498.91,492.785L499.047,492.785L499.047,456.5L507.781,456.5L507.781,510.605L498.449,510.605L480.762,474.387L480.652,474.387L480.652,510.605L471.891,510.605L471.891,456.5L481.191,456.5Z" style="fill:rgb(127,203,43);fill-rule:nonzero;"/>
                </g>
                <g transform="matrix(0.276614,0,0,0.276614,421.015,18.2822)">
                    <path d="M564.992,510.207C562.945,511.277 560.906,511.832 558.848,511.832C555.594,511.832 552.676,511.121 550.07,509.688C547.461,508.25 545.266,506.262 543.504,503.727C541.711,501.188 540.348,498.242 539.395,494.813C538.445,491.402 537.953,487.73 537.953,483.789C537.953,479.73 538.445,475.984 539.395,472.543C540.348,469.066 541.711,466.063 543.504,463.461C545.266,460.891 547.461,458.883 550.07,457.387C552.676,455.934 555.594,455.195 558.848,455.195C561.035,455.195 563.141,455.621 565.188,456.461C567.227,457.305 569.063,458.508 570.727,460.133C572.371,461.754 573.723,463.738 574.793,466.102C575.883,468.484 576.535,471.211 576.781,474.313L567.836,474.313C567.285,471.281 566.211,469 564.633,467.5C563.031,465.977 561.113,465.219 558.848,465.219C556.742,465.219 554.977,465.719 553.5,466.773C552.02,467.777 550.82,469.199 549.93,470.949C549.008,472.668 548.344,474.66 547.941,476.891C547.512,479.102 547.313,481.41 547.313,483.789C547.313,486.07 547.512,488.27 547.941,490.426C548.344,492.543 549.008,494.52 549.93,496.234C550.82,497.945 552.02,499.309 553.5,500.348C554.977,501.391 556.742,501.914 558.848,501.914C561.945,501.914 564.348,500.895 566.023,498.887C567.699,496.914 568.699,494.031 568.965,490.238L559.566,490.238L559.566,481.363L577.422,481.363L577.422,510.605L571.465,510.605L570.52,504.492C568.844,507.195 567.004,509.113 564.992,510.207Z" style="fill:rgb(127,203,43);fill-rule:nonzero;"/>
                </g>
                <g transform="matrix(0.276614,0,0,0.276614,421.015,18.2822)">
                    <path d="M615.926,497.285C616.445,498.535 617.121,499.563 617.984,500.348C618.824,501.137 619.844,501.703 620.98,502.098C622.148,502.48 623.336,502.652 624.563,502.652C625.395,502.652 626.293,502.563 627.227,502.406C628.195,502.223 629.078,501.863 629.918,501.375C630.754,500.859 631.441,500.16 632.008,499.293C632.547,498.391 632.828,497.285 632.828,495.934C632.828,494.453 632.449,493.266 631.723,492.348C630.988,491.441 630.035,490.684 628.84,490.07C627.656,489.453 626.293,488.961 624.793,488.496C623.285,488.047 621.77,487.516 620.219,486.98C618.621,486.453 617.082,485.852 615.582,485.105C614.063,484.395 612.711,483.438 611.535,482.289C610.352,481.094 609.367,479.668 608.633,477.93C607.898,476.156 607.547,474.059 607.547,471.57C607.547,468.801 608.004,466.383 608.93,464.344C609.867,462.301 611.074,460.566 612.594,459.227C614.113,457.828 615.797,456.852 617.707,456.207C619.621,455.523 621.523,455.195 623.422,455.195C625.648,455.195 627.766,455.523 629.844,456.164C631.871,456.805 633.684,457.828 635.273,459.227C636.852,460.637 638.105,462.461 639.035,464.652C639.977,466.813 640.445,469.516 640.445,472.633L631.402,472.633C631.313,471.027 631.039,469.688 630.598,468.613C630.148,467.559 629.547,466.734 628.781,466.102C628.039,465.496 627.156,465.098 626.195,464.836C625.215,464.586 624.168,464.469 623.02,464.469C622.266,464.469 621.492,464.559 620.727,464.762C620,464.965 619.309,465.324 618.699,465.809C618.082,466.328 617.57,466.957 617.168,467.699C616.77,468.484 616.59,469.422 616.59,470.594C616.59,471.672 616.758,472.523 617.063,473.16C617.375,473.844 618.004,474.438 618.922,474.992C619.855,475.535 621.141,476.102 622.797,476.664C624.449,477.219 626.609,477.93 629.266,478.789C630.059,478.969 631.164,479.348 632.566,479.879C633.945,480.43 635.359,481.242 636.75,482.414C638.145,483.59 639.348,485.137 640.359,487.074C641.375,489.027 641.887,491.512 641.887,494.547C641.887,497.027 641.512,499.305 640.738,501.438C639.977,503.566 638.867,505.402 637.387,506.953C635.906,508.473 634.047,509.688 631.84,510.539C629.656,511.395 627.098,511.832 624.195,511.832C621.863,511.832 619.578,511.465 617.395,510.738C615.18,510.004 613.23,508.832 611.555,507.289C609.867,505.727 608.527,503.727 607.547,501.313C606.547,498.867 606.059,495.973 606.109,492.641L615.16,492.641C615.16,494.473 615.406,496.016 615.926,497.285Z" style="fill:rgb(127,203,43);fill-rule:nonzero;"/>
                </g>
                <g transform="matrix(0.276614,0,0,0.276614,421.015,18.2822)">
                    <path d="M720.914,456.5L720.914,500.605L741.621,500.605L741.621,510.605L711.566,510.605L711.566,456.5L720.914,456.5Z" style="fill:rgb(127,203,43);fill-rule:nonzero;"/>
                </g>
                <g transform="matrix(0.276614,0,0,0.276614,421.015,18.2822)">
                    <rect x="770.66" y="456.5" width="9.344" height="54.105" style="fill:rgb(127,203,43);"/>
                </g>
                <g transform="matrix(0.276614,0,0,0.276614,421.015,18.2822)">
                    <path d="M825.191,456.5L835.109,493.715L835.238,493.715L844.645,456.5L857.789,456.5L857.789,510.605L849.055,510.605L849.055,472.266L848.938,472.266L838.52,510.605L831.316,510.605L820.898,472.633L820.781,472.633L820.781,510.605L812.039,510.605L812.039,456.5L825.191,456.5Z" style="fill:rgb(127,203,43);fill-rule:nonzero;"/>
                </g>
                <g transform="matrix(0.276614,0,0,0.276614,421.015,18.2822)">
                    <rect x="889.805" y="456.5" width="9.359" height="54.105" style="fill:rgb(127,203,43);"/>
                </g>
                <g transform="matrix(0.276614,0,0,0.276614,421.015,18.2822)">
                    <path d="M927.859,466.516L927.859,456.5L962.648,456.5L962.648,466.516L949.93,466.516L949.93,510.609L940.582,510.609L940.582,466.516L927.859,466.516Z" style="fill:rgb(127,203,43);fill-rule:nonzero;"/>
                </g>
                <g transform="matrix(0.276614,0,0,0.276614,421.015,18.2822)">
                    <path d="M1023.13,456.5L1023.13,466.516L1000.7,466.516L1000.7,478.102L1021.28,478.102L1021.28,487.348L1000.7,487.348L1000.7,500.605L1023.61,500.605L1023.61,510.605L991.363,510.605L991.363,456.5L1023.13,456.5Z" style="fill:rgb(127,203,43);fill-rule:nonzero;"/>
                </g>
                <g transform="matrix(0.276614,0,0,0.276614,421.015,18.2822)">
                    <path d="M1071.4,500.605C1072.76,500.605 1074.06,500.344 1075.34,499.785C1076.59,499.219 1077.74,498.305 1078.71,497.004C1079.71,495.723 1080.51,494.035 1081.1,491.965C1081.69,489.898 1081.99,487.371 1081.99,484.395C1081.99,481.656 1081.78,479.191 1081.35,477.004C1080.96,474.801 1080.26,472.918 1079.31,471.352C1078.36,469.785 1077.11,468.563 1075.54,467.746C1073.97,466.91 1072.04,466.516 1069.73,466.516L1063.07,466.516L1063.07,500.605L1071.4,500.605ZM1072.07,456.5C1074.79,456.5 1077.36,457.059 1079.71,458.172C1082.06,459.27 1084.12,460.953 1085.84,463.172C1087.57,465.398 1088.92,468.172 1089.88,471.504C1090.85,474.844 1091.34,478.77 1091.34,483.254C1091.34,487.219 1090.94,490.852 1090.14,494.18C1089.36,497.52 1088.15,500.379 1086.54,502.805C1084.96,505.227 1082.92,507.141 1080.53,508.547C1078.14,509.93 1075.31,510.605 1072.07,510.605L1053.73,510.605L1053.73,456.5L1072.07,456.5Z" style="fill:rgb(127,203,43);fill-rule:nonzero;"/>
                </g>
            </g>
            <g transform="matrix(0.276614,0,0,0.276614,421.015,18.2822)">
                <path d="M972.066,352.609C972.09,360.113 970.305,366.473 966.695,371.637C963.082,376.789 958.574,381.051 953.176,384.398C947.773,387.758 942.012,390.133 935.922,391.539C929.809,392.93 924.117,393.617 918.852,393.617C914.688,393.617 910.043,393.25 904.918,392.391C899.762,391.59 895.055,390.133 890.754,388.051C886.441,385.953 882.758,383.125 879.691,379.504C876.641,375.891 875.113,371.445 875.086,366.156C875.086,360.008 876.102,354.816 878.18,350.496C880.27,346.164 883.121,342.691 886.699,340.027C890.305,337.383 894.48,335.285 899.172,333.75C903.906,332.203 908.738,331.02 913.746,330.172C924.301,328.207 934.816,326.711 945.383,325.734C955.906,324.715 964.797,321.883 971.988,317.133L972.066,352.609ZM1026.87,425.016C1025.73,422.484 1024.83,419.543 1024.44,418.5C1019.94,407.219 1019.84,383.027 1019.82,377.18L1019.64,266.059C1019.61,254.664 1017.08,244.98 1012.06,237.043C1007.05,229.102 1000.4,222.633 992.207,217.672C983.977,212.668 974.715,209.063 964.422,206.863C954.113,204.641 943.676,203.555 933.102,203.57C921.137,203.59 909.445,204.715 898.035,206.957C886.629,209.215 876.406,213.125 867.359,218.676C858.336,224.277 850.898,231.672 845.066,240.848C839.246,250.023 835.922,261.605 835.109,275.492L882.816,275.398C883.895,263.684 888.746,255.039 897.324,249.461C905.895,243.852 916.832,241.035 930.152,241.02C934.855,241.02 939.844,241.348 945.117,242.051C950.391,242.742 955.172,244.125 959.465,246.215C963.766,248.297 967.375,251.305 970.305,255.191C973.215,259.121 974.688,264.133 974.688,270.273C974.688,277.285 972.961,282.52 969.52,286C966.039,289.504 961.328,292.094 955.34,293.801C949.383,295.484 942.52,296.676 934.73,297.387C926.965,298.102 918.773,299.313 910.18,300.988C900.164,302.133 890.227,303.742 880.406,305.84C870.547,307.938 861.637,311.344 853.766,316.098C845.848,320.844 839.461,327.395 834.609,335.738C829.758,344.102 827.367,354.934 827.387,368.281C827.406,378.852 829.426,388.09 833.48,395.992C837.539,403.902 842.988,410.445 849.801,415.559C856.609,420.711 864.488,424.602 873.398,427.207C882.309,429.82 891.637,431.133 901.379,431.133C914.168,431.102 927.449,428.996 941.207,424.836C954.996,420.621 966.59,413.953 976.039,404.773C977.332,411.215 978.152,420.238 980.164,425.055L1026.87,425.016Z" style="fill:rgb(127,203,43);fill-rule:nonzero;"/>
            </g>
        </g>
        <g transform="matrix(0.052236,0,0,0.0526856,-29.348,-37.0361)">
            <circle cx="1516.43" cy="1217.57" r="253.357" style="fill:none;stroke:white;stroke-width:9.85px;stroke-linecap:round;stroke-miterlimit:1.5;"/>
        </g>
    </g>
</svg>
