<?xml version="1.0" encoding="UTF-8" standalone="no"?>
<!DOCTYPE svg PUBLIC "-//W3C//DTD SVG 1.1//EN" "http://www.w3.org/Graphics/SVG/1.1/DTD/svg11.dtd">
<svg width="100%" height="100%" viewBox="0 0 1008 1433" version="1.1" xmlns="http://www.w3.org/2000/svg" xmlns:xlink="http://www.w3.org/1999/xlink" xml:space="preserve" xmlns:serif="http://www.serif.com/" style="fill-rule:evenodd;clip-rule:evenodd;stroke-linejoin:round;stroke-miterlimit:2;">
    <g id="Regions" transform="matrix(0.311629,0,0,0.311629,-25.7237,-320.572)">
        <g transform="matrix(1,0,0,1,3173.82,2641.78)">
            <path d="M0,-410.23C-12.97,-407.24 -24.94,-410.23 -25.94,-400.26C-26.93,-390.28 -26.93,-371.33 -20.95,-362.35C-14.96,-353.37 -5.98,-358.36 -10.97,-344.39C-15.96,-330.42 -29.93,-330.42 -36.91,-308.48C-43.89,-286.53 -63.85,-240.64 -73.82,-242.63C-83.8,-244.63 -96.77,-280.54 -109.74,-274.56C-122.7,-268.57 -117.72,-263.58 -118.71,-253.61C-119.71,-243.63 -115.72,-225.67 -131.68,-221.68C-147.65,-217.69 -170.59,-207.72 -174.58,-200.73C-178.57,-193.75 -184.56,-164.82 -192.54,-159.83C-200.52,-154.84 -231.45,-156.84 -240.42,-143.87C-249.4,-130.9 -250.4,-104.96 -255.39,-98.97C-260.38,-92.99 -252.4,-86.01 -283.32,-78.02C-314.25,-70.04 -320.23,-68.05 -326.22,-55.08C-332.21,-42.11 -347.17,-42.11 -351.16,-48.1C-355.15,-54.08 -376.43,-51.09 -379.09,-53.08C-381.75,-55.08 -383.08,-48.43 -393.73,-41.11C-404.37,-33.8 -409.02,-20.5 -410.35,-11.85C-411.68,-3.2 -415.67,1.45 -420.99,-1.21C-426.31,-3.87 -441.61,-3.2 -445.6,-10.52C-449.59,-17.83 -456.24,-15.84 -456.91,-11.18C-457.57,-6.53 -463.56,2.12 -470.21,14.75C-476.86,27.39 -480.19,34.04 -482.85,44.02C-485.51,53.99 -492.82,53.99 -500.8,42.69C-508.78,31.38 -518.76,32.71 -520.76,21.41C-522.65,10.69 -532.9,13.71 -533.97,14.06C-533.99,14.07 -534.01,14.07 -534.02,14.07C-534.03,14.07 -534.03,14.08 -534.04,14.08C-534.04,14.08 -518.76,-21.16 -492.16,-43.77C-465.56,-66.39 -456.25,-65.06 -449.59,-87.67C-443.68,-107.76 -446.17,-96.35 -444,-113.16C-443.73,-115.26 -443.38,-117.81 -442.94,-120.92C-438.95,-148.86 -442.94,-139.55 -438.95,-148.86C-434.96,-158.17 -434.96,-164.82 -436.29,-170.14C-437.62,-175.46 -458.91,-214.04 -464.23,-233.99C-469.55,-253.94 -459.93,-235.36 -486.69,-254.63C-513.44,-273.89 -510.12,-250.61 -520.43,-278.21C-530.73,-305.82 -550.69,-348.38 -552.9,-367.45C-553.04,-368.69 -553.07,-369.83 -552.99,-370.89L-552.99,-370.9C-553.12,-371.68 -553.24,-372.46 -553.36,-373.26C-553.84,-376.43 -554.29,-379.75 -554.7,-383.19C-554.8,-384.05 -554.9,-384.91 -555,-385.79C-555.14,-387.04 -555.28,-388.31 -555.41,-389.59C-555.49,-390.35 -555.57,-391.11 -555.64,-391.88C-555.73,-392.81 -555.82,-393.75 -555.91,-394.7C-556.04,-396.09 -556.16,-397.5 -556.28,-398.92C-556.34,-399.71 -556.41,-400.51 -556.47,-401.31C-556.53,-402.01 -556.58,-402.7 -556.63,-403.4C-557.11,-409.72 -557.5,-416.28 -557.82,-423.02C-557.87,-424.04 -557.92,-425.06 -557.96,-426.09C-558.1,-429.17 -558.22,-432.29 -558.32,-435.43C-558.36,-436.48 -558.39,-437.53 -558.42,-438.58C-558.59,-443.84 -558.71,-449.17 -558.8,-454.54C-558.84,-456.68 -558.87,-458.83 -558.89,-460.99C-558.91,-462.07 -558.92,-463.14 -558.93,-464.22C-555.95,-459.99 -552.96,-456.27 -550.02,-453.46C-535.39,-439.5 -510.12,-400.92 -500.47,-401.59C-490.83,-402.25 -483.51,-404.91 -472.87,-393.94C-462.23,-382.96 -460.57,-385.96 -449.26,-385.63C-437.95,-385.29 -415.34,-362.01 -403.37,-351.71C-391.4,-341.4 -376.43,-339.73 -354.82,-331.09C-333.2,-322.44 -316.24,-313.8 -303.27,-307.48C-290.31,-301.16 -280.66,-303.15 -277.34,-297.17C-274.01,-291.18 -275.01,-285.53 -283.32,-290.19C-291.64,-294.84 -283.32,-285.86 -277,-281.54C-271.67,-277.89 -270.36,-278.75 -266.87,-282.92C-266.23,-283.68 -265.52,-284.55 -264.7,-285.53C-259.38,-291.85 -255.06,-290.52 -249.07,-290.85C-243.08,-291.18 -206.84,-285.2 -189.21,-294.18C-171.59,-303.15 -151.64,-305.48 -146.65,-316.46C-141.66,-327.43 -145.65,-328.43 -139,-336.08C-132.35,-343.72 -124.03,-347.72 -119.71,-356.03C-115.39,-364.34 -123.37,-368.67 -113.06,-371.66C-102.75,-374.65 -99.09,-374.98 -99.43,-382.3C-99.76,-389.62 -97.76,-391.94 -86.79,-392.28C-75.82,-392.61 -66.51,-385.96 -59.85,-394.6C-53.2,-403.25 -42.56,-406.91 -33.92,-411.9C-25.27,-416.88 -24.27,-422.2 -22.94,-427.53C-21.61,-432.85 -21.94,-430.52 -9.31,-430.85C-3.51,-431 2.49,-429.4 8.03,-427.92C9.87,-417.54 9.24,-412.37 0,-410.23" style="fill:#7fcb2b;fill-rule:nonzero;stroke:rgb(67,65,67);stroke-width:2.85px;"/>
        </g>
        <g transform="matrix(1,0,0,1,2734.87,2083.34)">
            <path d="M0,409.58C-3.99,418.89 0,409.58 -3.99,437.52C-4.43,440.63 -4.78,443.18 -5.05,445.28C-5.12,445.83 -5.19,446.36 -5.25,446.85C-5.34,447.53 -5.41,448.15 -5.48,448.73C-5.57,449.53 -5.66,450.24 -5.73,450.86C-5.77,451.2 -5.8,451.51 -5.83,451.8C-5.86,452.11 -5.89,452.39 -5.92,452.66C-5.94,452.8 -5.95,452.92 -5.96,453.05C-5.99,453.33 -6.01,453.58 -6.04,453.82C-6.07,454.11 -6.1,454.36 -6.12,454.6C-6.15,454.87 -6.17,455.11 -6.2,455.34L-6.23,455.55C-6.23,455.57 -6.24,455.6 -6.24,455.62C-6.26,455.74 -6.27,455.84 -6.29,455.95C-6.29,456.01 -6.31,456.07 -6.32,456.14C-6.35,456.31 -6.38,456.48 -6.41,456.64C-6.43,456.74 -6.45,456.85 -6.48,456.97C-6.52,457.13 -6.56,457.29 -6.61,457.47L-6.61,457.49C-6.65,457.61 -6.68,457.74 -6.72,457.88C-6.74,457.95 -6.76,458.02 -6.78,458.09C-6.88,458.43 -7,458.81 -7.14,459.27C-7.14,459.3 -7.15,459.32 -7.16,459.34C-7.28,459.73 -7.42,460.17 -7.58,460.68C-7.7,461.05 -7.83,461.47 -7.97,461.93C-8.05,462.19 -8.14,462.47 -8.23,462.77C-8.24,462.81 -8.25,462.85 -8.27,462.9C-8.38,463.24 -8.49,463.61 -8.61,463.99C-8.67,464.21 -8.74,464.44 -8.82,464.67C-8.94,465.06 -9.06,465.47 -9.19,465.9C-9.61,467.28 -10.09,468.89 -10.64,470.77C-17.3,493.38 -26.61,492.05 -53.21,514.67C-79.81,537.28 -95.09,572.52 -95.09,572.52C-95.1,572.52 -95.11,572.53 -95.11,572.53C-95.11,572.53 -88.46,585.17 -95.77,594.48C-103.09,603.79 -115.73,603.79 -117.06,615.09C-118.39,626.4 -121.71,631.72 -127.7,640.37C-129.73,643.3 -131.68,645.77 -133.76,647.67C-137.82,651.4 -142.38,652.99 -148.98,651.67C-158.96,649.68 -164.94,637.71 -174.92,650.34C-184.89,662.98 -198.2,678.94 -200.86,686.26C-203.52,693.57 -204.85,697.56 -221.47,702.89C-228.14,705.02 -237.17,705.45 -246.11,705.01C-259.44,704.37 -272.56,701.83 -277.34,700.23C-285.32,697.56 -283.33,682.93 -276.01,667.64C-268.69,652.34 -263.37,649.01 -268.03,635.71C-272.69,622.41 -262.71,613.1 -263.37,601.13C-264.04,589.16 -276.68,609.77 -282,593.81C-287.32,577.85 -276.68,582.51 -283.33,565.21C-289.98,547.92 -285.32,551.25 -286.65,540.61C-287.98,529.96 -308.6,521.98 -303.28,515.33C-297.96,508.68 -289.98,496.71 -275.35,478.09C-260.71,459.47 -264.7,452.81 -266.03,444.17C-267.36,435.52 -260.05,419.56 -277.34,416.9C-294.63,414.24 -299.29,408.92 -314.59,421.56C-329.88,434.19 -329.88,464.12 -335.87,451.48C-341.85,438.85 -345.18,432.86 -349.17,440.84C-353.16,448.82 -355.82,458.8 -370.45,464.12C-385.08,469.44 -403.71,462.79 -413.68,464.79C-423.66,466.78 -439.62,467.45 -442.95,476.76C-446.27,486.07 -452.92,504.69 -462.23,506.02C-467.32,506.75 -472.2,510.25 -476.88,512.19C-480.6,513.74 -484.2,514.31 -487.67,511.73C-487.84,511.61 -488,511.48 -488.17,511.34C-496.15,504.69 -488.84,495.38 -508.12,496.71C-523.8,497.79 -536.4,497.11 -545.92,490.74L-545.92,490.71C-545.84,488.06 -545.69,485.36 -545.49,482.61C-544.41,467.57 -541.77,450.91 -540.38,431.08C-538.16,399.6 -551.46,392.95 -538.16,378.76C-524.86,364.58 -520.87,357.04 -515.55,335.31C-510.23,313.59 -503.58,305.16 -509.34,294.52C-515.11,283.88 -525.3,278.56 -519.1,275.9C-512.89,273.24 -502.69,285.65 -498.26,281.22C-493.82,276.78 -488.5,279.44 -485.84,284.32C-483.18,289.2 -477.42,296.29 -473.87,289.64C-470.32,282.99 -477.86,279 -469.44,276.34C-461.01,273.68 -450.81,272.35 -454.36,265.7C-457.91,259.05 -463.23,257.28 -468.11,259.05C-472.98,260.82 -470.32,255.95 -476.53,256.83C-482.74,257.72 -474.31,263.04 -482.74,264.37C-491.16,265.7 -489.39,259.05 -485.4,253.28C-481.41,247.52 -475.2,245.75 -472.1,246.19C-468.99,246.63 -464.56,240.87 -465.45,233.78C-466.33,226.68 -458.35,226.24 -462.34,224.46C-466.33,222.69 -476.09,217.81 -476.09,226.24C-476.09,234.66 -480.08,238.65 -482.74,238.65C-485.4,238.65 -491.16,233.33 -489.39,223.13C-487.61,212.94 -489.39,210.72 -487.61,194.76C-485.84,178.8 -475.64,180.13 -467.22,176.58C-458.79,173.03 -455.25,168.15 -446.82,171.26C-438.4,174.36 -440.17,165.05 -445.94,161.5C-451.7,157.96 -452.14,155.3 -460.12,160.62C-468.11,165.94 -475.64,154.85 -474.31,149.53C-472.98,144.21 -464.12,136.23 -475.64,114.95C-487.17,93.67 -491.61,77.26 -492.05,65.73C-492.49,54.2 -496.04,56.86 -498.7,43.12C-501.36,29.37 -505.35,22.28 -494.71,18.73C-484.07,15.19 -478.3,14.3 -482.74,7.65C-487.17,1 -485.84,4.99 -492.94,8.98C-500.03,12.97 -504.46,21.84 -508.45,10.31C-511.57,1.28 -512.25,-3.67 -515.38,-13.9C-515.47,-14.2 -515.56,-14.5 -515.66,-14.81C-504.54,-18.69 -491.37,-23.25 -484.85,-26.71C-473.54,-32.7 -455.58,-22.72 -443.61,-30.04C-431.64,-37.35 -428.31,-28.7 -413.68,-38.68C-399.05,-48.66 -386.41,-52.65 -377.77,-55.31C-369.12,-57.97 -361.14,-61.29 -347.84,-65.95C-342.01,-67.99 -336.68,-69.27 -332.55,-70.06C-331.23,-61.31 -328.06,-49.01 -321.9,-42.01C-321.64,-41.71 -321.35,-41.42 -321.05,-41.14C-320.33,-40.47 -319.51,-39.85 -318.6,-39.29C-318.56,-39.26 -318.52,-39.23 -318.48,-39.21C-305.64,-31.28 -275.35,-33.02 -269.03,-45.66C-262.04,-59.63 -280.67,-68.94 -275.35,-79.92C-270.02,-90.89 -268.69,-106.19 -273.02,-113.5C-277.34,-120.82 -290.31,-137.11 -294.3,-148.42C-298.29,-159.73 -283.33,-155.4 -285.32,-163.05C-285.63,-164.25 -286.18,-165.09 -286.85,-165.68L-286.86,-165.69C-289,-167.55 -292.47,-166.91 -294.21,-167.28C-295.42,-167.54 -295.79,-168.28 -294.3,-170.7C-289.98,-177.68 -272.02,-177.02 -276.34,-187.66C-277.7,-190.99 -279.93,-192.92 -282.31,-194.52C-282.32,-194.52 -282.33,-194.53 -282.34,-194.54C-283.24,-195.15 -284.16,-195.71 -285.07,-196.28C-285.19,-196.35 -285.3,-196.43 -285.42,-196.51C-289.64,-199.22 -293.38,-202.37 -292.64,-211.94C-291.31,-229.23 -277.01,-230.89 -287.98,-242.53C-298.96,-254.17 -320.9,-273.12 -316.58,-285.09C-312.69,-295.87 -294.78,-293.44 -289.07,-289.21C-289.06,-289.2 -289.05,-289.19 -289.04,-289.19C-288.42,-288.73 -287.94,-288.24 -287.65,-287.75C-285.12,-283.53 -282.82,-275.25 -279.76,-274.03C-279.2,-273.8 -278.62,-273.81 -278.01,-274.12C-274.49,-275.89 -271.48,-278.42 -267.39,-275.33C-266.85,-274.92 -266.28,-274.41 -265.7,-273.79C-260.71,-268.47 -261.05,-263.15 -260.71,-258.16C-260.38,-253.17 -252.07,-249.18 -251.07,-242.53C-250.12,-236.19 -257.64,-214.71 -251.4,-212.18C-251.39,-212.18 -251.39,-212.17 -251.39,-212.17C-251.09,-212.05 -250.76,-211.97 -250.4,-211.94C-245.87,-211.56 -241.99,-211.29 -239.6,-209.36C-237.77,-207.9 -236.81,-205.47 -237.1,-201.29C-237.55,-194.83 -236.35,-188.96 -233.91,-188.2C-232.71,-187.83 -231.21,-188.69 -229.45,-191.32C-224.13,-199.3 -204.18,-198.3 -196.87,-204.29C-191.61,-208.59 -187.72,-207.56 -183.97,-204.92C-182.5,-203.88 -181.06,-202.6 -179.57,-201.29C-174.25,-196.64 -193.21,-196.97 -204.51,-188.66C-215.82,-180.34 -221.14,-168.37 -217.82,-159.39C-215.26,-152.5 -215.65,-144.63 -213.56,-145.1C-212.93,-145.24 -212.06,-146.15 -210.83,-148.09C-205.51,-156.4 -218.48,-164.05 -211.83,-165.71C-210.13,-166.13 -208.71,-165.58 -207.47,-164.6C-205,-162.68 -203.23,-159.1 -201.33,-158.3C-200.45,-157.92 -199.55,-158.14 -198.53,-159.39C-195.41,-163.23 -192.63,-163.43 -189.7,-161.24C-189.69,-161.24 -189.69,-161.24 -189.68,-161.23C-188.56,-160.39 -187.41,-159.2 -186.22,-157.73C-181.9,-152.41 -169.6,-139.44 -172.26,-128.8C-174.92,-118.16 -173.92,-117.83 -168.27,-104.19C-162.61,-90.56 -160.62,-68.28 -164.61,-54.64C-168.6,-41.01 -156.96,3.22 -155.63,18.85C-155.47,20.64 -155.39,22.23 -155.36,23.67C-155.05,34.75 -157.34,36.25 -149.98,44.79C-143.33,52.49 -131.81,77.39 -119.98,94.22C-119.97,95.3 -119.96,96.37 -119.94,97.45C-119.92,99.6 -119.89,101.76 -119.85,103.9C-119.76,109.27 -119.64,114.6 -119.47,119.86C-119.44,120.91 -119.41,121.96 -119.37,123.01C-119.27,126.15 -119.15,129.27 -119.01,132.35C-118.97,133.38 -118.92,134.4 -118.87,135.42C-118.55,142.16 -118.16,148.72 -117.68,155.04C-117.63,155.74 -117.58,156.43 -117.52,157.13C-117.46,157.93 -117.39,158.73 -117.33,159.52C-117.21,160.94 -117.09,162.35 -116.96,163.74C-116.87,164.69 -116.78,165.63 -116.69,166.56C-116.62,167.33 -116.54,168.09 -116.46,168.85C-116.33,170.13 -116.19,171.4 -116.05,172.65C-115.96,173.52 -115.86,174.39 -115.75,175.25C-115.34,178.69 -114.89,182.01 -114.41,185.18C-114.29,185.98 -114.17,186.76 -114.04,187.54L-114.04,187.55C-114.12,188.61 -114.09,189.75 -113.95,190.99C-111.74,210.06 -91.78,252.62 -81.48,280.23C-71.17,307.83 -74.49,284.55 -47.74,303.81C-20.98,323.08 -30.6,304.5 -25.28,324.45C-19.96,344.4 1.33,382.98 2.66,388.3C3.99,393.62 3.99,400.27 0,409.58" style="fill:#7fcb2b;fill-rule:nonzero;stroke:rgb(67,65,67);stroke-width:2.85px;"/>
        </g>
        <g transform="matrix(1,0,0,1,2292.48,2671.62)">
            <path d="M0,213.92C-0.45,235.21 -10.64,237.87 -11.53,247.62C-12.42,257.38 -10.2,252.94 -18.63,260.04C-27.05,267.13 -24.83,279.99 -39.02,287.53C-52.95,294.92 -46.38,276.7 -59.53,307.04C-66.23,305.22 -72.15,304.1 -75.82,305.7C-82.91,308.8 -92.22,311.46 -101.09,303.04C-101.64,302.52 -102.31,301.99 -103.07,301.46C-103.26,301.33 -103.46,301.19 -103.66,301.06C-104.51,300.5 -105.47,299.93 -106.51,299.37C-106.89,299.16 -107.29,298.95 -107.69,298.75C-108.02,298.57 -108.36,298.4 -108.7,298.23C-108.78,298.2 -108.85,298.16 -108.93,298.12C-123.22,291.04 -148.99,283.11 -156.52,272C-165.83,258.26 -164.5,256.93 -185.34,237.86C-206.17,218.8 -201.74,206.82 -223.47,205.05C-245.19,203.28 -257.16,209.04 -263.37,201.5C-269.58,193.97 -266.03,189.53 -286.43,187.76C-306.82,185.99 -341.41,146.52 -342.29,116.37C-343.18,86.22 -341.85,71.15 -328.55,62.72C-315.25,54.3 -300.17,51.64 -289.09,39.22C-278,26.81 -240.76,21.93 -232.78,6.86C-224.8,-8.22 -219.92,0.65 -204.4,-5.56C-188.88,-11.77 -185.34,-12.21 -175.14,-9.99C-164.94,-7.77 -128.58,-41.92 -120.6,-50.78C-112.62,-59.65 -100.21,-58.76 -102.87,-80.49C-103.55,-86.02 -103.71,-91.67 -103.53,-97.54C-94.01,-91.17 -81.41,-90.49 -65.73,-91.57C-46.45,-92.9 -53.76,-83.59 -45.78,-76.94C-45.61,-76.8 -45.45,-76.67 -45.28,-76.55C-45.09,-76.41 -44.91,-76.28 -44.72,-76.16C-44.69,-76.14 -44.66,-76.13 -44.64,-76.11C-44.43,-75.98 -44.23,-75.86 -44.02,-75.75C-44.01,-75.75 -44,-75.74 -43.99,-75.74C-43.77,-75.62 -43.56,-75.52 -43.34,-75.43C-43.33,-75.42 -43.31,-75.42 -43.3,-75.41C-43.12,-75.33 -42.93,-75.26 -42.75,-75.2C-42.51,-75.12 -42.27,-75.06 -42.03,-75C-41.81,-74.94 -41.6,-74.9 -41.38,-74.87C-41.19,-74.84 -40.99,-74.82 -40.79,-74.8C-40.69,-74.79 -40.58,-74.78 -40.47,-74.78C-39.65,-74.74 -38.82,-74.82 -37.99,-74.98C-37.52,-75.07 -37.06,-75.19 -36.6,-75.33C-35.9,-75.54 -35.2,-75.8 -34.49,-76.09L-31.04,-64.97C-31.04,-64.97 -43.9,-46.35 -42.57,-41.02C-41.24,-35.7 -29.27,-24.62 -37.69,-17.97C-46.12,-11.32 -50.11,-13.53 -48.78,-2.01C-47.45,9.52 -56.76,7.75 -53.65,17.06C-50.55,26.37 -40.35,27.26 -47.89,29.47C-55.43,31.69 -73.16,47.21 -74.94,57.41C-76.71,67.61 -71.39,71.15 -72.72,82.24C-74.05,93.32 -62.08,79.13 -59.86,95.98C-57.64,112.83 -48.33,106.18 -42.57,120.37C-36.8,134.56 -26.61,123.47 -29.71,137.22C-32.81,150.96 -38.14,140.76 -29.27,158.94C-20.4,177.12 0.44,192.64 0,213.92Z" style="fill:#7fcb2b;fill-rule:nonzero;stroke:rgb(67,65,67);stroke-width:2.85px;stroke-linejoin:miter;stroke-miterlimit:10;"/>
        </g>
        <g transform="matrix(1,0,0,1,3117.63,3011.65)">
            <path d="M0,-252.03C-3.99,-242.39 -16.3,-255.36 -17.63,-240.06C-18.96,-224.76 -23.28,-214.46 -32.59,-207.47C-41.9,-200.49 -49.89,-211.46 -49.22,-223.43C-48.56,-235.41 -58.53,-223.77 -54.87,-234.41C-51.22,-245.05 -37.25,-256.36 -42.9,-264C-48.56,-271.65 -53.54,-264.67 -63.19,-269.33C-72.83,-273.98 -64.52,-278.97 -81.81,-276.97C-99.1,-274.98 -144.33,-281.96 -169.6,-275.98C-194.87,-269.99 -218.48,-271.65 -231.79,-258.68C-245.09,-245.71 -256.06,-250.7 -260.05,-238.73C-264.04,-226.76 -261.71,-225.1 -274.02,-214.79C-286.32,-204.48 -281.33,-204.48 -292.64,-194.84C-303.95,-185.19 -303.28,-182.53 -310.27,-172.89C-317.25,-163.24 -318.25,-150.28 -311.93,-133.65C-305.61,-117.02 -302.28,-102.06 -293.97,-91.42C-285.66,-80.77 -291.31,-75.45 -278.01,-78.11C-264.71,-80.77 -259.72,-79.78 -259.39,-75.12C-259.05,-70.47 -272.02,-58.83 -278.34,-47.52C-284.66,-36.21 -286.65,-22.25 -288.32,-13.27C-289.98,-4.29 -294.64,-7.62 -300.29,5.35C-305.94,18.32 -309.93,22.65 -311.93,31.96C-313.92,41.27 -319.91,38.28 -320.91,51.58C-321.9,64.88 -325.23,68.54 -329.88,78.51C-334.54,88.49 -335.87,94.81 -339.86,97.47C-343.85,100.13 -347.84,104.45 -349.17,112.1C-350.5,119.75 -363.14,113.43 -379.43,134.05C-395.73,154.66 -401.38,181.93 -401.05,189.58C-401.03,190.03 -401.01,190.5 -400.99,191C-408.78,188.46 -420.5,195.86 -444.28,187.59C-474.88,176.95 -460.91,182.94 -462.24,165.64C-463.57,148.35 -462.91,129.73 -464.9,109.11C-466.9,88.49 -473.55,105.12 -475.54,71.2C-477.54,37.28 -480.2,62.56 -514.78,47.26C-549.37,31.96 -522.76,14 -514.12,-1.96C-505.47,-17.92 -508.8,-31.22 -502.81,-57.16C-496.82,-83.1 -506.14,-81.77 -509.46,-109.7C-512.79,-137.63 -508.8,-114.36 -509.46,-135.64C-510.13,-156.92 -512.12,-156.92 -517.44,-165.57C-522.76,-174.21 -525.42,-168.23 -532.07,-172.22C-538.72,-176.21 -530.08,-182.86 -522.76,-190.84C-515.45,-198.82 -518.77,-200.82 -515.45,-213.45C-512.12,-226.09 -512.79,-260.01 -516.11,-273.31C-516.11,-273.31 -516.26,-276.02 -516.52,-280.64C-514.44,-282.54 -512.49,-285.01 -510.46,-287.94C-504.47,-296.59 -501.15,-301.91 -499.82,-313.22C-498.49,-324.52 -485.85,-324.52 -478.53,-333.83C-471.22,-343.14 -477.87,-355.78 -477.87,-355.78C-477.87,-355.78 -477.86,-355.79 -477.85,-355.79C-477.84,-355.79 -477.84,-355.8 -477.83,-355.8C-477.82,-355.8 -477.8,-355.8 -477.78,-355.81C-476.71,-356.16 -466.46,-359.18 -464.57,-348.46C-462.57,-337.16 -452.59,-338.49 -444.61,-327.18C-436.63,-315.88 -429.32,-315.88 -426.66,-325.85C-424,-335.83 -420.67,-342.48 -414.02,-355.12C-407.37,-367.75 -401.38,-376.4 -400.72,-381.05C-400.05,-385.71 -393.4,-387.7 -389.41,-380.39C-385.42,-373.07 -370.12,-373.74 -364.8,-371.08C-359.48,-368.42 -355.49,-373.07 -354.16,-381.72C-352.83,-390.37 -348.18,-403.67 -337.54,-410.98C-326.89,-418.3 -325.56,-424.95 -322.9,-422.95C-320.24,-420.96 -298.96,-423.95 -294.97,-417.97C-290.98,-411.98 -276.02,-411.98 -270.03,-424.95C-264.04,-437.92 -258.06,-439.91 -227.13,-447.89C-216.16,-440.25 -207.18,-434.26 -191.22,-424.28C-175.26,-414.31 -168.27,-415.31 -167.28,-424.28C-166.28,-433.26 -159.3,-429.27 -150.32,-422.29C-141.34,-415.31 -135.35,-417.3 -140.34,-406.33C-145.33,-395.35 -127.37,-415.31 -121.39,-387.37C-115.4,-359.44 -113.4,-375.4 -102.43,-353.45C-91.46,-331.51 -88.46,-349.46 -72.5,-331.51C-56.54,-313.55 -55.54,-326.52 -35.59,-313.55C-21.39,-304.32 -26.9,-326.92 -21.9,-322.73C-23.59,-320.34 -24.83,-317.46 -24.61,-313.55C-23.95,-301.58 -33.92,-280.63 -22.95,-269.99C-11.98,-259.35 3.99,-261.68 0,-252.03" style="fill:#7fcb2b;fill-rule:nonzero;stroke:rgb(67,65,67);stroke-width:2.67px;"/>
        </g>
        <g transform="matrix(1,0,0,1,3308.84,2640.15)">
            <path d="M0,-364.71C-10.64,-360.39 -9.65,-352.41 -15.3,-346.09C-20.95,-339.77 -37.58,-341.77 -41.9,-337.44C-46.23,-333.12 -53.54,-327.47 -49.22,-325.14C-44.9,-322.81 -33.59,-339.11 -28.93,-333.12C-24.28,-327.14 -49.88,-308.51 -48.22,-296.21C-46.56,-283.91 -54.54,-272.6 -62.19,-264.29C-69.84,-255.97 -66.84,-257.63 -61.52,-246C-56.2,-234.36 -71.83,-230.7 -73.83,-222.72C-75.82,-214.74 -65.85,-209.75 -66.18,-202.1C-66.51,-194.45 -77.15,-195.78 -77.82,-184.48C-78.48,-173.17 -71.83,-169.51 -71.5,-163.86C-71.17,-158.2 -80.48,-147.23 -81.14,-145.24C-81.81,-143.24 -85.8,-134.59 -79.15,-128.28C-72.5,-121.96 -76.82,-117.3 -83.47,-110.32C-90.12,-103.34 -91.78,-104.33 -91.78,-89.04C-91.78,-73.74 -107.75,-64.43 -123.38,-55.78C-139.01,-47.14 -133.02,-38.16 -153.64,-32.5C-174.25,-26.85 -191.55,-33.5 -194.87,-21.86C-198.2,-10.22 -190.22,-17.54 -188.55,-8.89C-186.89,-0.25 -195.2,-4.57 -201.52,8.73C-207.84,22.03 -207.51,27.02 -205.51,35.33C-204.17,40.93 -209.62,43.82 -213.11,48.77C-218.11,44.58 -212.6,67.18 -226.8,57.95C-246.75,44.98 -247.75,57.95 -263.71,39.99C-279.67,22.04 -282.67,39.99 -293.64,18.05C-304.61,-3.9 -306.61,12.06 -312.6,-15.87C-318.58,-43.81 -336.54,-23.85 -331.55,-34.83C-326.56,-45.8 -332.55,-43.81 -341.53,-50.79C-350.51,-57.77 -357.49,-61.76 -358.49,-52.78C-359.48,-43.81 -366.47,-42.81 -382.43,-52.78C-398.39,-62.76 -407.37,-68.75 -418.34,-76.39C-387.42,-84.38 -395.4,-91.36 -390.41,-97.34C-385.42,-103.33 -384.42,-129.27 -375.44,-142.24C-366.47,-155.21 -335.54,-153.21 -327.56,-158.2C-319.58,-163.19 -313.59,-192.12 -309.6,-199.1C-305.61,-206.09 -282.67,-216.06 -266.7,-220.05C-250.74,-224.04 -254.73,-242 -253.73,-251.98C-252.74,-261.95 -257.72,-266.94 -244.76,-272.93C-231.79,-278.91 -218.82,-243 -208.84,-241C-198.87,-239.01 -178.91,-284.9 -171.93,-306.85C-164.95,-328.79 -150.98,-328.79 -145.99,-342.76C-141,-356.73 -149.98,-351.74 -155.97,-360.72C-161.95,-369.7 -161.95,-388.65 -160.96,-398.63C-159.96,-408.6 -147.99,-405.61 -135.02,-408.6C-125.9,-410.71 -125.17,-415.77 -126.92,-425.88C-126.61,-425.8 -126.3,-425.71 -125.99,-425.63C-119.45,-423.88 -113.55,-422.29 -109.41,-423.91C-101.76,-426.9 -104.09,-431.89 -94.11,-426.9C-84.14,-421.91 -73.83,-419.58 -66.51,-420.91C-59.2,-422.24 -65.51,-417.59 -66.18,-413.93C-66.84,-410.27 -60.19,-406.95 -58.53,-402.62C-56.87,-398.3 -66.18,-392.31 -55.87,-391.65C-45.56,-390.98 -39.24,-395.31 -27.94,-388.32C-16.63,-381.34 -13.64,-375.35 -5.32,-374.02C2.99,-372.69 10.64,-369.04 0,-364.71" style="fill:#7fcb2b;fill-rule:nonzero;stroke:rgb(67,65,67);stroke-width:2.85px;"/>
        </g>
        <g transform="matrix(1,0,0,1,2401.66,1738.14)">
            <path d="M0,265.28C-0.24,266.36 -0.09,270.19 0.66,275.14C-3.47,275.93 -8.8,277.21 -14.63,279.25C-27.93,283.91 -35.91,287.23 -44.56,289.89C-53.2,292.55 -65.84,296.54 -80.47,306.52C-95.1,316.5 -98.43,307.85 -110.4,315.16C-122.37,322.48 -140.33,312.5 -151.64,318.49C-158.3,322.02 -171.9,326.71 -183.17,330.64C-184.03,327.8 -185.09,324.56 -186.44,320.71C-192.65,302.97 -199.74,309.62 -202.4,294.1C-205.06,278.59 -201.07,274.15 -207.28,266.17C-213.49,258.19 -219.7,254.64 -211.72,250.65C-203.73,246.66 -196.2,249.77 -187.33,248.88C-178.46,247.99 -174.03,256.42 -178.02,261.74C-182.01,267.06 -188.22,267.06 -180.23,275.48C-172.25,283.91 -173.58,287.9 -171.37,297.21C-169.15,306.52 -165.16,311.4 -163.39,302.97C-161.61,294.55 -164.27,293.66 -158.07,289.23C-151.86,284.79 -162.06,285.68 -165.16,283.02C-168.26,280.36 -166.05,279.47 -154.96,273.26C-143.88,267.06 -142.1,265.28 -141.66,271.05C-141.22,276.81 -142.99,283.46 -139.44,274.15C-135.9,264.84 -151.41,266.61 -128.8,259.52C-106.19,252.43 -117.72,249.32 -122.59,247.1C-127.47,244.89 -132.35,242.23 -135.45,236.02C-138.56,229.81 -138.56,226.71 -143.88,232.03C-149.2,237.35 -152.74,236.02 -154.52,230.7C-156.29,225.38 -163.39,221.83 -149.2,216.51C-135.01,211.19 -130.13,223.61 -131.02,215.18C-131.91,206.76 -138.56,201.88 -160.73,209.86C-182.9,217.84 -191.32,214.74 -196.64,226.71C-201.96,238.68 -207.72,238.24 -213.05,241.34C-218.37,244.44 -227.68,258.19 -229.89,246.22C-232.11,234.25 -235.21,182.81 -242.31,167.74C-249.4,152.66 -255.61,159.76 -260.93,140.25C-266.25,120.74 -271.57,110.54 -276.45,102.12C-281.33,93.69 -297.73,71.52 -303.94,58.22C-310.15,44.92 -315.91,43.15 -314.14,35.17C-312.36,27.18 -312.81,24.97 -309.26,23.64C-305.71,22.31 -314.58,41.82 -305.27,38.71C-295.96,35.61 -302.61,30.73 -297.73,27.63C-292.86,24.52 -287.53,31.62 -285.32,40.04C-283.1,48.47 -276.01,49.35 -272.9,58.22C-269.8,67.09 -274.23,67.98 -267.58,68.86C-260.93,69.75 -257.83,69.75 -258.27,75.07C-258.71,80.39 -261.37,93.25 -254.72,95.47C-248.07,97.68 -235.66,100.79 -238.76,91.92C-241.87,83.05 -248.52,83.49 -241.42,76.4C-234.33,69.31 -229.45,66.2 -236.1,60C-242.75,53.79 -237.43,48.91 -239.65,43.59C-241.87,38.27 -240.54,27.18 -239.21,17.43C-238.04,8.86 -236.52,5.76 -238.59,3.93C-238.87,3.68 -239.22,3.45 -239.65,3.24C-243.2,1.47 -247.63,0.58 -246.3,4.57C-244.97,8.56 -246.3,9.45 -252.95,13C-256.79,15.04 -259.89,14.73 -262.42,13.24C-263.84,12.17 -265.07,10.75 -266.14,9.22C-267.29,7.57 -268.7,6.23 -270.19,5.35C-272.94,3.29 -276.14,2.8 -278.67,5.01C-280.29,6.44 -282.76,6.46 -284.57,5.55C-286.02,4.33 -286.55,2.3 -284.76,-0.09C-280.77,-5.41 -283.43,-8.96 -282.1,-12.95C-281.58,-14.52 -279.61,-15.96 -277.68,-17.5C-277.37,-17.75 -277.06,-18 -276.76,-18.25C-269.84,-18.6 -260.63,-19.54 -252.73,-22.03C-240.09,-26.02 -227.46,-37.99 -194.87,-49.3C-179.09,-54.78 -172.35,-60.41 -168.85,-65.36C-167.17,-62.45 -165.27,-59.26 -163.23,-56.02C-156.24,-44.87 -147.66,-33.21 -141.33,-30.68C-129.69,-26.02 -122.37,-25.02 -126.7,-16.71C-131.02,-8.4 -141.33,-14.38 -140.66,-9.06C-140,-3.74 -132.35,-3.74 -126.03,1.91C-119.71,7.56 -104.08,9.23 -111.07,10.56C-118.05,11.89 -137.67,10.56 -140.33,11.89C-142.99,13.22 -150.97,27.52 -141.99,27.18C-133.01,26.85 -140.33,60.11 -145.32,53.46C-150.31,46.8 -146.32,43.48 -150.97,42.15C-155.63,40.82 -151.97,30.18 -155.63,29.18C-159.28,28.18 -157.29,39.49 -158.29,44.14C-159.28,48.8 -151.64,55.12 -154.96,58.11C-158.29,61.1 -160.28,58.11 -158.29,66.09C-156.29,74.07 -167.93,83.38 -163.61,87.04C-159.28,90.7 -155.29,97.35 -143.99,92.03C-132.68,86.71 -124.37,78.4 -122.71,85.71C-121.04,93.03 -126.36,100.34 -135.01,100.34C-143.66,100.34 -154.63,99.68 -151.64,109.32C-148.64,118.97 -147.65,129.27 -149.31,135.26C-150.97,141.25 -146.65,159.2 -138,164.52C-129.36,169.84 -135.67,177.16 -144.32,171.51C-152.97,165.85 -163.61,150.22 -171.26,150.56C-178.9,150.89 -178.57,152.22 -175.58,155.21C-172.59,158.21 -170.92,160.53 -175.25,164.52C-179.57,168.51 -176.24,163.53 -174.25,172.84C-172.25,182.15 -173.58,192.79 -168.6,186.8C-163.61,180.82 -156.62,172.17 -148.31,178.16C-140,184.14 -136.34,186.8 -129.36,182.81C-122.37,178.82 -119.38,197.45 -114.39,192.79C-109.4,188.13 -115.39,183.15 -109.4,184.48C-103.42,185.81 -92.11,203.76 -86.46,202.43C-80.8,201.1 -84.8,198.11 -80.14,191.46C-75.48,184.81 -77.48,184.14 -68.17,190.79C-58.86,197.45 -57.86,203.76 -58.19,210.08C-58.52,216.4 -51.87,212.74 -45.56,210.75C-39.24,208.75 -42.9,217.4 -34.58,213.41C-26.27,209.42 -28.6,204.76 -22.61,212.74C-16.62,220.72 -21.61,225.05 -10.97,227.37C-0.33,229.7 5.32,242.34 3.66,249.32C2,256.31 0.67,262.29 0,265.28" style="fill:#7fcb2b;fill-rule:nonzero;stroke:rgb(67,65,67);stroke-width:2.85px;"/>
        </g>
        <g transform="matrix(1,0,0,1,2238.74,1111.38)">
            <path d="M0,570.3L-0.31,570.74C-2.35,567.5 -4.25,564.31 -5.93,561.4C-9.43,566.35 -16.17,571.98 -31.95,577.46C-64.54,588.77 -77.17,600.74 -89.81,604.73C-97.71,607.22 -106.92,608.16 -113.84,608.51C-111.27,606.33 -109.24,603.88 -111.64,600.51C-116.08,594.3 -118.74,590.31 -111.2,588.98C-103.66,587.65 -102.33,597.85 -98.34,595.19C-94.35,592.53 -107.65,587.65 -98.78,579.23C-89.92,570.8 -82.38,554.84 -87.7,554.4C-93.02,553.96 -99.23,579.23 -104.99,576.12C-110.76,573.02 -101.89,573.02 -118.29,563.71C-134.7,554.4 -132.93,541.54 -136.92,548.63C-140.91,555.73 -123.17,565.48 -120.07,573.02C-116.96,580.56 -121.84,592.97 -125.39,589.87C-128.94,586.77 -132.04,589.43 -144.45,573.91C-156.87,558.39 -157.76,556.17 -163.96,557.5C-170.17,558.83 -175.05,566.37 -183.47,557.5C-191.9,548.63 -199.88,537.55 -198.99,543.76C-198.1,549.96 -166.18,577.9 -165.74,586.32C-165.29,594.75 -155.1,588.98 -152.88,595.63C-150.66,602.28 -152.88,605.83 -150.22,610.27C-147.56,614.7 -140.02,621.79 -145.78,625.78C-151.55,629.77 -148.89,636.87 -167.51,637.76C-186.13,638.64 -181.26,634.21 -188.35,612.93C-195.44,591.64 -218.94,556.62 -229.58,538.44C-240.23,520.26 -268.6,471.04 -278.8,455.52C-289,440 -310.72,413.84 -319.15,400.99C-327.57,388.13 -366.59,346.45 -367.03,338.47C-367.48,330.49 -363.49,338.91 -360.83,324.28C-358.17,309.65 -352.85,296.79 -346.2,295.02C-339.54,293.24 -328.9,304.33 -326.24,299.45C-323.58,294.57 -331.12,287.48 -323.14,291.47C-315.16,295.46 -321.81,290.14 -318.26,284.82C-314.71,279.5 -302.74,275.95 -300.97,270.19C-299.2,264.42 -296.54,254.22 -299.64,258.66C-302.74,263.09 -302.3,269.3 -309.39,264.42C-316.49,259.55 -325.8,238.26 -325.8,244.91C-325.8,251.56 -312.05,263.98 -315.6,269.3C-319.15,274.62 -320.92,284.38 -327.57,281.72C-334.22,279.05 -344.87,272.85 -341.76,281.72C-338.66,290.58 -343.09,290.58 -353.29,290.58C-363.49,290.58 -363.04,291.91 -363.04,302.11C-363.04,312.31 -365.7,319.85 -366.59,323.39C-367.48,326.94 -375.9,327.83 -380.34,318.96C-384.77,310.09 -409.16,289.7 -406.94,281.72C-404.72,273.73 -393.64,261.76 -398.07,257.77C-402.51,253.78 -404.72,273.29 -410.04,270.19C-415.36,267.08 -413.59,259.1 -416.69,256C-419.8,252.89 -429.11,247.13 -426.01,244.91C-422.9,242.7 -428.22,232.5 -437.09,223.19C-445.96,213.88 -462.36,210.33 -453.05,205.01C-443.74,199.69 -430,207.67 -425.12,194.37C-420.24,181.07 -413.15,158.9 -433.1,130.52C-453.05,102.14 -499.16,23.66 -515.57,5.48C-531.98,-12.69 -555.47,-23.34 -556.36,-28.66C-557.25,-33.98 -557.25,-40.18 -562.13,-40.63C-567,-41.07 -562.57,-45.06 -561.24,-50.83C-559.91,-56.59 -567,-63.68 -558.13,-61.47C-549.27,-59.25 -527.1,-44.62 -517.34,-51.27C-507.59,-57.92 -509.81,-67.23 -499.16,-63.24C-488.52,-59.25 -478.77,-58.36 -470.34,-61.91C-461.92,-65.46 -453.61,-68.34 -453.61,-68.34C-450.61,-61.02 -456.6,-66.01 -459.26,-55.7C-461.92,-45.39 -455.6,-32.43 -464.58,-29.77C-473.56,-27.1 -487.19,-42.4 -488.19,-38.08C-489.19,-33.76 -478.55,-24.44 -486.86,-25.11C-495.17,-25.77 -503.82,-30.43 -501.49,-26.11C-499.16,-21.78 -497.17,-18.46 -497.5,-15.13C-497.83,-11.81 -487.86,-26.11 -486.2,-22.12C-484.53,-18.13 -492.85,2.16 -486.53,-4.49C-480.21,-11.14 -482.2,-5.49 -474.56,1.16C-466.91,7.81 -472.89,-11.14 -473.56,-16.46C-474.22,-21.78 -469.9,-23.11 -466.58,-17.79C-463.25,-12.47 -462.25,16.13 -452.61,31.75C-442.96,47.38 -414.37,67.34 -418.02,73.66C-421.68,79.97 -434.98,57.03 -434.98,65.01C-434.98,72.99 -440.3,73.32 -427,83.3C-413.7,93.28 -414.7,100.59 -407.38,101.26C-400.07,101.92 -388.76,99.26 -388.1,105.91C-387.43,112.56 -397.07,119.55 -398.4,131.18C-399.73,142.82 -396.74,157.79 -384.11,147.48C-371.47,137.17 -362.49,137.5 -372.47,119.21C-382.44,100.92 -390.09,97.93 -382.77,94.61C-375.46,91.28 -357.83,94.61 -355.17,84.96C-352.51,75.32 -353.84,71.33 -347.53,71.33C-341.21,71.33 -347.53,78.98 -347.86,83.3C-348.19,87.62 -345.53,87.62 -340.87,82.63C-336.22,77.65 -338.55,84.63 -338.21,88.29C-337.88,91.94 -327.24,86.29 -332.89,96.6C-338.55,106.91 -357.83,95.94 -360.49,106.58C-363.16,117.22 -373.46,129.19 -346.53,135.84C-319.59,142.49 -315.93,137.17 -310.95,144.49C-305.96,151.8 -316.27,133.85 -315.93,125.86C-315.6,117.88 -315.93,119.21 -298.97,124.53C-282.02,129.85 -282.02,143.49 -276.36,134.51C-270.71,125.53 -267.05,124.2 -265.06,130.19C-263.06,136.17 -263.06,137.5 -256.08,143.16C-249.09,148.81 -251.75,152.8 -259.73,162.78C-267.72,172.75 -259.07,181.73 -252.42,170.76C-245.77,159.78 -261.4,149.47 -240.45,146.48C-219.5,143.49 -228.14,152.13 -217.5,152.47C-206.86,152.8 -205.53,160.45 -202.54,169.09C-199.54,177.74 -205.2,185.06 -187.91,189.71C-170.61,194.37 -157.64,188.38 -153.32,197.36C-149,206.34 -145.34,209.66 -150.99,210.66C-156.65,211.66 -156.98,219.31 -162.3,216.98C-167.62,214.65 -171.28,196.03 -177.26,199.36C-183.25,202.68 -165.63,208.33 -171.61,214.32C-177.6,220.31 -189.57,209.66 -186.91,218.64C-184.25,227.62 -169.95,214.32 -164.63,224.63C-159.31,234.94 -160.97,238.6 -156.65,249.24C-152.32,259.88 -149,253.56 -150,263.54C-150.99,273.51 -150.33,280.5 -148.33,273.84C-146.34,267.19 -143.68,264.87 -137.69,268.52C-131.71,272.18 -137.69,256.89 -132.7,259.88C-127.72,262.87 -115.08,272.85 -117.07,264.2C-119.07,255.56 -143.68,261.21 -145.34,254.22C-147,247.24 -143.35,245.91 -146.67,240.59C-150,235.27 -145.67,239.93 -140.35,242.25C-135.03,244.58 -129.38,248.24 -126.72,242.92C-124.06,237.6 -121.07,238.26 -114.08,234.27C-107.1,230.28 -97.45,230.95 -97.45,222.97C-97.45,214.99 -91.14,213.99 -90.14,217.98C-89.14,221.97 -94.13,227.62 -94.13,238.6C-94.13,249.57 -77.83,264.53 -74.18,270.85C-70.52,277.17 -66.53,291.14 -73.51,286.48C-80.5,281.83 -85.48,271.52 -85.82,276.17C-86.15,280.83 -75.17,286.81 -76.84,295.79C-78.5,304.77 -73.84,309.76 -69.85,305.44C-65.86,301.11 -60.21,299.45 -59.55,304.77C-58.88,310.09 -59.88,314.75 -53.23,322.4C-46.58,330.04 -44.58,337.36 -50.23,337.69C-55.89,338.03 -53.23,343.01 -42.59,347.34C-31.94,351.66 -29.62,356.32 -30.61,362.63C-31.61,368.95 -35.6,380.92 -39.93,377.27C-44.25,373.61 -52.23,370.61 -54.56,375.93C-56.88,381.26 -42.59,373.61 -40.59,382.92C-38.59,392.23 -33.27,397.55 -30.61,406.2C-27.95,414.84 -27.95,433.46 -23.63,441.45C-19.31,449.43 -21.3,461.73 -33.94,455.08C-46.58,448.43 -51.23,439.45 -55.55,428.48C-59.88,417.5 -58.21,436.12 -74.18,425.48C-90.14,414.84 -98.12,410.85 -97.45,417.17C-96.79,423.49 -85.82,429.14 -89.81,435.13C-93.8,441.11 -100.12,454.75 -91.14,448.1C-82.16,441.45 -81.49,441.78 -72.85,444.11C-64.2,446.43 -65.53,439.45 -60.54,443.11C-55.55,446.77 -50.23,445.1 -50.23,451.09C-50.23,457.07 -62.21,478.03 -53.89,493.99C-45.58,509.95 -14.32,543.87 -11.33,550.19C-10.43,552.07 -8.09,556.56 -4.93,562.06C-3.44,564.64 -1.78,567.44 0,570.3Z" style="fill:#7fcb2b;fill-rule:nonzero;stroke:rgb(67,65,67);stroke-width:2.85px;stroke-linejoin:miter;stroke-miterlimit:10;"/>
        </g>
        <g transform="matrix(1,0,0,1,2716.69,2616.38)">
            <path d="M0,591.76C-0.01,591.96 -0.01,592.17 -0.02,592.38C-0.11,595.19 -0.38,598.16 -1.02,600.85C-1.08,601.09 -1.14,601.34 -1.21,601.58C-1.69,603.37 -2.34,605.02 -3.23,606.39C-3.33,606.54 -3.43,606.69 -3.53,606.83C-3.74,607.12 -3.95,607.39 -4.18,607.65C-4.29,607.77 -4.41,607.9 -4.53,608.02C-5.5,609.02 -6.68,609.74 -8.09,610.12C-16.74,612.45 -21.06,602.14 -29.04,613.12C-37.02,624.09 -44,619.44 -47.99,630.74C-51.99,642.05 -52.98,643.38 -60.3,646.04C-67.61,648.7 -63.29,652.69 -71.61,663C-74.68,666.8 -76.79,669.29 -78.8,671.65C-81.42,674.76 -83.85,677.64 -87.97,683C-90.07,682.88 -92.26,682.75 -94.55,682.62C-129.8,680.63 -144.44,675.97 -150.42,685.28C-156.41,694.59 -165.05,691.93 -176.36,694.59C-187.67,697.25 -176.36,710.56 -192.99,705.24C-209.61,699.92 -204.96,710.56 -218.92,708.56C-232.89,706.57 -222.92,712.55 -233.56,689.94C-244.2,667.33 -254.84,681.96 -261.49,689.94C-268.14,697.92 -254.17,715.88 -275.46,697.92C-296.74,679.96 -286.76,675.97 -303.39,678.63C-320.02,681.29 -324.67,677.3 -334.65,683.95C-344.63,690.6 -360.59,677.3 -370.56,683.29C-379.89,688.88 -387.48,690.99 -411.26,671.12C-406.14,660.53 -402,650.68 -401.15,644.71C-399.89,635.9 -394.63,619.22 -390,602.31C-386.47,589.44 -383.3,576.44 -382.53,566.67C-380.76,544.06 -373.22,546.28 -378.98,517.46C-384.75,488.64 -374.11,476.66 -397.16,445.18C-420.22,413.7 -405.14,417.25 -428.2,395.52C-451.26,373.8 -450.81,370.25 -464.11,367.59C-470.54,366.3 -477.48,363.99 -483.74,362.28C-470.59,331.94 -477.16,350.16 -463.23,342.77C-449.04,335.23 -451.26,322.37 -442.84,315.28C-434.41,308.18 -436.63,312.62 -435.74,302.86C-434.85,293.11 -424.66,290.45 -424.21,269.16C-423.77,247.88 -444.61,232.36 -453.48,214.18C-462.35,196 -457.02,206.2 -453.92,192.46C-450.82,178.71 -461.01,189.8 -466.78,175.61C-472.54,161.42 -481.85,168.07 -484.07,151.22C-486.29,134.37 -498.26,148.56 -496.93,137.48C-495.6,126.39 -500.92,122.85 -499.15,112.65C-497.37,102.45 -479.64,86.93 -472.1,84.71C-464.56,82.5 -474.76,81.61 -477.86,72.3C-480.97,62.99 -471.66,64.76 -472.99,53.23C-474.32,41.71 -470.33,43.92 -461.9,37.27C-453.48,30.62 -465.45,19.54 -466.78,14.22C-468.11,8.89 -455.25,-9.73 -455.25,-9.73L-458.7,-20.85C-454.02,-22.79 -449.14,-26.29 -444.05,-27.02C-434.74,-28.35 -428.09,-46.97 -424.77,-56.28C-421.44,-65.59 -405.48,-66.26 -395.5,-68.25C-385.53,-70.25 -366.9,-63.6 -352.27,-68.92C-337.64,-74.24 -334.98,-84.22 -330.99,-92.2C-327,-100.18 -323.67,-94.19 -317.69,-81.56C-311.7,-68.92 -311.7,-98.85 -296.41,-111.48C-281.11,-124.12 -276.45,-118.8 -259.16,-116.14C-241.87,-113.48 -249.18,-97.52 -247.85,-88.87C-246.52,-80.23 -242.53,-73.57 -257.17,-54.95C-271.8,-36.33 -279.78,-24.36 -285.1,-17.71C-290.42,-11.06 -269.8,-3.08 -268.47,7.57C-267.14,18.21 -271.8,14.88 -265.15,32.17C-258.5,49.47 -269.14,44.81 -263.82,60.77C-258.5,76.73 -245.86,56.12 -245.19,68.09C-244.53,80.06 -254.51,89.37 -249.85,102.67C-245.19,115.97 -250.51,119.3 -257.83,134.6C-265.15,149.89 -267.14,164.52 -259.16,167.19C-254.38,168.79 -241.26,171.33 -227.93,171.97C-224.56,172.14 -221.18,172.18 -217.92,172.06C-217.15,172.03 -216.38,171.99 -215.62,171.93C-215.14,171.9 -214.67,171.87 -214.21,171.83C-213.09,171.74 -211.99,171.62 -210.91,171.48C-210.81,171.46 -210.7,171.45 -210.6,171.44C-209.95,171.35 -209.31,171.25 -208.68,171.14C-206.76,170.81 -204.95,170.38 -203.29,169.85C-186.67,164.52 -185.34,160.53 -182.68,153.22C-180.02,145.9 -166.71,129.94 -156.74,117.3C-146.76,104.67 -140.78,116.64 -130.8,118.63C-124.2,119.95 -119.64,118.36 -115.58,114.63C-115.32,119.25 -115.17,121.96 -115.17,121.96C-111.85,135.26 -111.18,169.18 -114.51,181.82C-117.83,194.45 -114.51,196.45 -121.82,204.43C-129.14,212.41 -137.78,219.06 -131.13,223.05C-124.48,227.04 -121.82,221.06 -116.5,229.7C-111.18,238.35 -109.19,238.35 -108.52,259.63C-107.86,280.91 -111.85,257.64 -108.52,285.57C-105.2,313.5 -95.88,312.17 -101.87,338.11C-107.86,364.05 -104.53,377.35 -113.18,393.31C-121.82,409.27 -148.43,427.23 -113.84,442.53C-79.26,457.83 -76.6,432.55 -74.6,466.47C-72.61,500.39 -65.96,483.76 -63.96,504.38C-61.97,525 -62.63,543.62 -61.3,560.91C-59.97,578.21 -73.94,572.22 -43.34,582.86C-19.56,591.13 -7.84,583.73 -0.05,586.27C0.01,587.91 0.05,589.79 0,591.76" style="fill:#7fcb2b;fill-rule:nonzero;stroke:rgb(67,65,67);stroke-width:2.85px;"/>
        </g>
        <g transform="matrix(1,0,0,1,2622.14,3592.97)">
            <path d="M0,-293.97C2.29,-293.84 4.48,-293.71 6.58,-293.59C5.33,-291.97 3.93,-290.13 2.33,-287.99C-8.65,-273.35 -15.63,-259.72 -16.29,-250.41C-16.96,-241.1 -26.27,-241.1 -27.27,-230.79C-28.27,-220.48 -40.24,-212.5 -49.22,-202.86C-58.2,-193.21 -59.86,-187.56 -59.86,-175.92C-59.86,-164.28 -79.15,-146.32 -83.8,-144.33C-88.46,-142.33 -95.11,-145.99 -94.77,-132.36C-94.44,-118.72 -112.4,-113.4 -123.37,-99.1C-134.35,-84.8 -219.26,-35.25 -225.46,-26.39C-231.67,-17.52 -240.98,-7.32 -248.52,-4.66C-256.06,-2 -268.47,-5.1 -274.24,-0.23C-280,4.65 -290.64,15.29 -298.18,-1.11C-305.72,-17.52 -304.83,-22.4 -306.16,-39.69C-307.49,-56.98 -308.38,-59.2 -318.57,-69.84C-328.77,-80.48 -326.56,-83.58 -345.18,-75.6C-363.8,-67.62 -375.33,-57.87 -382.87,-61.86C-390.4,-65.85 -403.71,-80.04 -398.83,-90.68C-393.95,-101.32 -380.21,-102.21 -387.74,-112.85C-395.28,-123.49 -412.57,-131.47 -415.68,-123.49C-418.78,-115.51 -411.24,-102.65 -418.78,-99.55C-426.32,-96.44 -439.18,-81.81 -444.94,-91.56C-450.7,-101.32 -469.77,-107.08 -458.24,-118.17C-446.71,-129.25 -425.43,-136.35 -417.89,-151.42C-410.36,-166.5 -411.24,-177.58 -401.93,-172.7C-392.62,-167.83 -387.3,-170.49 -389.96,-177.58C-392.62,-184.68 -397.94,-181.57 -382.42,-201.97C-366.9,-222.36 -358.92,-223.25 -356.71,-238.77C-354.49,-254.29 -345.62,-248.97 -339.41,-261.83C-335.6,-269.74 -324.9,-288.55 -316.71,-305.47C-292.93,-285.6 -285.34,-287.71 -276.01,-293.3C-266.04,-299.29 -250.08,-285.99 -240.1,-292.64C-230.12,-299.29 -225.47,-295.3 -208.84,-297.96C-192.21,-300.62 -202.19,-296.63 -180.91,-278.67C-159.62,-260.71 -173.59,-278.67 -166.94,-286.65C-160.29,-294.63 -149.65,-309.26 -139.01,-286.65C-128.37,-264.04 -138.34,-270.02 -124.37,-268.03C-110.41,-266.03 -115.06,-276.67 -98.44,-271.35C-81.81,-266.03 -93.12,-279.34 -81.81,-282C-70.5,-284.66 -61.86,-282 -55.87,-291.31C-49.89,-300.62 -35.25,-295.96 0,-293.97" style="fill:#7fcb2b;fill-rule:nonzero;stroke:rgb(67,65,67);stroke-width:2.85px;"/>
        </g>
        <g transform="matrix(1,0,0,1,1951.73,3308.46)">
            <path d="M0,-16.77C9.98,-27.41 11.31,-39.39 15.3,-35.4C19.29,-31.4 12.64,-18.77 19.29,-20.76C22.34,-21.68 26.52,-19.23 29.67,-17.34C33.38,-15.12 35.67,-13.68 33.04,-19.43C32.78,-20.01 32.49,-20.54 32.2,-21.03C27.06,-29.62 17.95,-25.93 25.5,-30.96C29.87,-33.87 33.44,-34.52 35.63,-35.61C37.44,-36.51 38.31,-37.7 37.91,-40.72C37.03,-47.37 41.24,-50.03 41.24,-50.03C46.56,-42.05 39.91,-30.74 39.91,-23.42C39.91,-16.11 51.21,-24.75 49.22,-18.1C47.22,-11.45 37.25,-15.44 32.59,-5.47C27.94,4.51 35.92,11.16 30.6,15.15C25.28,19.14 25.94,7.17 21.95,10.5C17.96,13.82 21.29,21.8 9.98,27.79C1.99,32.02 -3.35,33.26 -2.73,29.86C-2.48,28.46 -1.2,26.25 1.33,23.13C2.69,21.45 3.85,20.06 4.82,18.86C6.43,16.87 7.51,15.41 8.12,14.05C9.49,10.97 8.43,8.45 5.32,1.85C0,-9.46 -9.97,-6.13 0,-16.77" style="fill:#7fcb2b;fill-rule:nonzero;"/>
        </g>
        <g transform="matrix(1,0,0,1,1907.6,3636.96)">
            <path d="M0,-238.29C-16.3,-214.53 -28.81,-196.29 -29.69,-194.96C-32.35,-190.97 -36.34,-177.67 -44.32,-168.36C-52.3,-159.05 -46.98,-161.71 -56.29,-148.41C-65.61,-135.11 -74.92,-129.79 -77.58,-121.81C-80.24,-113.82 -86.89,-105.84 -86.89,-105.84C-86.89,-105.84 -108.17,-109.83 -117.48,-93.87C-126.79,-77.91 -156.06,-30.02 -173.35,-6.08C-183.95,8.6 -192.55,20.77 -199.76,33.21C-200.9,35.17 -202.01,37.14 -203.08,39.13C-203.53,39.96 -203.97,40.78 -204.4,41.62C-204.54,41.89 -204.68,42.16 -204.82,42.43C-205.26,43.27 -205.69,44.12 -206.11,44.98C-206.69,46.14 -207.26,47.31 -207.81,48.49C-208.23,49.35 -208.63,50.22 -209.03,51.09C-209.61,52.36 -210.18,53.65 -210.73,54.95C-211.13,55.88 -211.53,56.82 -211.92,57.77C-221.24,80.38 -223.9,81.71 -234.54,97.67C-244.78,113.03 -250.09,121 -254.03,129.89C-254.19,130.24 -254.34,130.58 -254.49,130.93C-258.48,140.24 -275.77,149.55 -282.42,156.2C-289.07,162.85 -298.38,204.08 -319.67,197.43C-340.95,190.78 -342.28,214.73 -351.59,176.15C-360.9,137.58 -335.63,153.54 -363.56,130.93C-391.5,108.31 -376.86,117.62 -394.16,99C-411.45,80.38 -408.79,114.96 -412.78,69.74C-416.77,24.51 -438.05,57.77 -416.77,17.86C-395.49,-22.04 -410.12,-6.08 -388.84,-31.35C-367.55,-56.63 -348.93,-57.96 -328.98,-80.57C-319.92,-90.84 -320.19,-89.04 -320.3,-88.63C-320,-89.26 -317.72,-93.96 -303.71,-116.48C-273.11,-165.7 -273.11,-160.38 -269.12,-172.35C-265.13,-184.32 -233.21,-185.65 -261.14,-201.62C-289.07,-217.58 -285.08,-216.25 -294.39,-224.23C-303.71,-232.21 -321,-249.5 -328.98,-249.5C-336.96,-249.5 -354.25,-249.5 -347.6,-270.78C-340.95,-292.07 -343.61,-292.07 -352.92,-306.7C-362.23,-321.33 -371.54,-335.96 -367.55,-354.58C-367.15,-356.45 -367.12,-358.56 -367.33,-360.86C-354.41,-371.51 -326.88,-392.6 -320.11,-399.37C-312.57,-406.9 -312.57,-407.79 -304.15,-413.55C-295.72,-419.32 -292.62,-424.2 -292.18,-422.42C-291.73,-420.65 -302.82,-413.55 -294.39,-410.89C-285.97,-408.23 -288.63,-412.67 -284.2,-416.66C-279.76,-420.65 -272.22,-415.33 -272.22,-422.87C-272.22,-430.4 -271.78,-437.5 -276.22,-434.39C-280.65,-431.29 -284.2,-423.31 -285.53,-428.19C-286.86,-433.06 -283.31,-438.83 -270.01,-445.92C-256.71,-453.02 -231.43,-451.69 -231.43,-451.69C-231.43,-451.69 -209.71,-449.47 -198.18,-449.91C-186.65,-450.36 -161.82,-439.71 -164.48,-437.05C-167.14,-434.39 -167.14,-437.5 -177.78,-440.16C-188.42,-442.82 -207.93,-443.26 -221.24,-443.26C-234.54,-443.26 -243.4,-447.25 -249.17,-433.95C-254.93,-420.65 -255.82,-417.55 -253.16,-410.89C-250.5,-404.24 -256.26,-396.26 -259.81,-401.14C-263.36,-406.02 -273.55,-401.58 -263.36,-393.6C-253.16,-385.62 -246.95,-386.51 -246.95,-375.42C-246.95,-364.34 -240.3,-351.04 -232.76,-347.93C-225.23,-344.83 -213.25,-331.97 -205.72,-335.96C-198.18,-339.95 -196.41,-340.4 -193.75,-345.72C-191.08,-351.04 -190.64,-342.17 -187.98,-345.27C-185.32,-348.38 -193.75,-350.59 -184.43,-352.81C-175.12,-355.03 -170.25,-344.39 -170.69,-339.51C-171.13,-334.63 -173.79,-326.21 -164.48,-325.76C-155.17,-325.32 -155.17,-305.81 -156.06,-298.27C-156.94,-290.74 -174.68,-280.54 -170.25,-273.44C-165.81,-266.35 -172.46,-262.36 -169.36,-252.6C-166.25,-242.85 -160.93,-230.88 -164.04,-225.11C-167.14,-219.35 -160.49,-219.79 -155.17,-213.59C-151.51,-209.32 -148.69,-198.11 -147.72,-188.51C-147.28,-184.16 -147.22,-180.13 -147.63,-177.23C-148.96,-167.92 -135.22,-168.8 -136.99,-173.24C-138.76,-177.67 -142.31,-179 -138.76,-182.55C-135.22,-186.1 -121.03,-174.13 -126.35,-173.68C-131.67,-173.24 -133,-170.58 -131.23,-166.14C-129.45,-161.71 -129.01,-150.63 -124.58,-157.28C-120.14,-163.93 -117.04,-175.46 -107.28,-179.89C-97.53,-184.32 -92.21,-178.56 -88.22,-194.08C-84.23,-209.6 -84.23,-207.82 -70.48,-216.69C-56.74,-225.56 -55.85,-207.38 -48.31,-219.35C-40.78,-231.32 -47.87,-232.65 -39.45,-238.42C-31.02,-244.18 -25.26,-244.18 -22.15,-249.94C-19.05,-255.71 -12.4,-239.75 -3.09,-238.42C-1.74,-238.23 -0.75,-238.19 0,-238.29Z" style="fill:#7fcb2b;fill-rule:nonzero;stroke:rgb(67,65,67);stroke-width:2.85px;stroke-linejoin:miter;stroke-miterlimit:10;"/>
        </g>
        <g transform="matrix(1,0,0,1,1969.25,4740.56)">
            <path d="M0,-979.32C-6.21,-963.81 15.52,-971.79 3.54,-962.48C-8.43,-953.16 -49.22,-924.34 -47.45,-912.37C-45.67,-900.4 -89.57,-864.49 -98.44,-856.06C-107.3,-847.64 -114.4,-849.41 -113.07,-835.67C-111.74,-821.92 -111.29,-816.16 -118.39,-812.61C-125.48,-809.06 -117.94,-804.63 -123.71,-793.55C-129.47,-782.46 -144.99,-777.14 -144.55,-762.95C-144.1,-748.76 -152.53,-734.13 -158.74,-727.48C-164.94,-720.83 -160.51,-705.31 -179.58,-692.45C-198.64,-679.59 -209.28,-682.25 -215.49,-668.51C-221.7,-654.76 -224.36,-655.65 -234.11,-652.99C-243.87,-650.33 -256.73,-636.59 -267.37,-632.15C-278.01,-627.72 -289.98,-628.16 -290.87,-625.94C-291.75,-623.73 -291.75,-622.4 -301.51,-615.75C-311.26,-609.1 -308.6,-597.57 -310.82,-586.48C-313.04,-575.4 -326.78,-530.62 -321.02,-518.2C-315.25,-505.79 -302.39,-483.17 -313.04,-485.83C-323.68,-488.49 -317.91,-477.41 -314.37,-475.19C-310.82,-472.98 -301.95,-473.86 -306.38,-468.54C-310.82,-463.22 -331.21,-462.33 -337.42,-454.35C-343.63,-446.37 -334.76,-438.83 -329.44,-449.03C-324.12,-459.23 -320.13,-450.36 -310.38,-454.35C-300.62,-458.34 -297.52,-457.01 -297.96,-451.25C-298.4,-445.49 -296.63,-455.24 -286.88,-457.9C-277.12,-460.56 -276.17,-440.76 -274.02,-443.71C-266.92,-453.47 -248.3,-448.59 -247.86,-441.5C-247.41,-434.4 -252.73,-429.97 -243.87,-435.73C-235,-441.5 -230.57,-430.41 -227.9,-425.98C-225.24,-421.54 -213.72,-419.33 -219.48,-406.47C-225.24,-393.61 -221.7,-386.07 -229.24,-378.09C-236.77,-370.11 -238.1,-368.78 -248.3,-367.01C-258.5,-365.23 -260.72,-367.89 -258.5,-374.99C-256.28,-382.08 -256.73,-389.62 -261.6,-395.83C-266.48,-402.03 -274.02,-406.47 -274.46,-398.93C-274.9,-391.39 -273.13,-374.54 -272.69,-370.55C-272.24,-366.56 -268.7,-355.48 -276.68,-359.47C-284.66,-363.46 -285.99,-363.46 -299.73,-364.35C-313.48,-365.23 -313.48,-364.79 -321.46,-375.43C-329.44,-386.07 -333.43,-386.52 -344.07,-382.08C-354.71,-377.65 -361.81,-383.41 -370.23,-380.31C-378.66,-377.2 -377.77,-373.21 -387.52,-373.66C-397.28,-374.1 -410.58,-366.12 -408.36,-371.88C-406.15,-377.65 -402.16,-378.53 -391.96,-384.74C-381.76,-390.95 -348.95,-378.98 -341.86,-387.85C-334.76,-396.71 -354.27,-403.36 -366.24,-408.24C-378.21,-413.12 -380.43,-421.99 -391.07,-421.54C-401.71,-421.1 -415.01,-404.25 -414.13,-394.05C-413.24,-383.85 -408.36,-379.42 -415.46,-373.21C-422.55,-367.01 -437.18,-361.69 -457.58,-355.03C-477.98,-348.38 -487.29,-348.38 -490.83,-340.85C-494.38,-333.31 -501.92,-331.09 -516.11,-323.11C-530.3,-315.13 -523.64,-316.46 -545.81,-307.59C-567.98,-298.72 -578.62,-295.62 -590.15,-287.64C-601.68,-279.66 -604.34,-274.34 -623.85,-265.03C-643.36,-255.72 -635.38,-259.26 -652.67,-246.4C-669.96,-233.55 -701.89,-194.08 -700.11,-183.89C-698.34,-173.69 -700.11,-153.29 -710.31,-140.88C-720.51,-128.46 -719.18,-104.52 -718.74,-88.56C-718.29,-72.6 -707.21,-18.5 -727.16,13.86C-728.07,15.34 -729.02,16.85 -730.01,18.38C-784.87,4.66 -769.15,4.61 -815.62,3.67C-864.5,2.67 -835.57,6.66 -855.52,23.62C-875.47,40.58 -863.5,51.55 -890.44,59.53C-917.37,67.51 -912.39,42.57 -914.38,24.62C-916.38,6.66 -922.36,8.65 -945.31,19.63C-968.25,30.6 -971.25,19.63 -998.18,-6.31C-1025.12,-32.25 -1007.16,-24.27 -1012.15,-56.19C-1017.14,-88.11 -1030.1,-73.15 -1050.06,-79.14C-1070.01,-85.12 -1052.05,-88.11 -1074,-109.06C-1085.58,-120.12 -1092.99,-113.12 -1095.95,-108.59C-1095.22,-110.39 -1094.23,-113.11 -1092.96,-117.05C-1082.98,-147.97 -1098.94,-138.99 -1122.88,-149.97C-1146.83,-160.94 -1121.89,-179.9 -1117.9,-202.84C-1113.91,-225.79 -1132.86,-237.76 -1125.88,-243.74C-1118.89,-249.73 -1104.93,-262.7 -1103.93,-269.68C-1102.93,-276.67 -1097.94,-278.66 -1089.96,-285.64C-1081.98,-292.63 -1087.97,-320.56 -1087.97,-320.56L-1087.46,-321.11C-1086.48,-322.17 -1083.57,-325.3 -1075,-334.53C-1074.72,-334.83 -1074.45,-335.12 -1074.19,-335.4C-1062.15,-348.49 -1064.79,-348.7 -1054.05,-358.47C-1043.07,-368.45 -1031.1,-380.42 -1019.13,-389.4C-1007.16,-398.38 -997.18,-427.31 -993.19,-446.26C-989.2,-465.22 -981.22,-456.24 -965.26,-473.2C-949.3,-490.16 -953.29,-478.19 -940.32,-487.16C-927.35,-496.14 -922.36,-490.16 -891.44,-504.12C-860.51,-518.09 -874.48,-506.12 -856.52,-525.07C-838.56,-544.03 -832.58,-540.04 -813.62,-566.97C-794.67,-593.91 -787.68,-580.94 -763.74,-585.93C-739.8,-590.92 -761.74,-596.9 -744.78,-626.83C-727.83,-656.76 -725.83,-626.83 -708.87,-631.82C-691.91,-636.81 -700.89,-659.75 -677.94,-673.72C-655,-687.69 -665.97,-678.71 -656,-685.69C-646.02,-692.67 -642.03,-687.69 -618.09,-693.67C-594.14,-699.66 -595.14,-696.67 -570.2,-697.66C-545.26,-698.66 -571.2,-733.58 -558.23,-737.57C-545.26,-741.56 -540.27,-739.56 -529.3,-750.54C-518.32,-761.51 -528.3,-761.51 -510.34,-774.48C-492.39,-787.45 -477.42,-781.46 -477.42,-787.45C-477.42,-793.43 -472.43,-815.38 -461.46,-822.37C-450.49,-829.35 -432.53,-837.33 -428.54,-845.31C-424.55,-853.29 -423.55,-865.26 -407.59,-867.26C-391.63,-869.25 -396.61,-874.24 -387.64,-882.22C-378.66,-890.2 -381.65,-890.2 -381.32,-906.17C-360.03,-899.52 -350.72,-940.75 -344.07,-947.4C-337.42,-954.05 -320.13,-963.36 -316.14,-972.67L-304.17,-960.7L-285.55,-950.06C-285.55,-950.06 -273.57,-934.1 -268.25,-923.46C-262.93,-912.82 -265.59,-924.79 -262.93,-912.82C-260.27,-900.85 -251.96,-888.21 -243.98,-871.25C-236,-854.29 -255.95,-847.31 -230.01,-844.31C-204.07,-841.32 -204.07,-848.3 -198.09,-859.28C-192.1,-870.25 -178.13,-875.24 -179.13,-890.2C-180.13,-905.17 -192.1,-901.18 -180.13,-911.15C-168.16,-921.13 -158.18,-925.12 -147.21,-931.11C-136.23,-937.09 -114.29,-921.13 -115.28,-945.07C-116.28,-969.02 -113.29,-981.99 -99.32,-993.96C-85.36,-1005.93 -98.32,-1000.94 -73.38,-1007.92C-48.44,-1014.91 -55.43,-1016.9 -47.45,-1028.87C-44.04,-1033.99 -41.72,-1038.74 -40.19,-1042.5C-41.48,-1035.76 -40.36,-1027.86 -26.5,-1030.87C-3.55,-1035.86 -41.46,-1046.83 5.43,-1035.86C21.21,-1032.17 31.12,-1030.96 37.62,-1030.83C19.08,-1013.54 6,-994.35 0,-979.32Z" style="fill:#7fcb2b;fill-rule:nonzero;stroke:rgb(67,65,67);stroke-width:2.85px;stroke-linejoin:miter;stroke-miterlimit:10;"/>
        </g>
        <g transform="matrix(1,0,0,1,1638.48,4449.27)">
            <path d="M0,-984.66C-3.99,-972.69 -3.99,-978.01 -34.59,-928.79C-48.6,-906.27 -50.88,-901.57 -51.18,-900.94C-51.07,-901.35 -50.8,-903.15 -59.86,-892.88C-79.81,-870.27 -98.43,-868.94 -119.72,-843.66C-141,-818.39 -126.37,-834.35 -147.65,-794.45C-168.93,-754.54 -147.65,-787.8 -143.66,-742.57C-139.67,-697.35 -142.33,-731.93 -125.04,-713.31C-107.74,-694.69 -122.38,-704 -94.44,-681.38C-66.51,-658.77 -91.78,-674.73 -82.47,-636.16C-73.16,-597.58 -71.83,-621.53 -50.55,-614.88C-50.88,-598.91 -47.89,-598.91 -56.87,-590.93C-65.84,-582.95 -60.86,-577.96 -76.82,-575.97C-92.78,-573.97 -93.78,-562 -97.77,-554.02C-101.76,-546.04 -119.72,-538.06 -130.69,-531.08C-141.66,-524.09 -146.65,-502.14 -146.65,-496.16C-146.65,-490.17 -161.62,-496.16 -179.57,-483.19C-197.53,-470.22 -187.55,-470.22 -198.53,-459.25C-209.5,-448.27 -214.49,-450.27 -227.46,-446.28C-240.43,-442.29 -214.49,-407.37 -239.43,-406.37C-264.37,-405.38 -263.37,-408.37 -287.32,-402.38C-311.26,-396.4 -315.25,-401.38 -325.23,-394.4C-335.2,-387.42 -324.23,-396.4 -347.17,-382.43C-370.12,-368.46 -361.14,-345.52 -378.1,-340.53C-395.06,-335.54 -397.06,-365.47 -414.01,-335.54C-430.97,-305.61 -409.03,-299.63 -432.97,-294.64C-456.91,-289.65 -463.9,-302.62 -482.85,-275.68C-501.81,-248.75 -507.79,-252.74 -525.75,-233.78C-543.71,-214.83 -529.74,-226.8 -560.67,-212.83C-591.59,-198.87 -596.58,-204.85 -609.55,-195.87C-622.52,-186.9 -618.53,-198.87 -634.49,-181.91C-650.45,-164.95 -658.43,-173.93 -662.42,-154.97C-666.41,-136.02 -676.39,-107.09 -688.36,-98.11C-700.33,-89.13 -712.3,-77.16 -723.28,-67.18C-734.02,-57.41 -731.38,-57.2 -743.42,-44.11C-743.68,-43.83 -743.95,-43.54 -744.23,-43.24C-752.8,-34.01 -755.71,-30.88 -756.69,-29.82L-769.17,-33.26C-769.17,-33.26 -789.12,-27.28 -806.08,-8.32C-823.04,10.63 -806.08,-8.32 -830.02,10.63C-853.97,29.59 -845.99,4.65 -854.96,17.62C-863.94,30.59 -854.96,17.62 -892.87,23.6C-907,25.83 -912.4,26.12 -914.23,26.02C-914.03,26.43 -914.55,27.42 -917.81,29.59C-929.79,37.57 -948.74,43.56 -952.73,47.55C-956.72,51.54 -961.71,57.52 -972.68,92.44C-983.66,127.36 -988.65,118.38 -996.63,128.35C-998.32,130.47 -1001.1,131.78 -1004.55,132.77C-1004.91,132.87 -1005.28,132.97 -1005.65,133.07C-1005.69,133.08 -1005.73,133.09 -1005.78,133.1C-1006.18,133.21 -1006.59,133.31 -1007,133.41C-1007.46,133.51 -1007.93,133.62 -1008.4,133.72C-1009.09,133.87 -1009.8,134.02 -1010.52,134.16C-1010.89,134.23 -1011.27,134.31 -1011.64,134.38C-1012.24,134.49 -1012.85,134.61 -1013.47,134.72C-1015.15,135.05 -1016.89,135.38 -1018.66,135.75C-1019.7,135.97 -1020.75,136.2 -1021.81,136.45C-1024.18,137.01 -1026.59,137.68 -1028.98,138.52C-1029.57,138.73 -1030.16,138.95 -1030.75,139.18C-1031.22,139.37 -1031.69,139.56 -1032.16,139.77C-1033.25,140.23 -1034.33,140.74 -1035.38,141.3C-1035.71,141.47 -1036.03,141.64 -1036.35,141.83C-1037.35,142.39 -1038.32,142.99 -1039.28,143.66C-1039.56,143.84 -1039.83,144.04 -1040.11,144.25C-1040.42,144.47 -1040.72,144.7 -1041.02,144.93C-1041.38,145.21 -1041.74,145.51 -1042.09,145.81C-1042.33,146 -1042.56,146.2 -1042.79,146.42C-1042.99,146.59 -1043.19,146.78 -1043.39,146.97C-1043.57,147.14 -1043.76,147.31 -1043.94,147.49C-1044.41,147.95 -1044.88,148.43 -1045.32,148.93C-1045.6,149.23 -1045.87,149.53 -1046.13,149.85C-1046.37,150.12 -1046.59,150.4 -1046.82,150.68C-1047.41,151.43 -1047.98,152.21 -1048.53,153.03C-1048.74,153.33 -1048.94,153.64 -1049.14,153.96C-1049.38,154.33 -1049.61,154.71 -1049.83,155.1C-1050.06,155.49 -1050.28,155.88 -1050.5,156.29C-1064.46,182.23 -1101.38,167.26 -1101.38,167.26C-1101.38,167.26 -1088.41,137.33 -1087.41,125.36C-1086.41,113.39 -1092.4,112.39 -1096.39,104.41C-1100.38,96.43 -1107.36,88.45 -1122.33,82.46C-1137.29,76.48 -1155.25,97.43 -1155.25,97.43C-1155.25,97.43 -1164.91,85.06 -1172.6,72.09C-1169.2,72.35 -1165.57,72.57 -1162.35,68.06C-1162.12,67.75 -1161.9,67.41 -1161.68,67.05C-1155.47,56.86 -1159.02,56.86 -1147.93,51.09C-1136.85,45.33 -1131.53,51.98 -1128.87,36.02C-1126.21,20.06 -1126.21,22.72 -1119.56,14.74C-1112.91,6.75 -1115.57,-4.77 -1108.91,-8.32C-1102.26,-11.87 -1102.26,-10.98 -1091.62,-14.53C-1080.98,-18.08 -1075.22,-11.42 -1064.58,-17.63C-1053.93,-23.84 -1041.08,-32.71 -1031.32,-24.28C-1021.57,-15.86 -1014.47,-18.08 -995.85,-26.94C-977.23,-35.81 -979.45,-40.24 -965.7,-52.22C-951.96,-64.19 -933.33,-78.82 -908.06,-104.98C-882.79,-131.14 -885.45,-130.7 -870.37,-135.57C-855.3,-140.45 -856.63,-150.21 -851.31,-155.08C-845.99,-159.96 -838,-155.08 -831.8,-159.96C-825.59,-164.84 -825.59,-153.75 -816.72,-158.19C-807.85,-162.62 -810.07,-166.61 -804.31,-169.27C-798.54,-171.93 -800.32,-163.06 -793.67,-169.71C-787.01,-176.37 -783.47,-182.57 -780.36,-185.23C-777.26,-187.89 -769.72,-181.24 -765.73,-191.44C-761.74,-201.64 -753.76,-202.97 -752.43,-215.83C-751.1,-228.68 -749.33,-225.58 -743.12,-231.35C-736.91,-237.11 -737.8,-242.87 -730.26,-246.42C-722.72,-249.97 -720.95,-236.67 -711.64,-241.99C-702.33,-247.31 -689.47,-268.15 -675.28,-278.79C-661.09,-289.43 -660.21,-290.76 -654.89,-297.85C-649.56,-304.95 -642.91,-297.85 -636.71,-306.72C-630.5,-315.59 -624.73,-324.01 -629.61,-320.02C-634.49,-316.03 -646.9,-309.38 -641.58,-315.15C-636.26,-320.91 -627.84,-322.68 -627.4,-331.55C-626.95,-340.42 -626.51,-340.86 -620.3,-343.08C-614.09,-345.3 -600.79,-336.87 -596.8,-344.41C-592.81,-351.95 -603.9,-348.84 -598.57,-354.16C-593.25,-359.48 -588.82,-363.47 -582.61,-372.34C-576.41,-381.21 -574.19,-378.99 -558.67,-380.32C-543.15,-381.65 -541.38,-390.52 -531.18,-398.5C-520.98,-406.48 -515.22,-398.5 -505.02,-411.8C-494.82,-425.11 -469.55,-430.87 -458.46,-465.01C-447.38,-499.15 -437.18,-481.86 -431.42,-492.5C-425.65,-503.14 -422.11,-499.15 -414.13,-508.91C-406.14,-518.66 -403.48,-535.07 -397.72,-543.05C-391.96,-551.03 -383.09,-549.25 -384.42,-572.75C-385.75,-596.25 -385.75,-594.04 -377.77,-600.69C-369.79,-607.34 -363.14,-611.77 -356.04,-638.82C-348.95,-665.87 -355.15,-694.24 -351.16,-700.89C-347.17,-707.54 -338.75,-707.54 -341.85,-717.74C-344.96,-727.94 -332.1,-729.27 -332.1,-739.02C-332.1,-748.78 -334.32,-754.1 -329.44,-765.18C-324.56,-776.27 -311.7,-779.37 -316.14,-796.22C-320.57,-813.07 -317.47,-828.59 -312.59,-831.25C-307.71,-833.91 -299.73,-821.49 -291.31,-826.82C-282.88,-832.14 -279.78,-837.9 -270.91,-834.35C-262.04,-830.81 -262.93,-826.82 -253.62,-834.35C-244.31,-841.89 -214.6,-860.96 -204.85,-876.92C-195.09,-892.88 -193.76,-889.78 -185.78,-900.86C-177.8,-911.95 -179.57,-927.02 -175.14,-935.45C-170.71,-943.87 -153.86,-942.98 -146.32,-970.47C-138.78,-997.96 -142.33,-1021.46 -144.55,-1040.97C-146.76,-1060.48 -142.77,-1073.78 -141,-1083.54C-139.22,-1093.29 -147.21,-1121.67 -137.89,-1133.2C-129.82,-1143.19 -116.42,-1156.85 -106.35,-1166.09C-101.31,-1166.65 -98.43,-1166.89 -98.43,-1166.89C-102.42,-1148.27 -93.11,-1133.64 -83.8,-1119.01C-74.49,-1104.38 -71.83,-1104.38 -78.48,-1083.09C-85.13,-1061.81 -67.84,-1061.81 -59.86,-1061.81C-51.88,-1061.81 -34.59,-1044.52 -25.27,-1036.54C-15.96,-1028.56 -19.95,-1029.89 7.98,-1013.93C35.91,-997.96 3.99,-996.63 0,-984.66" style="fill:#7fcb2b;fill-rule:nonzero;stroke:rgb(67,65,67);stroke-width:2.67px;"/>
        </g>
        <g transform="matrix(1,0,0,1,1177.36,4922.75)">
            <path d="M0,-70.78C-7.1,-49.94 -15.97,-32.65 -12.86,-28.66C-9.76,-24.67 -1.78,-23.78 -2.22,-18.02C-2.66,-12.25 -15.08,-9.59 -11.98,1.05C-8.87,11.69 -10.65,12.13 -20.84,25.88C-31.04,39.62 -54.54,81.3 -60.31,90.17C-66.07,99.04 -81.14,97.26 -74.94,105.69C-68.73,114.11 -53.65,107.02 -46.56,112.78C-39.47,118.55 -34.59,109.68 -52.77,123.42C-70.95,137.17 -80.26,157.56 -70.5,150.91C-60.75,144.26 -50.99,142.49 -42.13,131.85C-33.26,121.21 -28.82,126.08 -31.04,133.62C-33.26,141.16 -43.9,137.61 -39.47,143.38C-35.03,149.14 -26.16,146.92 -30.6,152.24C-35.03,157.56 -39.91,152.24 -46.56,160.22C-53.21,168.21 -62.08,157.56 -86.02,165.1C-109.96,172.64 -113.51,178.85 -121.94,179.73C-130.36,180.62 -132.58,178.4 -135.24,184.17C-137.9,189.93 -163.61,204.56 -161.4,220.53C-159.18,236.49 -154.75,244.03 -173.37,258.21C-191.99,272.4 -190.22,285.7 -212.39,295.46C-234.56,305.21 -241.21,305.66 -251.41,318.51C-261.6,331.37 -269.58,333.15 -266.48,342.46C-263.38,351.77 -255.84,355.32 -260.72,360.64C-265.59,365.96 -266.04,371.28 -273.13,377.93C-280.23,384.58 -274.91,375.27 -281.56,373.49C-288.21,371.72 -286.88,385.91 -291.31,390.34C-292.68,391.71 -293.84,393.34 -295.13,395.07C-298.01,398.91 -301.53,403.24 -309.49,406.31C-321.02,410.74 -321.46,400.1 -333.88,407.64C-346.29,415.17 -342.3,422.71 -352.5,425.37C-362.7,428.03 -365.36,425.81 -365.36,429.8C-365.36,433.8 -358.26,433.8 -376,431.13C-391.78,428.76 -384.74,434.13 -393.95,435.96C-395.52,426.94 -396.39,419.15 -395.51,416.06C-392.85,406.75 -379.54,396.11 -395.51,377.49C-411.47,358.86 -411.47,354.87 -407.48,336.25C-403.49,317.63 -400.83,318.96 -403.49,293.68C-406.15,268.41 -410.14,276.39 -418.12,247.13C-426.1,217.87 -423.44,232.5 -430.09,211.21C-436.74,189.93 -440.73,189.93 -448.71,142.05C-456.69,94.16 -455.36,108.79 -443.39,80.86C-431.42,52.92 -422.11,31.64 -414.13,21C-406.15,10.36 -415.46,-16.24 -426.1,-29.55C-436.74,-42.85 -459.35,-52.16 -460.68,-40.19C-462.01,-28.22 -487.29,19.67 -487.29,19.67C-487.29,19.67 -512.56,36.96 -523.2,7.7C-533.84,-21.56 -513.89,-37.53 -539.16,-40.19C-564.44,-42.85 -565.77,-5.6 -603.01,-18.9C-640.26,-32.21 -624.29,-30.88 -633.61,-50.83C-642.92,-70.78 -653.56,-69.45 -652.23,-88.07C-650.9,-106.69 -638.93,-88.07 -650.9,-106.69C-662.87,-125.32 -694.79,-151.92 -690.8,-165.22C-686.81,-178.52 -674.84,-178.52 -674.84,-191.83C-674.84,-205.13 -666.86,-206.46 -673.51,-218.43C-680.16,-230.4 -665.53,-242.37 -660.21,-263.65C-654.89,-284.94 -640.26,-306.22 -640.26,-306.22C-640.26,-306.22 -603.34,-291.25 -589.38,-317.19C-578.38,-337.62 -556.24,-337.01 -543.43,-340.71C-539.98,-341.7 -537.2,-343.01 -535.51,-345.13C-527.53,-355.1 -522.54,-346.12 -511.56,-381.04C-500.59,-415.96 -495.6,-421.94 -491.61,-425.93C-487.62,-429.92 -468.67,-435.91 -456.69,-443.89C-453.43,-446.06 -452.91,-447.05 -453.11,-447.46C-451.28,-447.36 -445.88,-447.65 -431.75,-449.88C-393.84,-455.86 -402.82,-442.89 -393.84,-455.86C-384.87,-468.83 -392.85,-443.89 -368.9,-462.85C-344.96,-481.8 -361.92,-462.85 -344.96,-481.8C-328,-500.76 -308.05,-506.74 -308.05,-506.74L-295.57,-503.3L-296.08,-502.75C-296.08,-502.75 -290.09,-474.82 -298.07,-467.83C-306.05,-460.85 -311.04,-458.86 -312.04,-451.87C-313.04,-444.89 -327,-431.92 -333.99,-425.93C-340.97,-419.95 -322.02,-407.98 -326.01,-385.03C-330,-362.09 -354.94,-343.13 -330.99,-332.16C-307.05,-321.18 -291.09,-330.16 -301.07,-299.24C-302.34,-295.3 -303.33,-292.58 -304.06,-290.78C-301.1,-295.31 -293.69,-302.31 -282.11,-291.25C-260.16,-270.3 -278.12,-267.31 -258.17,-261.33C-238.21,-255.34 -225.25,-270.3 -220.26,-238.38C-215.27,-206.46 -233.23,-214.44 -206.29,-188.5C-179.36,-162.56 -176.36,-151.59 -153.42,-162.56C-130.47,-173.54 -124.49,-175.53 -122.49,-157.57C-120.5,-139.62 -125.48,-114.68 -98.55,-122.66C-71.61,-130.64 -83.58,-141.61 -63.63,-158.57C-43.68,-175.53 -72.61,-179.52 -23.73,-178.52C22.74,-177.58 7.02,-177.53 61.88,-163.81C41.39,-131.95 6.77,-90.67 0,-70.78" style="fill:#7fcb2b;fill-rule:nonzero;stroke:rgb(67,65,67);stroke-width:2.85px;"/>
        </g>
        <g transform="matrix(1,0,0,1,781.847,4558.6)">
            <path d="M0,780.21C-0.88,783.3 -0.01,791.09 1.56,800.11C0.43,800.34 -0.96,800.51 -2.66,800.61C-18.18,801.49 -32.36,792.62 -32.36,801.49C-32.36,810.36 -24.83,807.26 -47.88,809.47C-70.94,811.69 -59.85,807.7 -75.37,805.48C-90.89,803.27 -96.66,817.45 -98.43,808.59C-100.2,799.72 -93.99,797.5 -101.53,791.74C-109.07,785.97 -99.32,776.66 -111.73,775.33C-124.15,774 -131.24,782.87 -141.88,780.65C-152.52,778.44 -151.19,779.32 -150.31,773.56C-149.42,767.79 -167.15,768.24 -158.73,776.22C-150.31,784.2 -146.76,781.98 -164.49,787.3C-182.23,792.62 -193.31,797.06 -200.41,791.29C-207.5,785.53 -205.29,783.31 -195.09,785.53C-184.89,787.75 -166.27,788.19 -172.03,780.65C-177.8,773.12 -194.2,780.21 -204.84,776.66C-215.48,773.12 -226.12,760.7 -225.24,770.46C-224.35,780.21 -214.15,785.53 -212.82,791.29C-211.49,797.06 -215.48,797.5 -227.01,786.86C-238.54,776.22 -251.84,770.46 -248.29,764.69C-244.75,758.93 -238.54,758.93 -234.55,763.8C-230.56,768.68 -231.89,766.91 -224.79,760.26C-217.7,753.61 -206.62,755.38 -212.38,746.51C-218.14,737.64 -226.57,724.34 -227.9,734.98C-229.23,745.63 -220.36,754.05 -231,752.72C-241.64,751.39 -245.19,750.06 -247.85,735.87C-250.51,721.68 -263.81,703.5 -278,702.62C-292.19,701.73 -303.27,699.51 -297.51,707.94C-291.75,716.36 -289.09,720.8 -299.73,717.25C-310.37,713.7 -330.32,701.73 -329.88,711.04C-329.43,720.35 -323.67,727 -332.09,724.34C-340.52,721.68 -337.42,711.48 -345.4,715.48C-353.38,719.47 -351.16,730.11 -356.04,727C-360.91,723.9 -358.25,716.81 -364.91,715.92C-371.56,715.03 -362.69,713.7 -371.56,705.72C-380.42,697.74 -381.31,699.51 -376.88,692.42C-372.44,685.32 -377.76,668.92 -395.94,655.62C-414.12,642.32 -443.38,633.89 -448.26,640.99C-453.14,648.08 -451.37,654.73 -454.91,658.28C-458.46,661.83 -465.11,656.5 -462.89,668.03C-460.68,679.56 -470.43,684.88 -479.74,680.89C-489.05,676.9 -485.06,678.67 -496.15,681.33C-507.23,683.99 -566.65,676.46 -578.17,673.8C-589.7,671.14 -595.91,667.59 -599.01,672.91C-602.12,678.23 -606.99,686.21 -610.1,677.34C-613.2,668.48 -619.85,685.77 -631.38,671.14C-642.91,656.5 -645.13,650.3 -637.15,646.31C-629.16,642.32 -637.15,644.53 -627.83,633.89C-618.52,623.25 -610.54,631.67 -607.88,616.16C-605.22,600.64 -621.63,610.39 -594.58,597.09C-567.53,583.79 -571.97,574.92 -578.17,574.03C-584.38,573.15 -583.94,584.23 -594.58,584.68C-605.22,585.12 -608.33,587.34 -613.2,594.87C-618.08,602.41 -610.54,610.39 -614.98,615.71C-619.41,621.03 -619.41,613.05 -623.4,609.95C-627.39,606.85 -630.94,621.48 -640.25,625.47C-649.56,629.46 -650.89,639.21 -654.88,632.12C-658.87,625.02 -652.22,623.69 -652.22,613.05C-652.22,602.41 -655.77,601.52 -647.34,597.53C-638.92,593.54 -614.53,591.77 -614.98,583.79C-615.42,575.81 -623.4,585.56 -630.49,583.35C-637.59,581.13 -622.96,553.2 -630.94,553.64C-638.92,554.08 -638.92,575.81 -651.78,584.68C-664.64,593.54 -670.4,608.18 -682.37,601.52C-694.34,594.87 -683.7,582.9 -689.47,576.69C-695.23,570.49 -703.65,554.08 -692.13,544.33C-680.6,534.57 -673.06,544.77 -650,533.24C-626.95,521.71 -614.53,519.05 -605.66,519.05C-596.8,519.05 -601.23,514.62 -586.6,507.08C-571.97,499.55 -563.1,498.66 -568.42,491.12C-573.74,483.58 -568.86,496.88 -586.6,496C-604.33,495.11 -606.99,488.46 -616.31,492.89C-625.62,497.33 -624.29,489.79 -618.08,485.8C-611.87,481.81 -571.52,470.28 -570.64,460.53C-570.47,458.66 -570.24,457.58 -570.1,457.09C-570.74,458.46 -574,463.59 -585.27,464.96C-603.45,467.18 -601.67,472.06 -614.53,474.27C-627.39,476.49 -634.04,468.06 -627.39,458.31C-620.74,448.56 -614.09,453.88 -598.13,445.9C-582.17,437.91 -560.44,445.9 -563.54,440.57C-566.65,435.25 -583.94,440.57 -584.38,435.7C-584.83,430.82 -561.77,427.27 -567.09,422.4C-572.41,417.52 -583.94,427.72 -592.36,431.26C-600.79,434.81 -595.02,440.57 -607.88,440.13C-620.74,439.69 -622.07,463.63 -633.15,450.77C-644.24,437.91 -645.13,427.72 -637.59,422.84C-630.05,417.96 -628.28,423.28 -630.05,414.41C-631.82,405.55 -630.49,395.79 -622.07,393.13C-613.65,390.47 -594.14,408.21 -592.36,397.12C-590.59,386.04 -626.5,376.28 -622.96,370.08C-619.41,363.87 -610.99,342.59 -603.89,344.36C-596.8,346.13 -579.5,354.11 -584.38,360.76C-589.26,367.42 -582.61,358.55 -575.51,360.76C-568.42,362.98 -560,366.97 -564.43,374.07C-568.86,381.16 -582.17,395.79 -570.19,392.69C-558.22,389.58 -560.88,378.5 -558.67,372.74C-556.45,366.97 -528.96,390.47 -534.72,397.57C-540.49,404.66 -548.47,417.96 -542.26,416.63C-536.05,415.3 -532.06,401.11 -528.96,400.67C-525.85,400.23 -526.3,396.68 -532.51,386.04C-538.71,375.4 -547.14,370.08 -558.22,361.21C-569.31,352.34 -571.08,349.24 -556.45,346.58C-541.82,343.92 -528.07,354.11 -525.85,347.91C-523.64,341.7 -528.96,341.26 -530.29,336.38C-531.62,331.5 -540.04,335.49 -552.01,336.82C-563.99,338.15 -567.09,329.28 -569.31,322.63C-571.52,315.98 -577.29,322.19 -574.63,311.55C-571.97,300.91 -577.29,294.26 -572.85,288.49C-568.42,282.73 -553.34,304.01 -542.7,306.67C-532.06,309.33 -540.93,297.8 -546.25,294.7C-551.57,291.6 -565.76,277.85 -560.88,268.54C-556.01,259.23 -551.13,261.45 -544.92,267.21C-538.71,272.97 -532.51,276.52 -533.84,270.31C-535.17,264.11 -546.69,261.45 -545.81,253.91C-544.92,246.37 -540.93,252.13 -532.06,251.25C-523.19,250.36 -511.67,264.55 -504.13,262.33C-496.59,260.12 -493.49,253.46 -504.13,250.8C-514.77,248.14 -520.09,250.8 -527.63,245.04C-535.17,239.28 -540.93,238.39 -536.05,235.73C-531.18,233.07 -524.52,223.76 -519.65,215.78C-514.77,207.8 -514.33,211.34 -506.35,205.14C-498.36,198.93 -494.37,192.72 -493.93,190.95C-493.49,189.17 -486.84,198.04 -487.28,206.02C-487.72,214 -487.28,223.31 -481.07,228.19C-474.87,233.07 -458.9,237.5 -465.55,229.08C-472.2,220.65 -477.53,214 -478.41,210.9C-479.3,207.8 -479.74,199.81 -484.62,190.06C-489.5,180.31 -485.51,177.2 -482.4,173.65C-479.3,170.11 -475.75,167.89 -469.99,162.57C-464.22,157.25 -442.05,172.77 -442.05,167.45C-442.05,162.13 -452.25,159.02 -450.48,151.49C-448.71,143.95 -438.51,149.71 -434.96,143.95C-431.41,138.18 -438.95,134.64 -434.52,127.99C-430.08,121.34 -424.76,125.77 -420.77,123.55C-416.78,121.34 -415.89,113.35 -416.34,109.81C-416.78,106.26 -406.58,103.16 -401.26,100.5C-395.94,97.84 -395.5,92.96 -391.51,90.3C-387.52,87.64 -368.9,103.6 -360.47,113.35C-352.05,123.11 -347.61,116.9 -353.82,105.82C-360.03,94.73 -373.77,92.96 -375.99,87.19C-378.21,81.43 -380.87,64.58 -377.32,57.93C-373.77,51.28 -366.68,61.03 -368.45,46.4C-370.23,31.77 -357.81,32.66 -352.93,24.68C-348.06,16.7 -348.5,14.48 -340.52,10.93C-332.54,7.38 -334.75,-6.8 -329.88,-9.46C-325,-12.12 -310.81,-4.59 -314.8,-14.78C-317.65,-22.05 -323.65,-25.73 -325.09,-29.64C-319.38,-34.41 -315.97,-37.24 -315.97,-37.24C-308.28,-24.27 -298.62,-11.9 -298.62,-11.9C-298.62,-11.9 -280.66,-32.85 -265.7,-26.87C-250.73,-20.88 -243.75,-12.9 -239.76,-4.92C-235.77,3.06 -229.78,4.06 -230.78,16.03C-231.78,28 -244.75,57.93 -244.75,57.93C-244.75,57.93 -259.38,79.21 -264.7,100.5C-270.02,121.78 -284.65,133.75 -278,145.72C-271.35,157.69 -279.33,159.02 -279.33,172.32C-279.33,185.63 -291.3,185.63 -295.29,198.93C-299.28,212.23 -267.36,238.83 -255.39,257.46C-243.42,276.08 -255.39,257.46 -256.72,276.08C-258.05,294.7 -247.41,293.37 -238.1,313.32C-228.78,333.27 -244.75,331.94 -207.5,345.25C-170.26,358.55 -168.93,321.3 -143.65,323.96C-118.38,326.62 -138.33,342.59 -127.69,371.85C-117.05,401.11 -91.78,383.82 -91.78,383.82C-91.78,383.82 -66.5,335.93 -65.17,323.96C-63.84,311.99 -41.23,321.3 -30.59,334.6C-19.95,347.91 -10.64,374.51 -18.62,385.15C-26.6,395.79 -35.91,417.07 -47.88,445.01C-59.85,472.94 -61.18,458.31 -53.2,506.2C-45.22,554.08 -41.23,554.08 -34.58,575.36C-27.93,596.65 -30.59,582.02 -22.61,611.28C-14.63,640.54 -10.64,632.56 -7.98,657.83C-5.32,683.11 -7.98,681.78 -11.97,700.4C-15.96,719.02 -15.96,723.01 0,741.64C15.97,760.26 2.66,770.9 0,780.21" style="fill:#7fcb2b;fill-rule:nonzero;stroke:rgb(67,65,67);stroke-width:2.85px;"/>
        </g>
        <g transform="matrix(1,0,0,1,441.328,5609.16)">
            <path d="M0,-212.494C9.976,-212.494 12.969,-222.47 27.933,-217.482C42.898,-212.494 42.898,-204.513 51.876,-192.541C60.855,-180.57 53.872,-188.551 68.836,-175.582C83.8,-162.613 87.791,-163.61 86.793,-152.637C85.796,-141.663 68.836,-143.658 54.869,-142.66C40.903,-141.663 50.879,-132.684 39.905,-124.703C28.931,-116.722 61.853,-118.717 67.838,-124.703C73.824,-130.689 79.81,-120.713 84.798,-122.708C89.786,-124.703 87.791,-109.739 93.777,-115.724C99.762,-121.71 93.777,-150.641 99.762,-141.663C105.748,-132.684 99.762,-112.732 104.75,-100.76C109.739,-88.789 127.696,-77.815 105.748,-82.803C83.8,-87.791 105.748,-82.803 83.8,-71.829C61.853,-60.855 11.971,-29.929 1.995,-38.908C-7.981,-47.886 -15.962,-55.867 -18.955,-48.884C-21.948,-41.9 -28.931,-33.919 -38.907,-18.955C-48.884,-3.991 -15.962,-43.896 -21.948,-21.948C-27.933,0 -62.85,9.976 -62.85,-8.979C-62.85,-27.934 -42.898,-28.931 -42.898,-50.879C-42.898,-72.827 -40.903,-67.839 -32.922,-89.786C-24.941,-111.734 -5.986,-78.812 -5.986,-94.774C-5.986,-110.736 -21.948,-112.732 -11.971,-121.71C-1.995,-130.689 16.96,-112.732 -0.998,-151.639C-18.955,-190.546 -14.964,-178.575 -14.964,-194.537C-14.964,-210.499 0,-212.494 0,-212.494Z" style="fill:#7fcb2b;fill-rule:nonzero;stroke:rgb(67,65,67);stroke-width:2.85px;stroke-linejoin:miter;stroke-miterlimit:10;"/>
        </g>
        <g transform="matrix(1,0,0,1,2075.66,3844.26)">
            <path d="M0,-457.24C0.44,-448.82 -2.66,-443.94 -7.54,-440.84C-12.42,-437.74 -0.89,-433.3 -8.87,-429.31C-16.85,-425.32 -16.41,-438.18 -18.18,-435.07C-19.95,-431.97 -15.96,-420.89 -21.73,-426.65C-27.49,-432.41 -25.27,-442.17 -29.26,-435.96C-33.25,-429.75 -29.26,-427.98 -27.05,-420.44C-24.83,-412.91 -21.28,-408.03 -37.69,-405.37C-54.09,-402.71 -63.85,-399.16 -78.04,-394.73C-92.23,-390.29 -101.54,-392.51 -99.76,-384.97C-97.99,-377.43 -93.56,-392.07 -78.48,-384.09C-63.4,-376.1 -80.7,-384.09 -57.64,-387.19C-34.58,-390.29 -36.36,-384.09 -27.49,-386.75C-18.62,-389.41 -8.42,-392.51 -1.33,-394.28C5.76,-396.06 15.07,-398.72 3.55,-386.75C-7.98,-374.77 -19.95,-365.02 -28.82,-361.92C-37.69,-358.81 -35.91,-352.16 -40.79,-352.6C-45.67,-353.05 -50.1,-358.81 -43.9,-363.69C-37.69,-368.57 -24.83,-366.35 -37.69,-368.57C-50.55,-370.78 -59.86,-346.84 -65.18,-333.98C-70.5,-321.12 -72.72,-308.71 -58.53,-298.51C-44.34,-288.31 -35.91,-263.04 -38.13,-249.3C-40.35,-235.55 -38.13,-220.92 -27.93,-216.93C-17.74,-212.94 -7.09,-219.15 -12.86,-209.83C-16.88,-203.34 -32.11,-178.73 -47.59,-158.41C-47.72,-158.25 -47.84,-158.08 -47.96,-157.92C-48.61,-157.07 -49.26,-156.23 -49.91,-155.4C-50.01,-155.27 -50.11,-155.14 -50.22,-155C-50.85,-154.19 -51.49,-153.39 -52.11,-152.6C-53.12,-151.35 -54.11,-150.13 -55.11,-148.93C-55.48,-148.48 -55.86,-148.03 -56.23,-147.59C-56.28,-147.54 -56.32,-147.49 -56.37,-147.43C-56.77,-146.96 -57.17,-146.49 -57.57,-146.03C-57.98,-145.56 -58.38,-145.09 -58.79,-144.64C-59.6,-143.72 -60.4,-142.84 -61.19,-141.98C-62.39,-140.7 -63.56,-139.49 -64.7,-138.37C-65.05,-138.02 -65.4,-137.68 -65.74,-137.36C-66.15,-136.97 -66.55,-136.59 -66.95,-136.23C-67.57,-135.67 -68.18,-135.1 -68.79,-134.53C-75.29,-134.66 -85.2,-135.87 -100.98,-139.56C-147.87,-150.53 -109.96,-139.56 -132.91,-134.57C-146.77,-131.56 -147.89,-139.46 -146.6,-146.2C-148.13,-142.44 -150.45,-137.69 -153.86,-132.57C-161.84,-120.6 -154.85,-118.61 -179.79,-111.62C-204.73,-104.64 -191.77,-109.63 -205.73,-97.66C-219.7,-85.69 -222.69,-72.72 -221.69,-48.77C-220.7,-24.83 -242.64,-40.79 -253.62,-34.81C-264.59,-28.82 -274.57,-24.83 -286.54,-14.85C-298.51,-4.88 -286.54,-8.87 -285.54,6.1C-284.54,21.06 -298.51,26.05 -304.5,37.02C-310.48,48 -310.48,54.98 -336.42,51.99C-362.36,48.99 -342.41,42.01 -350.39,25.05C-358.37,8.09 -366.68,-4.55 -369.34,-16.52C-372,-28.49 -369.34,-16.52 -374.66,-27.16C-379.98,-37.8 -391.96,-53.76 -391.96,-53.76L-410.58,-64.4L-422.55,-76.37C-418.56,-85.69 -413.24,-93.67 -402.6,-109.63C-391.96,-125.59 -389.3,-126.92 -379.98,-149.53C-376.38,-158.28 -372.38,-166.24 -367.82,-174.09C-360.61,-186.53 -352.01,-198.7 -341.41,-213.38C-324.12,-237.32 -294.85,-285.21 -285.54,-301.17C-276.23,-317.13 -254.95,-313.14 -254.95,-313.14C-254.95,-313.14 -248.3,-321.12 -245.64,-329.11C-242.98,-337.09 -233.67,-342.41 -224.35,-355.71C-215.04,-369.01 -220.36,-366.35 -212.38,-375.66C-204.4,-384.97 -200.41,-398.27 -197.75,-402.26C-196.88,-403.57 -184.77,-421.24 -168.86,-444.43C-168.59,-444.81 -168.33,-445.2 -168.06,-445.59C-163.58,-446.17 -167.44,-451.36 -156.07,-455.91C-142.77,-461.23 -134.35,-466.11 -142.33,-465.67C-146.41,-465.44 -151.07,-465.22 -154.06,-466C-156.91,-466.74 -158.24,-468.41 -156.07,-471.88C-153.34,-476.25 -149.6,-477.08 -144.75,-479.56C-141.73,-481.11 -138.27,-483.3 -134.35,-487.39C-124.15,-498.04 -115.72,-503.8 -115.72,-498.04C-115.72,-492.27 -123.26,-479.41 -113.95,-485.18C-104.64,-490.94 -104.64,-496.26 -98.88,-501.14C-93.11,-506.02 -91.34,-508.68 -85.57,-510.45C-79.81,-512.22 -77.15,-505.13 -71.39,-506.46C-65.62,-507.79 -70.5,-495.38 -73.16,-498.92C-75.82,-502.47 -78.04,-506.46 -82.03,-503.8C-86.02,-501.14 -85.13,-495.82 -89.56,-491.39C-94,-486.95 -96.22,-485.62 -98.88,-481.19C-101.54,-476.75 -104.64,-473.65 -111.73,-473.21C-118.83,-472.76 -126.37,-475.87 -127.7,-469.22C-129.03,-462.57 -140.11,-440.84 -133.9,-443.06C-127.7,-445.27 -125.92,-455.91 -119.27,-456.8C-112.62,-457.69 -97.1,-467.89 -97.1,-457.24C-97.1,-446.6 -105.97,-450.59 -109.07,-444.83C-112.18,-439.07 -112.18,-434.19 -116.17,-430.2C-120.16,-426.21 -117.94,-412.91 -118.83,-408.92C-119.72,-404.92 -129.03,-392.51 -127.7,-383.2C-126.37,-373.89 -118.39,-379.65 -113.51,-390.29C-108.63,-400.93 -99.76,-423.1 -101.09,-429.75C-102.42,-436.41 -95.77,-436.41 -92.23,-443.5C-88.68,-450.59 -83.36,-452.81 -84.69,-448.38C-86.02,-443.94 -89.56,-423.99 -81.14,-429.75C-72.72,-435.52 -79.81,-439.95 -74.93,-442.17C-70.06,-444.39 -60.3,-431.08 -64.29,-442.17C-68.28,-453.25 -73.16,-452.37 -68.73,-457.24C-64.29,-462.12 -61.19,-472.32 -68.73,-468.77C-76.26,-465.23 -78.48,-451.92 -81.14,-459.9C-83.8,-467.89 -95.77,-458.13 -91.78,-464.78C-87.79,-471.43 -81.14,-470.55 -81.14,-477.2C-81.14,-483.85 -78.04,-482.07 -74.05,-484.73C-70.06,-487.39 -73.16,-478.53 -67.4,-477.64C-61.63,-476.75 -58.08,-479.41 -57.64,-475.42C-57.2,-471.43 -57.64,-461.23 -52.76,-466.56C-47.89,-471.88 -48.77,-477.64 -45.67,-477.64C-42.57,-477.64 -39.91,-471.43 -37.24,-475.42C-34.58,-479.41 -34.58,-485.18 -31.48,-483.4C-28.38,-481.63 -32.37,-478.97 -23.94,-478.97C-15.52,-478.97 -8.87,-474.98 -15.52,-470.99C-22.17,-467 -27.93,-455.91 -20.84,-455.03C-13.75,-454.14 -14.63,-462.12 -10.64,-464.34C-6.65,-466.56 1.77,-463.9 3.1,-469.66C4.43,-475.42 11.97,-473.65 11.97,-473.65C14.19,-465.67 -0.44,-465.67 0,-457.24" style="fill:#7fcb2b;fill-rule:nonzero;stroke:rgb(67,65,67);stroke-width:2.85px;"/>
        </g>
        <g transform="matrix(1,0,0,1,1906.8,3512.54)">
            <path d="M0,-112.71C-15.91,-89.52 -28.02,-71.85 -28.89,-70.54C-31.55,-66.55 -35.54,-53.25 -43.52,-43.94C-51.5,-34.63 -46.18,-37.29 -55.49,-23.99C-64.81,-10.69 -74.12,-5.37 -76.78,2.61C-79.44,10.6 -86.09,18.58 -86.09,18.58C-102.05,7.27 -102.05,4.61 -109.37,-7.36C-116.68,-19.33 -115.35,-11.35 -120.01,-20C-124.66,-28.64 -123.78,-32.86 -123.78,-32.86C-119.34,-39.51 -116.24,-51.04 -106.48,-55.47C-96.73,-59.9 -91.41,-54.14 -87.42,-69.66C-83.43,-85.18 -83.43,-83.4 -69.68,-92.27C-55.94,-101.14 -55.05,-82.96 -47.51,-94.93C-39.98,-106.9 -47.07,-108.23 -38.65,-114C-30.22,-119.76 -24.46,-119.76 -21.35,-125.52C-18.25,-131.29 -11.6,-115.33 -2.29,-114C-1.66,-113.91 -1.1,-113.86 -0.61,-113.83C-0.4,-113.45 -0.2,-113.08 0,-112.71Z" style="fill:#7fcb2b;fill-rule:nonzero;stroke:rgb(67,65,67);stroke-width:2.85px;stroke-linejoin:miter;stroke-miterlimit:10;"/>
        </g>
        <g transform="matrix(1.61834,0,0,5.17874,1676.19,-666.419)">
            <ellipse cx="355.398" cy="502.607" rx="90.177" ry="11.143" style="fill:url(#_Radial1);"/>
        </g>
        <g transform="matrix(1.61834,0,0,5.17874,2242.79,188.166)">
            <ellipse cx="355.398" cy="502.607" rx="90.177" ry="11.143" style="fill:url(#_Radial2);"/>
        </g>
        <g transform="matrix(1.61834,0,0,5.17874,1636.29,869.006)">
            <ellipse cx="355.398" cy="502.607" rx="90.177" ry="11.143" style="fill:url(#_Radial3);"/>
        </g>
        <g transform="matrix(0.081622,0,0,0.081622,1996.35,1448.08)">
            <path d="M1300.04,3505.46C1100.84,3180.65 985.946,2798.62 985.946,2389.97C985.946,1209.93 1943.99,251.884 3124.04,251.884C4304.08,251.884 5262.13,1209.93 5262.13,2389.97C5262.13,2798.62 5147.23,3180.65 4948.03,3505.46L4948.49,3505.46L4943.85,3512.24C4909.07,3568.49 4871.75,3623.01 4832.09,3675.61L3339.41,5857.28C3339.41,5857.28 3246.2,5980.99 3124.04,5980.99C3001.88,5980.99 2932.72,5857.28 2932.72,5857.28L1438.63,3705.1C1388.8,3641.35 1342.51,3574.71 1300.05,3505.47L1300.04,3505.46L1300.04,3505.46Z" style="fill:url(#_Radial4);"/>
            <clipPath id="_clip5">
                <path d="M1300.04,3505.46C1100.84,3180.65 985.946,2798.62 985.946,2389.97C985.946,1209.93 1943.99,251.884 3124.04,251.884C4304.08,251.884 5262.13,1209.93 5262.13,2389.97C5262.13,2798.62 5147.23,3180.65 4948.03,3505.46L4948.49,3505.46L4943.85,3512.24C4909.07,3568.49 4871.75,3623.01 4832.09,3675.61L3339.41,5857.28C3339.41,5857.28 3246.2,5980.99 3124.04,5980.99C3001.88,5980.99 2932.72,5857.28 2932.72,5857.28L1438.63,3705.1C1388.8,3641.35 1342.51,3574.71 1300.05,3505.47L1300.04,3505.46L1300.04,3505.46Z"/>
            </clipPath>
            <g clip-path="url(#_clip5)">
                <g transform="matrix(39.3147,0,0,39.3147,-75670.3,-102309)">
                    <circle cx="2004.19" cy="2665.37" r="22.286" style="fill:url(#_Radial6);"/>
                </g>
            </g>
            <path d="M4904.01,3574.26C4880.99,3608.77 4857,3642.57 4832.09,3675.61L3339.41,5857.28C3339.41,5857.28 3246.2,5980.99 3124.04,5980.99C3001.88,5980.99 2932.72,5857.28 2932.72,5857.28L1438.63,3705.1C1388.8,3641.35 1342.51,3574.7 1300.04,3505.47C1100.84,3180.65 985.946,2798.62 985.946,2389.97C985.946,1209.93 1943.99,251.884 3124.04,251.884C4304.08,251.884 5262.13,1209.93 5262.13,2389.97C5262.13,2798.62 5147.23,3180.65 4948.03,3505.46L4948.49,3505.46L4943.85,3512.24C4932.32,3530.9 4920.5,3549.36 4908.42,3567.63C4898.32,3561.2 4889.76,3552.29 4883.71,3541.47C4871.34,3519.38 4871.2,3492.59 4883.13,3470.47C4883.78,3469.27 4884.47,3468.1 4885.19,3466.93C5077.51,3153.34 5188.41,2784.5 5188.41,2389.97C5188.41,1250.62 4263.4,325.599 3124.04,325.599C1984.68,325.599 1059.66,1250.62 1059.66,2389.97C1059.66,2784.5 1170.56,3153.34 1362.88,3466.93C1403.89,3533.79 1448.59,3598.14 1496.71,3659.7C1497.57,3660.8 1498.39,3661.92 1499.19,3663.06L2993.28,5815.24C2994.64,5817.2 2995.9,5819.23 2997.07,5821.31C2997.07,5821.31 3041.82,5907.28 3124.04,5907.28C3205.95,5907.28 3268.54,5828.91 3279.2,5814.74L4771.25,3633.98C4771.89,3633.04 4772.55,3632.12 4773.23,3631.22C4811.53,3580.43 4847.57,3527.79 4881.16,3473.47C4867.1,3496.21 4866.45,3524.78 4879.47,3548.13C4885.48,3558.92 4893.97,3567.82 4904.01,3574.26Z" style="fill:white;"/>
        </g>
        <g transform="matrix(0.081622,0,0,0.081622,2562.95,2302.67)">
            <path d="M1300.04,3505.46C1100.84,3180.65 985.946,2798.62 985.946,2389.97C985.946,1209.93 1943.99,251.884 3124.04,251.884C4304.08,251.884 5262.13,1209.93 5262.13,2389.97C5262.13,2798.62 5147.23,3180.65 4948.03,3505.46L4948.49,3505.46L4943.85,3512.24C4909.07,3568.49 4871.75,3623.01 4832.09,3675.61L3339.41,5857.28C3339.41,5857.28 3246.2,5980.99 3124.04,5980.99C3001.88,5980.99 2932.72,5857.28 2932.72,5857.28L1438.63,3705.1C1388.8,3641.35 1342.51,3574.71 1300.05,3505.47L1300.04,3505.46L1300.04,3505.46Z" style="fill:url(#_Radial7);"/>
            <clipPath id="_clip8">
                <path d="M1300.04,3505.46C1100.84,3180.65 985.946,2798.62 985.946,2389.97C985.946,1209.93 1943.99,251.884 3124.04,251.884C4304.08,251.884 5262.13,1209.93 5262.13,2389.97C5262.13,2798.62 5147.23,3180.65 4948.03,3505.46L4948.49,3505.46L4943.85,3512.24C4909.07,3568.49 4871.75,3623.01 4832.09,3675.61L3339.41,5857.28C3339.41,5857.28 3246.2,5980.99 3124.04,5980.99C3001.88,5980.99 2932.72,5857.28 2932.72,5857.28L1438.63,3705.1C1388.8,3641.35 1342.51,3574.71 1300.05,3505.47L1300.04,3505.46L1300.04,3505.46Z"/>
            </clipPath>
            <g clip-path="url(#_clip8)">
                <g transform="matrix(39.3147,0,0,39.3147,-75670.3,-102309)">
                    <circle cx="2004.19" cy="2665.37" r="22.286" style="fill:url(#_Radial9);"/>
                </g>
            </g>
            <path d="M4904.01,3574.26C4880.99,3608.77 4857,3642.57 4832.09,3675.61L3339.41,5857.28C3339.41,5857.28 3246.2,5980.99 3124.04,5980.99C3001.88,5980.99 2932.72,5857.28 2932.72,5857.28L1438.63,3705.1C1388.8,3641.35 1342.51,3574.7 1300.04,3505.47C1100.84,3180.65 985.946,2798.62 985.946,2389.97C985.946,1209.93 1943.99,251.884 3124.04,251.884C4304.08,251.884 5262.13,1209.93 5262.13,2389.97C5262.13,2798.62 5147.23,3180.65 4948.03,3505.46L4948.49,3505.46L4943.85,3512.24C4932.32,3530.9 4920.5,3549.36 4908.42,3567.63C4898.32,3561.2 4889.76,3552.29 4883.71,3541.47C4871.34,3519.38 4871.2,3492.59 4883.13,3470.47C4883.78,3469.27 4884.47,3468.1 4885.19,3466.93C5077.51,3153.34 5188.41,2784.5 5188.41,2389.97C5188.41,1250.62 4263.4,325.599 3124.04,325.599C1984.68,325.599 1059.66,1250.62 1059.66,2389.97C1059.66,2784.5 1170.56,3153.34 1362.88,3466.93C1403.89,3533.79 1448.59,3598.14 1496.71,3659.7C1497.57,3660.8 1498.39,3661.92 1499.19,3663.06L2993.28,5815.24C2994.64,5817.2 2995.9,5819.23 2997.07,5821.31C2997.07,5821.31 3041.82,5907.28 3124.04,5907.28C3205.95,5907.28 3268.54,5828.91 3279.2,5814.74L4771.25,3633.98C4771.89,3633.04 4772.55,3632.12 4773.23,3631.22C4811.53,3580.43 4847.57,3527.79 4881.16,3473.47C4867.1,3496.21 4866.45,3524.78 4879.47,3548.13C4885.48,3558.92 4893.97,3567.82 4904.01,3574.26Z" style="fill:white;"/>
        </g>
        <g transform="matrix(0.081622,0,0,0.081622,1956.45,2983.51)">
            <path d="M1300.04,3505.46C1100.84,3180.65 985.946,2798.62 985.946,2389.97C985.946,1209.93 1943.99,251.884 3124.04,251.884C4304.08,251.884 5262.13,1209.93 5262.13,2389.97C5262.13,2798.62 5147.23,3180.65 4948.03,3505.46L4948.49,3505.46L4943.85,3512.24C4909.07,3568.49 4871.75,3623.01 4832.09,3675.61L3339.41,5857.28C3339.41,5857.28 3246.2,5980.99 3124.04,5980.99C3001.88,5980.99 2932.72,5857.28 2932.72,5857.28L1438.63,3705.1C1388.8,3641.35 1342.51,3574.71 1300.05,3505.47L1300.04,3505.46L1300.04,3505.46Z" style="fill:url(#_Radial10);"/>
            <clipPath id="_clip11">
                <path d="M1300.04,3505.46C1100.84,3180.65 985.946,2798.62 985.946,2389.97C985.946,1209.93 1943.99,251.884 3124.04,251.884C4304.08,251.884 5262.13,1209.93 5262.13,2389.97C5262.13,2798.62 5147.23,3180.65 4948.03,3505.46L4948.49,3505.46L4943.85,3512.24C4909.07,3568.49 4871.75,3623.01 4832.09,3675.61L3339.41,5857.28C3339.41,5857.28 3246.2,5980.99 3124.04,5980.99C3001.88,5980.99 2932.72,5857.28 2932.72,5857.28L1438.63,3705.1C1388.8,3641.35 1342.51,3574.71 1300.05,3505.47L1300.04,3505.46L1300.04,3505.46Z"/>
            </clipPath>
            <g clip-path="url(#_clip11)">
                <g transform="matrix(39.3147,0,0,39.3147,-75670.3,-102309)">
                    <circle cx="2004.19" cy="2665.37" r="22.286" style="fill:url(#_Radial12);"/>
                </g>
            </g>
            <path d="M4904.01,3574.26C4880.99,3608.77 4857,3642.57 4832.09,3675.61L3339.41,5857.28C3339.41,5857.28 3246.2,5980.99 3124.04,5980.99C3001.88,5980.99 2932.72,5857.28 2932.72,5857.28L1438.63,3705.1C1388.8,3641.35 1342.51,3574.7 1300.04,3505.47C1100.84,3180.65 985.946,2798.62 985.946,2389.97C985.946,1209.93 1943.99,251.884 3124.04,251.884C4304.08,251.884 5262.13,1209.93 5262.13,2389.97C5262.13,2798.62 5147.23,3180.65 4948.03,3505.46L4948.49,3505.46L4943.85,3512.24C4932.32,3530.9 4920.5,3549.36 4908.42,3567.63C4898.32,3561.2 4889.76,3552.29 4883.71,3541.47C4871.34,3519.38 4871.2,3492.59 4883.13,3470.47C4883.78,3469.27 4884.47,3468.1 4885.19,3466.93C5077.51,3153.34 5188.41,2784.5 5188.41,2389.97C5188.41,1250.62 4263.4,325.599 3124.04,325.599C1984.68,325.599 1059.66,1250.62 1059.66,2389.97C1059.66,2784.5 1170.56,3153.34 1362.88,3466.93C1403.89,3533.79 1448.59,3598.14 1496.71,3659.7C1497.57,3660.8 1498.39,3661.92 1499.19,3663.06L2993.28,5815.24C2994.64,5817.2 2995.9,5819.23 2997.07,5821.31C2997.07,5821.31 3041.82,5907.28 3124.04,5907.28C3205.95,5907.28 3268.54,5828.91 3279.2,5814.74L4771.25,3633.98C4771.89,3633.04 4772.55,3632.12 4773.23,3631.22C4811.53,3580.43 4847.57,3527.79 4881.16,3473.47C4867.1,3496.21 4866.45,3524.78 4879.47,3548.13C4885.48,3558.92 4893.97,3567.82 4904.01,3574.26Z" style="fill:white;"/>
        </g>
    </g>
    <defs>
        <radialGradient id="_Radial1" cx="0" cy="0" r="1" gradientUnits="userSpaceOnUse" gradientTransform="matrix(90.1773,0,0,11.143,355.398,502.607)"><stop offset="0" style="stop-color:black;stop-opacity:0.62"/><stop offset="1" style="stop-color:black;stop-opacity:0.15"/></radialGradient>
        <radialGradient id="_Radial2" cx="0" cy="0" r="1" gradientUnits="userSpaceOnUse" gradientTransform="matrix(90.1773,0,0,11.143,355.398,502.607)"><stop offset="0" style="stop-color:black;stop-opacity:0.62"/><stop offset="1" style="stop-color:black;stop-opacity:0.15"/></radialGradient>
        <radialGradient id="_Radial3" cx="0" cy="0" r="1" gradientUnits="userSpaceOnUse" gradientTransform="matrix(90.1773,0,0,11.143,355.398,502.607)"><stop offset="0" style="stop-color:black;stop-opacity:0.62"/><stop offset="1" style="stop-color:black;stop-opacity:0.15"/></radialGradient>
        <radialGradient id="_Radial4" cx="0" cy="0" r="1" gradientUnits="userSpaceOnUse" gradientTransform="matrix(2013.03,1764.25,-2363.7,2697,2331.65,1699.4)"><stop offset="0" style="stop-color:rgb(241,98,100);stop-opacity:1"/><stop offset="0.25" style="stop-color:rgb(240,82,86);stop-opacity:1"/><stop offset="0.47" style="stop-color:rgb(237,28,36);stop-opacity:1"/><stop offset="1" style="stop-color:rgb(120,17,19);stop-opacity:1"/></radialGradient>
        <radialGradient id="_Radial6" cx="0" cy="0" r="1" gradientUnits="userSpaceOnUse" gradientTransform="matrix(-25.1679,-27.4635,27.4635,-25.1679,2017.56,2679.94)"><stop offset="0" style="stop-color:rgb(123,18,20);stop-opacity:1"/><stop offset="1" style="stop-color:rgb(77,23,26);stop-opacity:1"/></radialGradient>
        <radialGradient id="_Radial7" cx="0" cy="0" r="1" gradientUnits="userSpaceOnUse" gradientTransform="matrix(2013.03,1764.25,-2363.7,2697,2331.65,1699.4)"><stop offset="0" style="stop-color:rgb(241,98,100);stop-opacity:1"/><stop offset="0.25" style="stop-color:rgb(240,82,86);stop-opacity:1"/><stop offset="0.47" style="stop-color:rgb(237,28,36);stop-opacity:1"/><stop offset="1" style="stop-color:rgb(120,17,19);stop-opacity:1"/></radialGradient>
        <radialGradient id="_Radial9" cx="0" cy="0" r="1" gradientUnits="userSpaceOnUse" gradientTransform="matrix(-25.1679,-27.4635,27.4635,-25.1679,2017.56,2679.94)"><stop offset="0" style="stop-color:rgb(123,18,20);stop-opacity:1"/><stop offset="1" style="stop-color:rgb(77,23,26);stop-opacity:1"/></radialGradient>
        <radialGradient id="_Radial10" cx="0" cy="0" r="1" gradientUnits="userSpaceOnUse" gradientTransform="matrix(2013.03,1764.25,-2363.7,2697,2331.65,1699.4)"><stop offset="0" style="stop-color:rgb(241,98,100);stop-opacity:1"/><stop offset="0.25" style="stop-color:rgb(240,82,86);stop-opacity:1"/><stop offset="0.47" style="stop-color:rgb(237,28,36);stop-opacity:1"/><stop offset="1" style="stop-color:rgb(120,17,19);stop-opacity:1"/></radialGradient>
        <radialGradient id="_Radial12" cx="0" cy="0" r="1" gradientUnits="userSpaceOnUse" gradientTransform="matrix(-25.1679,-27.4635,27.4635,-25.1679,2017.56,2679.94)"><stop offset="0" style="stop-color:rgb(123,18,20);stop-opacity:1"/><stop offset="1" style="stop-color:rgb(77,23,26);stop-opacity:1"/></radialGradient>
    </defs>
</svg>
