<?xml version="1.0" encoding="UTF-8" standalone="no"?>
<!DOCTYPE svg PUBLIC "-//W3C//DTD SVG 1.1//EN" "http://www.w3.org/Graphics/SVG/1.1/DTD/svg11.dtd">
<svg width="100%" height="100%" viewBox="0 0 122 60" version="1.1" xmlns="http://www.w3.org/2000/svg" xmlns:xlink="http://www.w3.org/1999/xlink" xml:space="preserve" xmlns:serif="http://www.serif.com/" style="fill-rule:evenodd;clip-rule:evenodd;stroke-linejoin:round;stroke-miterlimit:2;">
    <g>
        <g transform="matrix(0.0732768,0,0,0.0732768,38.9844,17.4036)">
            <path d="M81.446,0C9.422,37.392 1.174,112.896 1.174,112.896C-6.043,177.109 21.313,218.479 47.85,242.886C14.793,192.133 66.553,145.935 66.553,145.935L66.253,149.191C65.02,167.804 67.831,177.737 71.183,183.039C79.668,129.979 123.492,108.021 123.492,108.021L123.492,83.519L164.958,83.519L81.446,0ZM72.124,117.541L52.181,117.541L52.181,136.103L72.124,136.103L72.124,117.541ZM48.826,117.541L28.874,117.541L28.874,136.103L48.826,136.103L48.826,117.541ZM72.127,94.998L52.183,94.998L52.183,113.554L72.127,113.554L72.127,94.998ZM48.821,94.998L28.869,94.998L28.869,113.554L48.821,113.554L48.821,94.998Z" style="fill:rgb(89,92,93);"/>
        </g>
        <g transform="matrix(0.0976999,0,0,-0.0976999,5.2776,60.0633)">
            <path d="M139.92,418.35C124.625,418.32 110.94,415.369 98.857,409.511C86.774,403.641 76.574,395.763 68.242,385.866C59.922,375.963 53.553,364.469 49.128,351.378C44.698,338.285 42.503,324.496 42.526,310.023C42.556,294.435 44.387,279.819 48.028,266.178C51.665,252.544 57.451,240.51 65.391,230.094C73.329,219.667 83.359,211.47 95.455,205.501C107.569,199.536 122.233,196.57 139.474,196.596C152.812,196.61 165.247,199.983 176.775,206.69C188.301,213.381 197.386,222.715 204.039,234.706L204.828,234.706L204.881,201.726C204.913,183.901 200.506,170.261 191.644,160.778C182.776,151.299 168.782,146.54 149.646,146.505C143.539,146.505 137.719,146.833 132.164,147.515C126.619,148.2 121.557,149.717 116.97,152.054C112.389,154.409 108.429,157.655 105.091,161.79C101.762,165.956 99.393,171.347 97.994,177.985L50.251,177.904C51.385,165.407 55.022,154.86 61.165,146.262C67.286,137.653 74.893,130.725 83.942,125.466C92.998,120.202 103.015,116.469 114.005,114.266C125,112.071 135.927,110.971 146.782,110.993C181.001,111.056 207.208,119.102 225.41,135.137C243.6,151.179 252.672,175.48 252.615,208.045L252.26,412.635L204.518,412.544L204.57,383.072L203.782,383.064C197.642,395.267 188.875,404.197 177.463,409.884C166.106,415.531 153.646,418.353 140.088,418.353L139.92,418.353M121.392,240.333C114.305,244.499 108.475,249.927 103.885,256.607C99.296,263.292 95.889,270.88 93.658,279.374C91.421,287.876 90.298,296.593 90.282,305.514C90.262,314.427 91.22,323.419 93.143,332.469C95.068,341.547 98.25,349.643 102.68,356.751C107.106,363.875 112.92,369.66 120.123,374.147C127.323,378.608 136.197,380.863 146.738,380.88C156.997,380.901 165.814,378.962 173.167,375.068C180.519,371.174 186.503,365.89 191.09,359.209C195.673,352.52 199.091,344.868 201.324,336.223C203.558,327.586 204.676,318.668 204.696,309.472C204.711,300.272 203.689,291.143 201.627,282.077C199.561,273.005 196.246,264.919 191.682,257.794C187.109,250.678 181.152,244.962 173.809,240.624C166.476,236.288 157.529,234.114 146.992,234.107L146.85,234.107C136.929,234.107 128.43,236.175 121.392,240.333" style="fill:url(#_Linear1);fill-rule:nonzero;"/>
        </g>
        <g transform="matrix(0.0976999,0,0,-0.0976999,5.2776,60.0633)">
            <path d="M261.63,512.05L262.17,199.55L309.915,199.64L309.375,512.14L261.63,512.05Z" style="fill:url(#_Linear2);fill-rule:nonzero;"/>
        </g>
        <g transform="matrix(0.0976999,0,0,-0.0976999,5.2776,60.0633)">
            <path d="M604.75,512.28L605.293,199.78L650.232,199.859L650.18,229.499L651.008,229.499C654.629,222.265 659.17,216.429 664.598,211.982C670.025,207.544 676.078,203.928 682.76,201.144C689.438,198.367 696.455,196.482 703.838,195.511C711.207,194.54 718.508,194.057 725.744,194.067C741.595,194.11 755.354,197.249 767.023,203.54C778.691,209.829 788.341,218.191 795.969,228.651C803.6,239.109 809.277,251.165 813.008,264.822C816.738,278.466 818.596,292.536 818.574,307.019C818.543,322.899 816.428,337.787 812.226,351.718C808.033,365.623 801.742,377.799 793.383,388.221C785.009,398.655 774.488,406.848 761.82,412.815C749.136,418.78 734.328,421.758 717.328,421.719C711.215,421.719 705.031,420.95 698.765,419.388C692.509,417.858 686.517,415.635 680.825,412.703C675.115,409.771 669.91,406.224 665.192,402.063C660.463,397.887 656.439,393.169 653.106,387.88L652.313,387.868L652.097,512.368L604.75,512.28ZM685.777,237.34C678.41,241.231 672.08,246.515 666.797,253.202C661.51,259.889 657.544,267.9 654.886,277.241C652.234,286.578 650.9,296.686 650.879,307.564C650.836,330.702 655.868,349.271 665.988,363.237C676.098,377.193 691.145,384.198 711.137,384.228C720.856,384.241 729.469,382.091 736.975,377.789C744.474,373.474 750.725,367.757 755.736,360.665C760.75,353.556 764.514,345.407 767.027,336.211C769.543,327.015 770.816,317.534 770.832,307.769C770.843,298.289 769.818,289.008 767.754,279.945C765.686,270.879 762.227,262.785 757.369,255.66C752.529,248.533 746.367,242.738 738.869,238.265C731.388,233.795 722.235,231.558 711.4,231.531L711.312,231.531C701.632,231.531 693.114,233.453 685.777,237.34" style="fill:url(#_Linear3);fill-rule:nonzero;"/>
        </g>
        <g transform="matrix(0.0976999,0,0,-0.0976999,5.2776,60.0633)">
            <path d="M1043.1,496.47L1043.61,198.57L1091.36,198.654L1090.84,496.544L1043.1,496.47Z" style="fill:url(#_Linear4);fill-rule:nonzero;"/>
        </g>
        <g transform="matrix(0.0976999,0,0,-0.0976999,5.2776,60.0633)">
            <path d="M489.13,512.44L489.207,469.501C506.712,465.098 522.887,457.327 536.988,446.901L536.873,512.528L489.13,512.44Z" style="fill:url(#_Linear5);fill-rule:nonzero;"/>
        </g>
        <g transform="matrix(0.0976999,0,0,-0.0976999,5.2776,60.0633)">
            <path d="M489.66,203.89L489.671,199.951L537.414,200.036L537.366,226.645C523.299,216.183 507.155,208.355 489.66,203.89" style="fill:url(#_Linear6);fill-rule:nonzero;"/>
        </g>
        <g transform="matrix(0.0976999,0,0,-0.0976999,5.2776,60.0633)">
            <path d="M432.55,512.35L432.618,471.591C440.246,472.92 448.087,473.619 456.098,473.629C464.372,473.647 472.482,472.928 480.371,471.535L480.291,512.426L432.55,512.35Z" style="fill:url(#_Linear7);fill-rule:nonzero;"/>
        </g>
        <g transform="matrix(0.0976999,0,0,-0.0976999,5.2776,60.0633)">
            <path d="M464.96,199.9L480.837,199.93L480.83,201.834C475.628,200.883 470.337,200.24 464.96,199.9" style="fill:url(#_Linear8);fill-rule:nonzero;"/>
        </g>
        <g transform="matrix(0.0976999,0,0,-0.0976999,5.2776,60.0633)">
            <path d="M433.08,199.86L448.169,199.887C443.059,200.177 438.021,200.76 433.08,201.609L433.08,199.86Z" style="fill:url(#_Linear9);fill-rule:nonzero;"/>
        </g>
        <g transform="matrix(0.0976999,0,0,-0.0976999,5.2776,60.0633)">
            <path d="M376.49,199.75L424.233,199.828L424.229,203.578C406.744,207.865 390.571,215.502 376.446,225.778L376.49,199.75Z" style="fill:url(#_Linear10);fill-rule:nonzero;"/>
        </g>
        <g transform="matrix(0.0976999,0,0,-0.0976999,5.2776,60.0633)">
            <path d="M375.96,512.25L376.072,447.224C390.157,457.546 406.303,465.244 423.776,469.59L423.7,512.329L375.96,512.25Z" style="fill:url(#_Linear11);fill-rule:nonzero;"/>
        </g>
        <g transform="matrix(0.0976999,0,0,-0.0976999,5.2776,60.0633)">
            <path d="M319.36,512.16L319.9,199.66L367.648,199.745L367.584,233.353C338.856,258.414 320.667,295.279 320.593,336.413C320.524,377.542 338.58,414.459 367.233,439.613L367.103,512.248L319.36,512.16Z" style="fill:url(#_Linear12);fill-rule:nonzero;"/>
        </g>
        <g transform="matrix(0.0976999,0,0,-0.0976999,5.2776,60.0633)">
            <path d="M545.72,512.54L545.849,439.223C574.13,414.174 591.976,377.622 592.046,336.873C592.115,296.12 574.393,259.499 546.207,234.353L546.263,200.048L594.006,200.126L593.465,512.626L545.72,512.54Z" style="fill:url(#_Linear13);fill-rule:nonzero;"/>
        </g>
        <g transform="matrix(0.0976999,0,0,-0.0976999,5.2776,60.0633)">
            <path d="M933.73,420.12C921.755,420.093 910.054,418.961 898.651,416.719C887.229,414.465 876.991,410.547 867.954,404.981C858.899,399.388 851.471,392.008 845.639,382.815C839.8,373.614 836.484,362.057 835.683,348.133L883.42,348.222C884.509,359.942 889.349,368.606 897.935,374.198C906.519,379.798 917.47,382.608 930.782,382.637C935.495,382.644 940.49,382.297 945.759,381.609C951.029,380.91 955.806,379.522 960.126,377.434C964.423,375.35 968.03,372.346 970.95,368.432C973.872,364.527 975.335,359.512 975.347,353.35C975.356,346.357 973.63,341.106 970.167,337.61C966.687,334.112 961.972,331.515 955.997,329.823C950.027,328.139 943.152,326.931 935.376,326.224C927.597,325.511 919.394,324.313 910.792,322.615C900.782,321.487 890.846,319.876 880.988,317.764C871.128,315.664 862.235,312.244 854.329,307.501C846.417,302.743 840.032,296.204 835.18,287.84C830.335,279.487 827.926,268.638 827.943,255.29C827.968,244.714 829.996,235.467 834.05,227.544C838.097,219.618 843.54,213.091 850.37,207.954C857.193,202.817 865.069,198.935 873.995,196.318C882.899,193.696 892.232,192.376 901.983,192.395C914.796,192.425 928.075,194.527 941.866,198.71C955.636,202.906 967.241,209.585 976.696,218.771C978.001,212.315 978.798,203.286 980.831,198.452L1027.57,198.532C1026.43,201.043 1025.53,203.993 1025.12,205.03C1020.63,216.331 1020.53,240.53 1020.51,246.382L1020.32,357.562C1020.3,368.994 1017.78,378.671 1012.75,386.604C1007.71,394.527 1001.09,401.007 992.876,406.01C984.634,411.009 975.378,414.607 965.071,416.816C954.858,419.011 944.512,420.116 934.046,420.116C933.94,420.116 933.835,420.116 933.73,420.115M905.515,231.145C900.374,231.965 895.65,233.416 891.347,235.496C887.034,237.59 883.357,240.434 880.292,244.049C877.226,247.668 875.69,252.119 875.687,257.417C875.675,263.553 876.706,268.767 878.785,273.099C880.858,277.416 883.699,280.9 887.3,283.554C890.909,286.205 895.067,288.305 899.796,289.852C904.507,291.386 909.364,292.588 914.364,293.432C924.925,295.395 935.467,296.871 946.013,297.859C956.567,298.85 965.445,301.728 972.663,306.478L972.727,270.957C972.734,263.436 970.94,257.097 967.341,251.936C963.734,246.77 959.226,242.512 953.821,239.164C948.415,235.81 942.651,233.435 936.554,232.029C930.44,230.617 924.751,229.916 919.474,229.908L919.351,229.908C915.212,229.908 910.599,230.313 905.515,231.145" style="fill:url(#_Linear14);fill-rule:nonzero;"/>
        </g>
        <g transform="matrix(0.0976999,0,0,-0.0976999,5.2776,60.0633)">
            <path d="M263.32,181.24L263.32,127.203L275.202,127.203L275.202,149.521L297.832,149.521L297.832,158.761L275.202,158.761L275.202,171.244L301.308,171.244L301.308,181.24L263.32,181.24Z" style="fill:url(#_Linear15);fill-rule:nonzero;"/>
        </g>
        <g transform="matrix(0.0976999,0,0,-0.0976999,5.2776,60.0633)">
            <rect x="338.46" y="127.21" width="11.88" height="54.037" style="fill:url(#_Linear16);fill-rule:nonzero;"/>
        </g>
        <g transform="matrix(0.0976999,0,0,-0.0976999,5.2776,60.0633)">
            <path d="M391.06,181.24L391.06,127.203L402.945,127.203L402.945,148.304L414.824,148.304C417.801,148.304 419.942,147.65 421.258,146.35C422.57,145.029 423.428,142.959 423.83,140.144C424.137,137.969 424.361,135.701 424.514,133.324C424.665,130.959 425.065,128.918 425.723,127.203L437.612,127.203C437.053,127.955 436.632,128.879 436.355,129.961C436.078,131.045 435.876,132.189 435.752,133.402C435.625,134.617 435.535,135.794 435.484,136.963C435.438,138.121 435.385,139.131 435.335,139.987C435.235,141.349 435.044,142.713 434.765,144.073C434.49,145.435 434.05,146.683 433.444,147.828C432.834,148.955 432.057,149.941 431.097,150.771C430.138,151.609 428.927,152.218 427.464,152.623L427.464,152.777C430.494,153.991 432.673,155.752 434.009,158.078C435.346,160.392 436.017,163.138 436.017,166.316C436.017,168.391 435.65,170.32 434.922,172.119C434.19,173.908 433.128,175.481 431.743,176.845C430.356,178.207 428.688,179.279 426.746,180.064C424.798,180.849 422.622,181.24 420.199,181.24L391.06,181.24ZM402.945,171.994L415.959,171.994C418.686,171.994 420.725,171.407 422.09,170.217C423.454,169.043 424.137,167.132 424.137,164.502C424.137,161.781 423.454,159.814 422.09,158.601C420.725,157.398 418.686,156.787 415.959,156.787L402.945,156.787L402.945,171.994Z" style="fill:url(#_Linear17);fill-rule:nonzero;"/>
        </g>
        <g transform="matrix(0.0976999,0,0,-0.0976999,5.2776,60.0633)">
            <path d="M475.97,181.24L475.97,127.203L516.989,127.203L516.989,137.195L487.853,137.195L487.853,150.434L514.039,150.434L514.039,159.668L487.853,159.668L487.853,171.244L516.387,171.244L516.387,181.24L475.97,181.24Z" style="fill:url(#_Linear18);fill-rule:nonzero;"/>
        </g>
        <g transform="matrix(0.0976999,0,0,-0.0976999,5.2776,60.0633)">
            <path d="M606.6,181.24L606.6,127.203L644.814,127.203L644.814,137.195L618.479,137.195L618.479,181.24L606.6,181.24Z" style="fill:url(#_Linear19);fill-rule:nonzero;"/>
        </g>
        <g transform="matrix(0.0976999,0,0,-0.0976999,5.2776,60.0633)">
            <rect x="681.74" y="127.21" width="11.881" height="54.037" style="fill:url(#_Linear20);fill-rule:nonzero;"/>
        </g>
        <g transform="matrix(0.0976999,0,0,-0.0976999,5.2776,60.0633)">
            <path d="M775.82,181.24L763.859,144.073L763.709,144.073L751.068,181.24L734.342,181.24L734.342,127.203L745.467,127.203L745.467,165.119L745.622,165.119L758.863,127.203L768.023,127.203L781.273,165.49L781.418,165.49L781.418,127.203L792.548,127.203L792.548,181.24L775.82,181.24Z" style="fill:url(#_Linear21);fill-rule:nonzero;"/>
        </g>
        <g transform="matrix(0.0976999,0,0,-0.0976999,5.2776,60.0633)">
            <rect x="833.25" y="127.21" width="11.884" height="54.037" style="fill:url(#_Linear22);fill-rule:nonzero;"/>
        </g>
        <g transform="matrix(0.0976999,0,0,-0.0976999,5.2776,60.0633)">
            <path d="M881.61,181.24L881.61,171.244L897.811,171.244L897.811,127.203L909.692,127.203L909.692,171.244L925.888,171.244L925.888,181.24L881.61,181.24Z" style="fill:url(#_Linear23);fill-rule:nonzero;"/>
        </g>
        <g transform="matrix(0.0976999,0,0,-0.0976999,5.2776,60.0633)">
            <path d="M962.37,181.24L962.37,127.203L1003.39,127.203L1003.39,137.195L974.253,137.195L974.253,150.434L1000.43,150.434L1000.43,159.668L974.253,159.668L974.253,171.244L1002.78,171.244L1002.78,181.24L962.37,181.24Z" style="fill:url(#_Linear24);fill-rule:nonzero;"/>
        </g>
        <g transform="matrix(0.0976999,0,0,-0.0976999,5.2776,60.0633)">
            <path d="M1041.7,181.24L1041.7,127.203L1065.01,127.203C1069.14,127.203 1072.73,127.891 1075.8,129.281C1078.85,130.668 1081.39,132.576 1083.43,135C1085.47,137.416 1087,140.297 1088.01,143.615C1089.02,146.953 1089.53,150.586 1089.53,154.517C1089.53,159.01 1088.91,162.92 1087.67,166.248C1086.44,169.574 1084.72,172.357 1082.53,174.578C1080.33,176.787 1077.73,178.457 1074.73,179.572C1071.73,180.674 1068.49,181.24 1065.01,181.24L1041.7,181.24ZM1053.58,171.244L1062.06,171.244C1064.98,171.244 1067.44,170.828 1069.43,169.99C1071.43,169.158 1073.03,167.968 1074.24,166.393C1075.45,164.836 1076.33,162.957 1076.85,160.756C1077.38,158.568 1077.65,156.104 1077.65,153.377C1077.65,150.404 1077.26,147.88 1076.52,145.812C1075.76,143.75 1074.75,142.065 1073.48,140.787C1072.22,139.492 1070.79,138.574 1069.17,138.014C1067.56,137.463 1065.89,137.195 1064.17,137.195L1053.58,137.195L1053.58,171.244Z" style="fill:url(#_Linear25);fill-rule:nonzero;"/>
        </g>
        <g transform="matrix(0.0976999,0,0,-0.0976999,5.2776,60.0633)">
            <path d="M475.36,364.36C462.275,320.194 433.226,310.28 433.226,310.28C431.56,309.956 422.883,309.63 428.086,327.563C433.289,345.491 452.332,359.574 452.332,359.574C415.59,336.055 408.705,310.657 408.705,310.657C405.549,302.624 404.073,294.87 403.684,287.665C402.034,288.064 387.024,292.382 392.538,320.647C392.538,320.647 346.842,261.167 414.051,232.435C414.051,232.435 413.11,237.993 414.58,244.63C416.316,250.831 418.949,254.964 421.396,257.649C423.088,259.38 425.141,260.962 427.638,262.29C419.572,231.911 431.928,235.046 431.928,235.046C441.945,239.177 437.838,263.698 437.838,263.698C433.404,295.852 450.25,313.237 450.25,313.237C465.125,330.827 485.155,334.273 485.155,334.273L477.13,328.806C438.046,299.648 456.009,267.384 456.009,267.384C468.466,238.469 474.649,244.937 474.649,244.937C485.01,254.548 467.111,279.138 467.111,279.138C490.338,259.483 486.864,227.408 486.864,227.408L494.368,229.702C492.597,231.449 505.033,259.325 505.033,259.325C511.724,269.951 514.256,284.724 514.256,284.724C517.635,308.641 501.973,322.883 501.973,322.883C503.463,318.154 501.435,301.194 501.435,301.194C498.402,280.77 488.73,283.27 488.73,283.27C485.561,283.614 483.569,287.77 483.569,287.77C478.076,296.247 484.12,315.843 484.12,315.843C488.973,328.29 492.003,340.907 492.003,340.907C500.226,371.615 490.263,394.391 490.263,394.391C477.973,425.642 444.388,443.94 444.388,443.94C488.42,398.162 475.36,364.36 475.36,364.36" style="fill:url(#_Linear26);fill-rule:nonzero;"/>
        </g>
    </g>
    <defs>
        <linearGradient id="_Linear1" x1="0" y1="0" x2="1" y2="0" gradientUnits="userSpaceOnUse" gradientTransform="matrix(-5.9767,407.93,-407.93,-5.9767,45428.2,777.44)"><stop offset="0" style="stop-color:rgb(237,237,12);stop-opacity:1"/><stop offset="0.13" style="stop-color:rgb(237,237,12);stop-opacity:1"/><stop offset="0.61" style="stop-color:rgb(239,63,33);stop-opacity:1"/><stop offset="1" style="stop-color:rgb(239,63,33);stop-opacity:1"/></linearGradient>
        <linearGradient id="_Linear2" x1="0" y1="0" x2="1" y2="0" gradientUnits="userSpaceOnUse" gradientTransform="matrix(-5.9766,407.92,-407.92,-5.9766,81689.7,1308.73)"><stop offset="0" style="stop-color:rgb(237,237,12);stop-opacity:1"/><stop offset="0.13" style="stop-color:rgb(237,237,12);stop-opacity:1"/><stop offset="0.61" style="stop-color:rgb(239,63,33);stop-opacity:1"/><stop offset="1" style="stop-color:rgb(239,63,33);stop-opacity:1"/></linearGradient>
        <linearGradient id="_Linear3" x1="0" y1="0" x2="1" y2="0" gradientUnits="userSpaceOnUse" gradientTransform="matrix(-5.9768,407.93,-407.93,-5.9768,79879.5,1282.22)"><stop offset="0" style="stop-color:rgb(237,237,12);stop-opacity:1"/><stop offset="0.13" style="stop-color:rgb(237,237,12);stop-opacity:1"/><stop offset="0.61" style="stop-color:rgb(239,63,33);stop-opacity:1"/><stop offset="1" style="stop-color:rgb(239,63,33);stop-opacity:1"/></linearGradient>
        <linearGradient id="_Linear4" x1="0" y1="0" x2="1" y2="0" gradientUnits="userSpaceOnUse" gradientTransform="matrix(-5.9769,407.94,-407.94,-5.9769,82075,1314.37)"><stop offset="0" style="stop-color:rgb(237,237,12);stop-opacity:1"/><stop offset="0.13" style="stop-color:rgb(237,237,12);stop-opacity:1"/><stop offset="0.61" style="stop-color:rgb(239,63,33);stop-opacity:1"/><stop offset="1" style="stop-color:rgb(239,63,33);stop-opacity:1"/></linearGradient>
        <linearGradient id="_Linear5" x1="0" y1="0" x2="1" y2="0" gradientUnits="userSpaceOnUse" gradientTransform="matrix(-5.9771,407.95,-407.95,-5.9771,182832,2790.61)"><stop offset="0" style="stop-color:rgb(237,237,12);stop-opacity:1"/><stop offset="0.13" style="stop-color:rgb(237,237,12);stop-opacity:1"/><stop offset="0.61" style="stop-color:rgb(239,63,33);stop-opacity:1"/><stop offset="1" style="stop-color:rgb(239,63,33);stop-opacity:1"/></linearGradient>
        <linearGradient id="_Linear6" x1="0" y1="0" x2="1" y2="0" gradientUnits="userSpaceOnUse" gradientTransform="matrix(-5.9764,407.91,-407.91,-5.9764,82076.9,1314.4)"><stop offset="0" style="stop-color:rgb(237,237,12);stop-opacity:1"/><stop offset="0.13" style="stop-color:rgb(237,237,12);stop-opacity:1"/><stop offset="0.61" style="stop-color:rgb(239,63,33);stop-opacity:1"/><stop offset="1" style="stop-color:rgb(239,63,33);stop-opacity:1"/></linearGradient>
        <linearGradient id="_Linear7" x1="0" y1="0" x2="1" y2="0" gradientUnits="userSpaceOnUse" gradientTransform="matrix(-5.9775,407.98,-407.98,-5.9775,192839,2937.19)"><stop offset="0" style="stop-color:rgb(237,237,12);stop-opacity:1"/><stop offset="0.13" style="stop-color:rgb(237,237,12);stop-opacity:1"/><stop offset="0.61" style="stop-color:rgb(239,63,33);stop-opacity:1"/><stop offset="1" style="stop-color:rgb(239,63,33);stop-opacity:1"/></linearGradient>
        <linearGradient id="_Linear8" x1="0" y1="0" x2="1" y2="0" gradientUnits="userSpaceOnUse" gradientTransform="matrix(-6.0149,410.53,-410.53,-6.0149,82539.1,1320.67)"><stop offset="0" style="stop-color:rgb(237,237,12);stop-opacity:1"/><stop offset="0.13" style="stop-color:rgb(237,237,12);stop-opacity:1"/><stop offset="0.61" style="stop-color:rgb(239,63,33);stop-opacity:1"/><stop offset="1" style="stop-color:rgb(239,63,33);stop-opacity:1"/></linearGradient>
        <linearGradient id="_Linear9" x1="0" y1="0" x2="1" y2="0" gradientUnits="userSpaceOnUse" gradientTransform="matrix(-5.9724,407.63,-407.63,-5.9724,81910.8,1312.04)"><stop offset="0" style="stop-color:rgb(237,237,12);stop-opacity:1"/><stop offset="0.13" style="stop-color:rgb(237,237,12);stop-opacity:1"/><stop offset="0.61" style="stop-color:rgb(239,63,33);stop-opacity:1"/><stop offset="1" style="stop-color:rgb(239,63,33);stop-opacity:1"/></linearGradient>
        <linearGradient id="_Linear10" x1="0" y1="0" x2="1" y2="0" gradientUnits="userSpaceOnUse" gradientTransform="matrix(-5.978,408.01,-408.01,-5.978,81901.6,1311.83)"><stop offset="0" style="stop-color:rgb(237,237,12);stop-opacity:1"/><stop offset="0.13" style="stop-color:rgb(237,237,12);stop-opacity:1"/><stop offset="0.61" style="stop-color:rgb(239,63,33);stop-opacity:1"/><stop offset="1" style="stop-color:rgb(239,63,33);stop-opacity:1"/></linearGradient>
        <linearGradient id="_Linear11" x1="0" y1="0" x2="1" y2="0" gradientUnits="userSpaceOnUse" gradientTransform="matrix(-5.9762,407.89,-407.89,-5.9762,182823,2790.53)"><stop offset="0" style="stop-color:rgb(237,237,12);stop-opacity:1"/><stop offset="0.13" style="stop-color:rgb(237,237,12);stop-opacity:1"/><stop offset="0.61" style="stop-color:rgb(239,63,33);stop-opacity:1"/><stop offset="1" style="stop-color:rgb(239,63,33);stop-opacity:1"/></linearGradient>
        <linearGradient id="_Linear12" x1="0" y1="0" x2="1" y2="0" gradientUnits="userSpaceOnUse" gradientTransform="matrix(-5.9767,407.93,-407.93,-5.9767,81794.3,1310.26)"><stop offset="0" style="stop-color:rgb(237,237,12);stop-opacity:1"/><stop offset="0.13" style="stop-color:rgb(237,237,12);stop-opacity:1"/><stop offset="0.61" style="stop-color:rgb(239,63,33);stop-opacity:1"/><stop offset="1" style="stop-color:rgb(239,63,33);stop-opacity:1"/></linearGradient>
        <linearGradient id="_Linear13" x1="0" y1="0" x2="1" y2="0" gradientUnits="userSpaceOnUse" gradientTransform="matrix(-5.9768,407.93,-407.93,-5.9768,82178.9,1315.91)"><stop offset="0" style="stop-color:rgb(237,237,12);stop-opacity:1"/><stop offset="0.13" style="stop-color:rgb(237,237,12);stop-opacity:1"/><stop offset="0.61" style="stop-color:rgb(239,63,33);stop-opacity:1"/><stop offset="1" style="stop-color:rgb(239,63,33);stop-opacity:1"/></linearGradient>
        <linearGradient id="_Linear14" x1="0" y1="0" x2="1" y2="0" gradientUnits="userSpaceOnUse" gradientTransform="matrix(-5.9769,407.94,-407.94,-5.9769,79414.8,1275.39)"><stop offset="0" style="stop-color:rgb(237,237,12);stop-opacity:1"/><stop offset="0.13" style="stop-color:rgb(237,237,12);stop-opacity:1"/><stop offset="0.61" style="stop-color:rgb(239,63,33);stop-opacity:1"/><stop offset="1" style="stop-color:rgb(239,63,33);stop-opacity:1"/></linearGradient>
        <linearGradient id="_Linear15" x1="0" y1="0" x2="1" y2="0" gradientUnits="userSpaceOnUse" gradientTransform="matrix(1.4919,411.94,-411.94,1.4919,52682.1,-78.7242)"><stop offset="0" style="stop-color:rgb(237,237,12);stop-opacity:1"/><stop offset="0.13" style="stop-color:rgb(237,237,12);stop-opacity:1"/><stop offset="0.61" style="stop-color:rgb(239,63,33);stop-opacity:1"/><stop offset="1" style="stop-color:rgb(239,63,33);stop-opacity:1"/></linearGradient>
        <linearGradient id="_Linear16" x1="0" y1="0" x2="1" y2="0" gradientUnits="userSpaceOnUse" gradientTransform="matrix(1.4919,411.94,-411.94,1.4919,52747.1,-78.9546)"><stop offset="0" style="stop-color:rgb(237,237,12);stop-opacity:1"/><stop offset="0.13" style="stop-color:rgb(237,237,12);stop-opacity:1"/><stop offset="0.61" style="stop-color:rgb(239,63,33);stop-opacity:1"/><stop offset="1" style="stop-color:rgb(239,63,33);stop-opacity:1"/></linearGradient>
        <linearGradient id="_Linear17" x1="0" y1="0" x2="1" y2="0" gradientUnits="userSpaceOnUse" gradientTransform="matrix(1.4919,411.94,-411.94,1.4919,52814.2,-79.2042)"><stop offset="0" style="stop-color:rgb(237,237,12);stop-opacity:1"/><stop offset="0.13" style="stop-color:rgb(237,237,12);stop-opacity:1"/><stop offset="0.61" style="stop-color:rgb(239,63,33);stop-opacity:1"/><stop offset="1" style="stop-color:rgb(239,63,33);stop-opacity:1"/></linearGradient>
        <linearGradient id="_Linear18" x1="0" y1="0" x2="1" y2="0" gradientUnits="userSpaceOnUse" gradientTransform="matrix(1.4919,411.95,-411.95,1.4919,52897.6,-79.4942)"><stop offset="0" style="stop-color:rgb(237,237,12);stop-opacity:1"/><stop offset="0.13" style="stop-color:rgb(237,237,12);stop-opacity:1"/><stop offset="0.61" style="stop-color:rgb(239,63,33);stop-opacity:1"/><stop offset="1" style="stop-color:rgb(239,63,33);stop-opacity:1"/></linearGradient>
        <linearGradient id="_Linear19" x1="0" y1="0" x2="1" y2="0" gradientUnits="userSpaceOnUse" gradientTransform="matrix(1.4919,411.95,-411.95,1.4919,53026.8,-79.9642)"><stop offset="0" style="stop-color:rgb(237,237,12);stop-opacity:1"/><stop offset="0.13" style="stop-color:rgb(237,237,12);stop-opacity:1"/><stop offset="0.61" style="stop-color:rgb(239,63,33);stop-opacity:1"/><stop offset="1" style="stop-color:rgb(239,63,33);stop-opacity:1"/></linearGradient>
        <linearGradient id="_Linear20" x1="0" y1="0" x2="1" y2="0" gradientUnits="userSpaceOnUse" gradientTransform="matrix(1.4919,411.95,-411.95,1.4919,53091.7,-80.2046)"><stop offset="0" style="stop-color:rgb(237,237,12);stop-opacity:1"/><stop offset="0.13" style="stop-color:rgb(237,237,12);stop-opacity:1"/><stop offset="0.61" style="stop-color:rgb(239,63,33);stop-opacity:1"/><stop offset="1" style="stop-color:rgb(239,63,33);stop-opacity:1"/></linearGradient>
        <linearGradient id="_Linear21" x1="0" y1="0" x2="1" y2="0" gradientUnits="userSpaceOnUse" gradientTransform="matrix(1.4919,411.95,-411.95,1.4919,53164.6,-80.4642)"><stop offset="0" style="stop-color:rgb(237,237,12);stop-opacity:1"/><stop offset="0.13" style="stop-color:rgb(237,237,12);stop-opacity:1"/><stop offset="0.61" style="stop-color:rgb(239,63,33);stop-opacity:1"/><stop offset="1" style="stop-color:rgb(239,63,33);stop-opacity:1"/></linearGradient>
        <linearGradient id="_Linear22" x1="0" y1="0" x2="1" y2="0" gradientUnits="userSpaceOnUse" gradientTransform="matrix(1.4919,411.95,-411.95,1.4919,53243.2,-80.7546)"><stop offset="0" style="stop-color:rgb(237,237,12);stop-opacity:1"/><stop offset="0.13" style="stop-color:rgb(237,237,12);stop-opacity:1"/><stop offset="0.61" style="stop-color:rgb(239,63,33);stop-opacity:1"/><stop offset="1" style="stop-color:rgb(239,63,33);stop-opacity:1"/></linearGradient>
        <linearGradient id="_Linear23" x1="0" y1="0" x2="1" y2="0" gradientUnits="userSpaceOnUse" gradientTransform="matrix(1.4919,411.94,-411.94,1.4919,53303.5,-80.9742)"><stop offset="0" style="stop-color:rgb(237,237,12);stop-opacity:1"/><stop offset="0.13" style="stop-color:rgb(237,237,12);stop-opacity:1"/><stop offset="0.61" style="stop-color:rgb(239,63,33);stop-opacity:1"/><stop offset="1" style="stop-color:rgb(239,63,33);stop-opacity:1"/></linearGradient>
        <linearGradient id="_Linear24" x1="0" y1="0" x2="1" y2="0" gradientUnits="userSpaceOnUse" gradientTransform="matrix(1.4919,411.95,-411.95,1.4919,53384,-81.2642)"><stop offset="0" style="stop-color:rgb(237,237,12);stop-opacity:1"/><stop offset="0.13" style="stop-color:rgb(237,237,12);stop-opacity:1"/><stop offset="0.61" style="stop-color:rgb(239,63,33);stop-opacity:1"/><stop offset="1" style="stop-color:rgb(239,63,33);stop-opacity:1"/></linearGradient>
        <linearGradient id="_Linear25" x1="0" y1="0" x2="1" y2="0" gradientUnits="userSpaceOnUse" gradientTransform="matrix(1.4919,411.95,-411.95,1.4919,53466.7,-81.5642)"><stop offset="0" style="stop-color:rgb(237,237,12);stop-opacity:1"/><stop offset="0.13" style="stop-color:rgb(237,237,12);stop-opacity:1"/><stop offset="0.61" style="stop-color:rgb(239,63,33);stop-opacity:1"/><stop offset="1" style="stop-color:rgb(239,63,33);stop-opacity:1"/></linearGradient>
        <linearGradient id="_Linear26" x1="0" y1="0" x2="1" y2="0" gradientUnits="userSpaceOnUse" gradientTransform="matrix(1.0262,-261.48,261.48,1.0262,-59017.2,205.994)"><stop offset="0" style="stop-color:rgb(237,237,12);stop-opacity:1"/><stop offset="0.13" style="stop-color:rgb(237,237,12);stop-opacity:1"/><stop offset="0.61" style="stop-color:rgb(239,63,33);stop-opacity:1"/><stop offset="1" style="stop-color:rgb(239,63,33);stop-opacity:1"/></linearGradient>
    </defs>
</svg>
